<svg xmlns="http://www.w3.org/2000/svg" width="18.438" height="18.192" viewBox="0 0 18.438 18.192"><defs><style>.a,.c{fill:#a8996f;}.a{opacity:0.59;}.b{fill:#fff;}</style></defs><g transform="translate(0.001 -0.5)"><path class="a" d="M358.574,110.98l3.344,4.251,1.82-1.566-3.086-4.009Zm0,0" transform="translate(-345.662 -105.226)"/><path class="a" d="M15.53,110.978l-3.671,4.473-1.82-1.566,3.413-4.228Zm0,0" transform="translate(-9.679 -105.226)"/><path class="b" d="M74.643,150.6,71.3,146.346H68.592l-2.113.61-2.24-.613-3.671,4.473,1.814,2.445-.192.192a.916.916,0,0,0,1.136,1.423l0,.043a.916.916,0,0,0,1.291,1.3v0a.916.916,0,0,0,1.3,1.3l.176-.176v.016a.916.916,0,0,0,1.3,1.3l.427-.427a1.406,1.406,0,0,0,.174-.239.946.946,0,0,1-.174.239l0,0,.349.281a.916.916,0,0,0,1.3-1.3h0a.916.916,0,1,0,1.3-1.3h0a.916.916,0,0,0,1.3-1.3h0a.916.916,0,0,0,1.3-1.3Zm0,0" transform="translate(-58.387 -140.592)"/><path class="c" d="M18.362,103.775l-3.086-4.009a.362.362,0,0,0-.481-.084L12.8,100.949H10.2a.359.359,0,0,0-.1.017l-2.015.58L6,100.974,3.968,99.682a.361.361,0,0,0-.475.078L.079,103.988a.361.361,0,0,0,.046.5l1.789,1.54,1.605,2.163a1.277,1.277,0,0,0,.8,2.144,1.286,1.286,0,0,0-.015.2,1.278,1.278,0,0,0,1.278,1.278H5.6c0,.009,0,.017,0,.026a1.278,1.278,0,0,0,1.278,1.278,1.3,1.3,0,0,0,.2-.016,1.278,1.278,0,0,0,2.174.778l.2-.2.082.066a1.277,1.277,0,0,0,2.165-.938,1.275,1.275,0,0,0,1.3-1.3,1.277,1.277,0,0,0,1.3-1.3,1.277,1.277,0,0,0,1.091-1.973l1.172-2.454,1.762-1.516a.361.361,0,0,0,.051-.495Zm-14.509-3.31,1.461.929-3.178,3.871-1.273-1.1Zm.206,8.208.441-.441c.013-.013.027-.026.042-.038a.553.553,0,0,1,.3-.122h.009l.047,0a.551.551,0,0,1,.4.174.568.568,0,0,1-.024.786l-.427.427a.555.555,0,0,1-.784-.784Zm1.134,2.25a.554.554,0,0,1,0-.784l.855-.855a.56.56,0,0,1,.63-.109.553.553,0,0,1,.306.573.585.585,0,0,1-.165.334l-.841.841a.555.555,0,0,1-.784,0Zm1.291,1.3a.554.554,0,0,1,0-.784l.855-.855a.561.561,0,0,1,.67-.088.552.552,0,0,1,.265.56.586.586,0,0,1-.164.325l-.841.841a.555.555,0,0,1-.784,0Zm1.47,1.137a.555.555,0,0,1,0-.784l.441-.441c.013-.013.027-.026.042-.038h0a.553.553,0,0,1,.246-.114h.006l.047-.006h.058a.551.551,0,0,1,.4.174.5.5,0,0,1,.036.042.572.572,0,0,1-.062.747l-.425.425a.555.555,0,0,1-.784,0Zm6.744-4.035a.555.555,0,0,1-.784,0l-.025-.022-2.325-2.349a.362.362,0,0,0-.514.509l2.35,2.374h0a.555.555,0,1,1-.784.784l-1.572-1.588a.362.362,0,1,0-.514.509l1.548,1.564a.345.345,0,0,0,.025.028.555.555,0,1,1-.785.784l-.858-.867a.362.362,0,0,0-.514.509l.834.843a.322.322,0,0,0,.025.028.555.555,0,0,1-.784.784.8.8,0,0,0-.082-.065c-.024-.018-.03-.031-.018-.059s.03-.055.042-.085.024-.066.034-.1a1.3,1.3,0,0,0,.047-.556,1.265,1.265,0,0,0-1.078-1.088,1.29,1.29,0,0,0-.31-1.163,1.268,1.268,0,0,0-.911-.4H7.71a1.265,1.265,0,0,0-1.253-1.3,1.3,1.3,0,0,0-.308.033,1.273,1.273,0,0,0-2.113-.757l-1.4-1.883,3.343-4.073,1.066.291-1.392,2.456a1.278,1.278,0,0,0,.482,1.741l.056.03,0,0a1.277,1.277,0,0,0,1.681-.514l.9-1.6,1.615.115,4.3,4.3a.555.555,0,0,1,0,.784Zm.15-1.657-4.034-4.034-.024-.022a.362.362,0,0,0-.206-.083l-1.977-.14a.368.368,0,0,0-.34.182L7.25,105.369a.555.555,0,1,1-.965-.547l1.357-2.4.55-.158.011,0,2.053-.593h2.48l3.1,3.936Zm1.459-2.63L13.443,101.4l1.461-.929,2.676,3.475Zm0,0" transform="translate(0 -95.556)"/><path class="c" d="M300.506,32.064a.36.36,0,0,0,.256-.106l2.47-2.47a.362.362,0,0,0-.511-.511l-2.47,2.47a.362.362,0,0,0,.256.617Zm0,0" transform="translate(-289.337 -27.349)"/><path class="c" d="M125.771,31.958a.362.362,0,0,0,.511-.511l-2.47-2.47a.362.362,0,0,0-.511.511Zm0,0" transform="translate(-118.76 -27.35)"/><path class="c" d="M246.322,43.466a.362.362,0,0,0,.361-.362V41.06a.361.361,0,1,0-.723,0V43.1A.362.362,0,0,0,246.322,43.466Zm0,0" transform="translate(-237.104 -38.751)"/><path class="c" d="M246.013,1a.361.361,0,1,0,.133-.439.364.364,0,0,0-.133.439Zm0,0" transform="translate(-237.128)"/></g></svg>