<svg xmlns="http://www.w3.org/2000/svg" xmlns:xlink="http://www.w3.org/1999/xlink" width="14" height="14" viewBox="0 0 14 14"><defs><style>.a{fill:'#616161';}.b{clip-path:url(#a);}.c{'#616161';}</style><clipPath id="a"><rect class="a" width="14" height="14"/></clipPath></defs><g class="b"><path class="c" d="M7,14A4.38,4.38,0,0,1,2.625,9.625V3.5a.583.583,0,0,1,1.167,0V9.625a3.208,3.208,0,0,0,6.417,0V3.208a2.042,2.042,0,0,0-4.083,0V9.042a.875.875,0,0,0,1.75,0V3.5a.583.583,0,0,1,1.167,0V9.042a2.042,2.042,0,0,1-4.083,0V3.208a3.208,3.208,0,0,1,6.417,0V9.625A4.38,4.38,0,0,1,7,14Z"/></g></svg>