<svg xmlns="http://www.w3.org/2000/svg" width="80.377" height="48.921" viewBox="0 0 80.377 48.921"><defs><style>.a{fill:#ffb8b8;}.b{fill:#575a89;}.c{fill:#3f3d56;}.d{fill:#2f2e41;}.e{fill:#ff6584;}.f{fill:#d0cde1;}.g{fill:#a0616a;}.h{opacity:0.2;}.i{fill:#a8996f;}</style></defs><g transform="translate(0 0.001)"><path class="a" d="M786.22,433.757s-3.233-.655-2.824.737,3.111.491,3.111.491Z" transform="translate(-730.198 -410.304)"/><path class="b" d="M826.579,330.858a.3.3,0,0,1,.5.173l.111.642a11.916,11.916,0,0,1,.072,4.2c-.428,1.631-.731,3.779-1.887,4.008a39.442,39.442,0,0,1-5.815-.208.3.3,0,0,1-.276-.309l.02-.937a.3.3,0,0,1,.271-.3l4.306-.459a.3.3,0,0,0,.268-.259c.1-.733.434-3,.763-4.2A5.706,5.706,0,0,1,826.579,330.858Z" transform="translate(-763.582 -314.755)"/><rect class="c" width="29.717" height="0.142" transform="translate(50.66 47.281)"/><path class="a" d="M850.822,614.608v1.965l1.1.245.737-.368-.082-1.555Z" transform="translate(-790.623 -571.123)"/><path class="a" d="M943.086,614.608v1.965l1.105.245.737-.368-.082-1.555Z" transform="translate(-876.359 -571.123)"/><path class="d" d="M882.882,493.3a14.353,14.353,0,0,0-1.433,5.321,31.977,31.977,0,0,1-.2,4.216l-.737,7,2.374.123,1.1-7.531,2.128-5.812.819,6.917.2,6.958h2.046s.941-6.59.409-8.063c0,0,1.228-8.268.246-8.677S882.882,493.3,882.882,493.3Z" transform="translate(-820.473 -465.774)"/><path class="d" d="M836.142,726.55s-.409-1.514-.982-.737a16.968,16.968,0,0,1-2.21,2.087s-2.456,1.31-.2,1.637,2.5-.409,2.5-.409a.945.945,0,0,1,.7-.082c.327.123,1.76.082,1.842-.409s-.45-3.192-.614-2.7S836.142,726.55,836.142,726.55Z" transform="translate(-775.206 -681.632)"/><path class="d" d="M973.957,732.084s0-.45-.778-.491-.9.491-.9.491a1.328,1.328,0,0,0-.245.819c-.041.614,0,2.21,0,2.21s-.368,1.228,1.31.982,1.064-1.514,1.064-1.514Z" transform="translate(-905.49 -687.207)"/><path class="a" d="M949.918,277.532l-.2,2.292-.368.859.982,1.392,2.415-2.251a3.437,3.437,0,0,1-.164-1.924Z" transform="translate(-884.439 -265.275)"/><path class="b" d="M919.384,305.65l-.019.2-.718,7.656s-.028.356-.081.831a8.591,8.591,0,0,1-.451,2.28,1.016,1.016,0,0,0-.082.982c-1.883,1.105-7.449-.491-7.449-.491l1.269-5.075a55.243,55.243,0,0,1-1.023-5.771c.123-.491,2.7-2.251,2.7-2.251l.076.2c1.1,1.473,2.216.2,2.543-.082l.655-.573Z" transform="translate(-848.421 -289.464)"/><path class="c" d="M323.141,397.341a48.885,48.885,0,0,1-11.069.4,26.7,26.7,0,0,1-3.631-.624,25.061,25.061,0,0,0-7.832-.242,22.48,22.48,0,0,0-5.272,1.118,12.96,12.96,0,0,1-7.455.06,13.6,13.6,0,0,1-3.13-1.246c-1.944-1.044-4.244-.666-6.751.536V388a8.676,8.676,0,0,1,6.828-.325,14.422,14.422,0,0,0,2.486.742,19.6,19.6,0,0,0,9.237-.417c4.059-1.375,8.305-.948,12.6,0a31.674,31.674,0,0,0,13.984,0Z" transform="translate(-260.595 -367.112)"/><rect class="c" width="29.717" height="0.142" transform="translate(0 47.281)"/><rect class="e" width="2.58" height="2.58" transform="translate(39.013 2.234) rotate(150)"/><rect class="c" width="2.58" height="2.58" transform="translate(30.735 13.484) rotate(150)"/><rect class="f" width="2.58" height="2.58" transform="translate(53.447 10.512) rotate(150)"/><path class="d" d="M142.7,380.02l1.351,6.255-4.1,9.208,2.4,1.051,4.6-10.559-2.943-9.273-1.752.45Z" transform="translate(-130.047 -350.05)"/><path class="d" d="M193.875,474a5.465,5.465,0,0,0,1.6,1.651c1.1.751,3.4,5.7,3.4,5.7l-2.5,10.009,3.453.951,1.9-11.76-3.9-8.808Z" transform="translate(-182.422 -445.751)"/><path class="d" d="M171.629,741.488s-.5.55-.3.951a6.09,6.09,0,0,1,.3,1.451h.45v-1.2l1.451,1.351s3.353.3,3.3,0-2-1-2-1l-.951-1.451Z" transform="translate(-161.427 -696.404)"/><path class="d" d="M233.87,743.349s-.5.55-.3.951a6.088,6.088,0,0,1,.3,1.451h.45v-1.2l1.451,1.351s3.353.3,3.3,0-2-1-2-1l-.951-1.451Z" transform="translate(-219.264 -698.134)"/><circle class="g" cx="1.902" cy="1.902" r="1.902" transform="translate(11.503 10.735)"/><path class="g" d="M172.586,284.319s-.15,1.9-1.1,2.6-.951,1.3-.951,1.3l3.853,1.751-.9-1.9s-.25-.1.15-.6a6.614,6.614,0,0,0,.751-1.7Z" transform="translate(-160.732 -271.582)"/><path class="b" d="M161.973,336.64h0a10.778,10.778,0,0,1-3.553,2.063l-.908.315s-1.921-2.331-.951-4.167a2.877,2.877,0,0,1,.833-.988l-.02-.088-.487-2.124-.044-.19-1.451-.35-.013,0c-.109.029-.845.164-.287-1.555.371-1.144.64-2.232.791-2.9a.706.706,0,0,1,.873-.526,2.611,2.611,0,0,1,1.388.822c.651.851.782-.038.782-.038s1.82,2.039,1.72,2.94a3.581,3.581,0,0,0,.022.725h0c.012.107.027.219.043.333.124.843.364,1.822.452,2.166l.017.064.016.064Z" transform="translate(-146.191 -310.416)"/><path class="h" d="M164.736,391.236l-.4,1.351s-1.535-.391-2.435-.614a2.877,2.877,0,0,1,.833-.988l-.02-.088-.487-2.124-.044-.19-1.451-.35-.013,0-.087-.654s2.5.15,2.652.751a1.47,1.47,0,0,1-.3,1.3c-.15.1,0,0,.3.15s-.1,0-.3.3.05.05.1.2,0-.05-.05.2.2.05.25.05S164.736,391.236,164.736,391.236Z" transform="translate(-151.531 -367.539)"/><path class="g" d="M210.293,429.047l3.253.851s1.752-1.8,2.7-1.251-1.7,1.8-1.7,1.8l-.951.2-3.453-.4Z" transform="translate(-197.539 -405.601)"/><path class="b" d="M160.633,384.754l.2,1.5s-.15,0,0,.35a2.331,2.331,0,0,1,0,1.051s-.3.05-.05.2.5.55.4.7-.3.35.15.45,3,.751,3,.751l.4-1.351s-1.4-.7-1.451-.7-.3.2-.25-.05.1-.05.05-.2-.3.1-.1-.2.6-.15.3-.3-.45-.05-.3-.15a1.47,1.47,0,0,0,.3-1.3C163.135,384.9,160.633,384.754,160.633,384.754Z" transform="translate(-151.532 -364.911)"/><path class="b" d="M177.569,307.687l.151-.24a.5.5,0,0,0-.157-.69l-1.149-.723a.5.5,0,0,0-.69.157l-.151.24a.5.5,0,0,0-.426.234l-.371.59a.5.5,0,0,0,.157.69l1.548.974a.5.5,0,0,0,.69-.157l.371-.59A.5.5,0,0,0,177.569,307.687Z" transform="translate(-164.602 -291.69)"/><path class="d" d="M170.042,245.737c.106-.155.06-.371.136-.544.12-.27.472-.326.767-.344a2.262,2.262,0,0,1,.588.016.564.564,0,0,1,.4.305c.041.088.037-.186.018-.538a1.7,1.7,0,0,0-1.266-1.552l-.012,0a3.223,3.223,0,0,0-1.092-.127,1.424,1.424,0,0,0-.97.466c-.107.129-.185.283-.3.4a1.922,1.922,0,0,1-.8.371,2.373,2.373,0,0,0-.874.476,1.286,1.286,0,0,0-.438.873.856.856,0,0,0,.621.885.449.449,0,0,1,.19.087c.374.305-.068.6-.073.937,0,.278.3.467.578.486a1.119,1.119,0,0,0,1.136-.858,2.332,2.332,0,0,0,0-.693c-.025-.264.558-.871.172-.425a.653.653,0,0,0-.151.3c-.071.362.257.492.46.7a.864.864,0,0,1,.188.895,1,1,0,0,0,.212-1.254c-.065-.1-.149-.2-.21-.3-.1-.167-.114-.524.164-.508C169.681,245.8,169.883,245.968,170.042,245.737Z" transform="translate(-156.703 -233.133)"/><circle class="a" cx="2.087" cy="2.087" r="2.087" transform="translate(64.783 9.187)"/><path class="h" d="M945.085,336.834l-.718,7.656s-.028.356-.081.831a55.346,55.346,0,0,1-5.731.643l-.2-1.473,4.666-1.269s-.573-3.192.082-4.5a10.114,10.114,0,0,0,.43-.979A1.421,1.421,0,0,1,945.085,336.834Z" transform="translate(-874.222 -320.364)"/><path class="a" d="M907.157,440.371s-3.233-.655-2.824.737,3.111.491,3.111.491Z" transform="translate(-842.578 -416.45)"/><path class="b" d="M944.991,330.172l1.269.2A11.916,11.916,0,0,1,947,334.51c-.164,1.678-.123,3.847-1.228,4.257a44.633,44.633,0,0,1-6.057.737l-.2-1.473,4.666-1.269s-.573-3.192.082-4.5A6.866,6.866,0,0,0,944.991,330.172Z" transform="translate(-875.297 -314.191)"/><path class="d" d="M944.5,214.967l-.4-.161a2.737,2.737,0,0,1,2.006-.843l-.328-.361a1.4,1.4,0,0,1,1.532.522,7.118,7.118,0,0,1,1.1,1.551h.43l-.179.395.628.395-.644-.071a2.2,2.2,0,0,1,.017.655.847.847,0,0,1-.31.554h0a8.9,8.9,0,0,1-.5-1.191v.4s-.4-.361-.4-.6l-.219.281h-1.459l.219-.361-.839.12.328-.442-1.3,1.824S943.44,215.569,944.5,214.967Z" transform="translate(-879.407 -205.812)"/><circle class="i" cx="7.641" cy="7.641" r="7.641" transform="translate(32.335 18.059)"/><path class="f" d="M555.217,486.723c0,.469-1.722,1.645-3.715,1.645s-3.5-1.176-3.5-1.645,1.509.159,3.5.159S555.217,486.254,555.217,486.723Z" transform="translate(-511.491 -459.504)"/><circle class="c" cx="0.849" cy="0.849" r="0.849" transform="translate(41.887 22.658)"/><circle class="c" cx="0.849" cy="0.849" r="0.849" transform="translate(36.368 22.658)"/><circle class="f" cx="0.425" cy="0.425" r="0.425" transform="translate(37.288 22.658)"/><circle class="f" cx="0.425" cy="0.425" r="0.425" transform="translate(41.604 22.658)"/><circle class="i" cx="3.042" cy="3.042" r="3.042" transform="translate(37.075 12.47)"/><path class="c" d="M548.707,324.931c1.074.64,1.113,2.556,1.113,2.556s-1.7.88-2.778.24-1.113-2.556-1.113-2.556S547.632,324.292,548.707,324.931Z" transform="translate(-509.566 -309.104)"/><path class="c" d="M602.02,324.2c-.971.788-2.784.163-2.784.163s-.238-1.9.733-2.69,2.784-.163,2.784-.163S602.991,323.407,602.02,324.2Z" transform="translate(-559.078 -305.918)"/></g></svg>