<svg xmlns="http://www.w3.org/2000/svg" width="72.717" height="38.926" viewBox="0 0 72.717 38.926"><defs><style>.a{fill:#fff;}.b{fill:#ff6584;}.c{fill:#a8996f;}.d{opacity:0.2;}.e{fill:#3f3d56;}.f{fill:#2f2e41;}.g{fill:#e6e6e6;}</style></defs><g transform="translate(0 0.081)"><rect class="a" width="0.211" height="1.138" transform="matrix(0.894, 0.448, -0.448, 0.894, 20.455, 0.497)"/><path class="b" d="M237.864,231.094a5.4,5.4,0,0,0-7.643,0h0a5.4,5.4,0,1,0-7.641,7.641h0l7.643,7.643,7.643-7.643A5.4,5.4,0,0,0,237.864,231.094Z" transform="translate(-215.673 -228.181)"/><path class="c" d="M258.17,245.82h-40.1a.819.819,0,0,1-.15-.012l18.965-32.85a1.328,1.328,0,0,1,2.311,0L251.925,235l.61,1.055Z" transform="translate(-212.85 -212.365)"/><path class="d" d="M399.932,288.175H386.241l6.721-9.762.484-.7.242-.352.61,1.055Z" transform="translate(-354.612 -254.72)"/><path class="e" d="M593.229,353.915H558.547l6.721-9.762.484-.7,8.758-12.722a1.772,1.772,0,0,1,2.63-.157,1.592,1.592,0,0,1,.126.157Z" transform="translate(-525.583 -320.497)"/><rect class="e" width="72.717" height="0.183" transform="translate(0 33.331)"/><ellipse class="f" cx="2.648" cy="0.831" rx="2.648" ry="0.831" transform="translate(31.136 30.726) rotate(-21.176)"/><circle class="f" cx="5.297" cy="5.297" r="5.297" transform="translate(23.304 25.972)"/><rect class="f" width="1.609" height="2.883" transform="translate(26.187 35.426)"/><rect class="f" width="1.609" height="2.883" transform="translate(29.406 35.426)"/><ellipse class="f" cx="1.341" cy="0.503" rx="1.341" ry="0.503" transform="translate(26.187 37.839)"/><ellipse class="f" cx="1.341" cy="0.503" rx="1.341" ry="0.503" transform="translate(29.406 37.772)"/><circle class="a" cx="1.81" cy="1.81" r="1.81" transform="translate(26.925 28.117)"/><circle class="e" cx="0.603" cy="0.603" r="0.603" transform="translate(28.132 29.324)"/><path class="g" d="M441.646,485.318a3.941,3.941,0,0,1,7.656-1.71c.428,1.915-.973,2.622-3.088,3.094S442.074,487.234,441.646,485.318Z" transform="translate(-418.183 -458.975)"/><ellipse class="f" cx="2.648" cy="0.831" rx="2.648" ry="0.831" transform="translate(20.83 33.208) rotate(-45)"/><path class="a" d="M473.5,611.242c0,.518,1.335,1.542,2.816,1.542a3.324,3.324,0,0,0,2.87-1.978c0-.518-1.389.1-2.87.1S473.5,610.723,473.5,611.242Z" transform="translate(-447.498 -578.062)"/><ellipse class="f" cx="0.831" cy="2.648" rx="0.831" ry="2.648" transform="translate(35.549 30.363) rotate(-68.824)"/><circle class="f" cx="5.297" cy="5.297" r="5.297" transform="translate(38.328 25.972)"/><rect class="f" width="1.609" height="2.883" transform="translate(46.038 38.309) rotate(180)"/><rect class="f" width="1.609" height="2.883" transform="translate(42.82 38.309) rotate(180)"/><ellipse class="f" cx="1.341" cy="0.503" rx="1.341" ry="0.503" transform="translate(43.356 37.839)"/><ellipse class="f" cx="1.341" cy="0.503" rx="1.341" ry="0.503" transform="translate(40.138 37.772)"/><circle class="a" cx="1.81" cy="1.81" r="1.81" transform="translate(41.68 28.117)"/><circle class="e" cx="0.603" cy="0.603" r="0.603" transform="translate(42.887 29.324)"/><path class="c" d="M664.775,485.318a3.942,3.942,0,0,0-7.656-1.71c-.428,1.915.974,2.622,3.088,3.094S664.347,487.234,664.775,485.318Z" transform="translate(-616.012 -458.975)"/><ellipse class="f" cx="0.831" cy="2.648" rx="0.831" ry="2.648" transform="translate(46.475 30.638) rotate(-45)"/><path class="a" d="M656.752,611.242c0,.518-1.335,1.542-2.816,1.542a3.324,3.324,0,0,1-2.87-1.978c0-.518,1.389.1,2.87.1S656.752,610.723,656.752,611.242Z" transform="translate(-610.526 -578.062)"/><path class="g" d="M942.082,440.026c0,3.423-2.035,4.618-4.545,4.618s-4.545-1.2-4.545-4.618,4.545-7.778,4.545-7.778S942.082,436.6,942.082,440.026Z" transform="translate(-869.365 -414.316)"/><path class="e" d="M809.993,231.756l.047-2.865,1.937-3.544-1.93,3.095.021-1.288,1.335-2.564-1.33,2.223h0l.038-2.317,1.43-2.041-1.424,1.677.023-4.248-.148,5.624.012-.232-1.454-2.225,1.43,2.67-.135,2.587,0-.069-1.676-2.341,1.671,2.584-.017.324,0,0v.027l-.344,6.564h.459l.055-3.391,1.667-2.578Z" transform="translate(-741.987 -201.952)"/></g></svg>