<svg xmlns="http://www.w3.org/2000/svg" xmlns:xlink="http://www.w3.org/1999/xlink" width="75.069" height="56.726" viewBox="0 0 75.069 56.726"><defs><style>.a,.h{fill:#a8996f;}.a{opacity:0.3;}.ad,.b{fill:#6c63ff;}.b,.g,.p{opacity:0.1;}.c{fill:url(#a);}.d{fill:#d38884;}.e{fill:#444053;}.f{fill:#b07473;}.i{fill:#67647e;}.j{fill:#616161;}.k{fill:#585268;}.l{fill:#e1e7ef;}.m{fill:url(#b);}.n{fill:#a27772;}.o{fill:#cc818c;}.q{fill:#f6f8fb;}.r{fill:url(#c);}.s{fill:#65617d;}.t{fill:#fbbebe;}.ab,.u{opacity:0.05;}.v{fill:#7c5c5c;}.w{fill:url(#d);}.x{fill:#fdc2cc;}.y{fill:#d39999;}.z{fill:#7e5659;}.aa{fill:#865a61;}.ac{fill:url(#e);}.ae,.ah{fill:#fff;}.af{fill:#3f2b3b;}.ag{fill:none;stroke:#3f2b3b;stroke-miterlimit:10;}.ah{opacity:0.5;}.ai{fill:#a8a8a8;}.aj{opacity:0.2;}</style><linearGradient id="a" x1="0.5" y1="1" x2="0.5" gradientUnits="objectBoundingBox"><stop offset="0" stop-color="gray" stop-opacity="0.251"/><stop offset="0.54" stop-color="gray" stop-opacity="0.122"/><stop offset="1" stop-color="gray" stop-opacity="0.102"/></linearGradient><linearGradient id="b" x1="0.5" x2="0.5" y2="0" xlink:href="#a"/><linearGradient id="c" x1="0.5" x2="0.5" y2="0" xlink:href="#a"/><linearGradient id="d" x1="1.096" x2="1.096" y2="0" xlink:href="#a"/><linearGradient id="e" x1="0.5" x2="0.5" y2="0" xlink:href="#a"/></defs><path class="a" d="M43.44,426.65c1.188,4.629,3.7,8.63,7.676,10.569,8.262,4.031,26.885,1.952,40.786-.434a32.649,32.649,0,0,0,18.1-9.436Z" transform="translate(-42.629 -399.827)"/><path class="a" d="M143.516,25.179h-7.627a.6.6,0,1,1,0-1.2h1.32a.6.6,0,1,1,0-1.2h-.942a.6.6,0,1,1,0-1.2h3.981a11.278,11.278,0,0,0-3.105-.78c-10.855-1.271-14.731-.431-16.1.434a15.975,15.975,0,0,1-5.579,2.23c-6.7,1.26-19.222,2.775-30.575-.486-5.642-1.62-9.835,1.122-12.349,5.7h72.3a9.949,9.949,0,0,0-.9-3.634A.691.691,0,0,1,143.516,25.179Z" transform="translate(-69.809 -20.144)"/><path class="a" d="M31.311,280.23a27.973,27.973,0,0,0,.3,8.076l66.965,2.233a28.581,28.581,0,0,0,4.652-6.466Zm26.484,5.761h-1.32a.6.6,0,1,1,0,1.2H48.851a.6.6,0,1,1,0-1.2h1.32a.6.6,0,1,1,0-1.2h-.943a.6.6,0,1,1,0-1.2h7.627a.6.6,0,1,1,0,1.2h.94a.6.6,0,1,1,0,1.2Z" transform="translate(-31.147 -263.069)"/><path class="a" d="M108.641,149.94l-73.11,1.621a24.556,24.556,0,0,0-1.752,6.883h73.58a26.329,26.329,0,0,0,1.062-4.387A19.005,19.005,0,0,0,108.641,149.94Zm-60.017,5.312H47.3a.6.6,0,1,1,0,1.2H39.678a.6.6,0,1,1,0-1.2H41a.6.6,0,1,1,0-1.2h-.943a.6.6,0,1,1,0-1.2h7.627a.6.6,0,1,1,0,1.2h.942a.6.6,0,1,1,0,1.2Z" transform="translate(-33.606 -141.376)"/><ellipse class="b" cx="4.964" cy="1.114" rx="4.964" ry="1.114" transform="translate(38.872 48.369)"/><ellipse class="b" cx="8.955" cy="0.735" rx="8.955" ry="0.735" transform="translate(46.415 52.288)"/><ellipse class="b" cx="8.955" cy="1.114" rx="8.955" ry="1.114" transform="translate(10.459 50.794)"/><ellipse class="b" cx="6.738" cy="1.114" rx="6.738" ry="1.114" transform="translate(26.33 45.215)"/><ellipse class="b" cx="5.394" cy="1.114" rx="5.394" ry="1.114" transform="translate(29.555 54.497)"/><path class="c" d="M424.557,151.268a23.251,23.251,0,0,0-1.014-3.2h0q-.023-.1-.051-.2c-.618-2.125-1.474-2.309-1.474-2.309l-3.066-.66a.238.238,0,0,1,.066.061l-.048.007a1.2,1.2,0,0,1-.269-.581c-.006-.032-.011-.066-.015-.1a2.156,2.156,0,0,0-.176-3.242c-.032-.025-.066-.049-.1-.073a.489.489,0,0,0,.041-.581,2.026,2.026,0,0,0-1.306-.974,2.215,2.215,0,0,0-1.268-.027,4.582,4.582,0,0,0-.664.308,3.732,3.732,0,0,0-1.162.7.341.341,0,0,0-.116.28.758.758,0,0,0,.115.2.615.615,0,0,1,.006.511,4.944,4.944,0,0,0-.189.491.513.513,0,0,0,.1.493,2.179,2.179,0,0,0,.191.132,1,1,0,0,1,.183.205q.182.244.363.49a5.044,5.044,0,0,1,.455.691,3.368,3.368,0,0,0,.281.528.783.783,0,0,0,.121.127l-.036-.014a.55.55,0,0,0,.4.164h.018a.111.111,0,0,0,.074-.03v.066c.007.236.006.486-.011.722l-.028-.015a.248.248,0,0,0-.264.028L412.9,147.74a3.717,3.717,0,0,0-.528,2.288l-.495,2.173a5.773,5.773,0,0,0-.143,3.16c.476,1.316.752,2.069.752,2.069s.19,1.5.476,1.618.409.188.409.188l.057.358h0l.053.094c.208.362.978,1.638,1.425,1.5a5.733,5.733,0,0,1,.073,1.048l.443,2.973a4.374,4.374,0,0,1,.29,1.232,2.348,2.348,0,0,0,.36,1.027,1.963,1.963,0,0,0-.19,1.382c.181.792.409,4.439.409,4.439l.33.884-.009,1.037a.99.99,0,0,1-.2.462c-.214.232-.2.5-.713.818s-.842.437-.842.858a1.1,1.1,0,0,1-.016.175c-.048.309-.14.476.808.566a2.5,2.5,0,0,0,1.855-.62s.164-.3.934-.417c0,0,.264-.014.278-.247.005-.081,0-.234,0-.4a2.487,2.487,0,0,0-.084-.718,1.567,1.567,0,0,1-.172-.465h.214a9.384,9.384,0,0,0,0-2.465,4,4,0,0,1-.019-1.656l-.038-2.558a.731.731,0,0,1-.057-.781,13.93,13.93,0,0,0,0-2.963s.077-.884.295-1.091.011-1.3,0-1.352l.389,1.306a11.545,11.545,0,0,0,.533,3.066l.1,1.176s.742,1.082.6,1.665a13.493,13.493,0,0,0,.152,2.69v2.154s-.333.865.132,1.176l.2-.008c-.066.061-.117.154-.194.234a1.784,1.784,0,0,0-.168.741c-.024.254-.032.472-.032.472a.778.778,0,0,0,.571.339,6.641,6.641,0,0,1,1.6.956,14.536,14.536,0,0,0,1.528-.066l.018,0a.413.413,0,0,0,.237-.193.494.494,0,0,0,.057-.356.888.888,0,0,0-.512-.562c-.811-.428-.932-.828-.932-.828l-.533-.8h.076a3.418,3.418,0,0,1,.532-1.8l-.038-4.185a4.481,4.481,0,0,0-.171-2.22s-.034-.827.24-1.081-.364-2.821-.364-2.821-.132-1.378-.287-2.636h0c.642.609,1.308-1.584,1.42-1.974h.016l-.007-.028.007-.028h0s-.142-.507-.038-.4.362-.282.362-.282a10.284,10.284,0,0,1,.409-3.155C425.2,153.842,424.557,151.268,424.557,151.268Zm-1.914,1.335,0-.006c.066,1.281-.013,4.014-.013,4.014s-.088.35-.183.763l-.066-2.6h0l-.066-2.446Zm-8.189-.883s.323,4.044,0,4.627a3.054,3.054,0,0,0-.233.8,2.94,2.94,0,0,1-.252-1.288,5.814,5.814,0,0,0-.209-1.665,2.813,2.813,0,0,1,.2-1.143c.226-.483.078-.692.078-.692S414.226,151.567,414.454,151.72Z" transform="translate(-386.453 -131.451)"/><path class="d" d="M443.259,436.91c-.282,1.238-1.4-.634-1.657-1.083l-.052-.093.121-.569.642-.264a1.8,1.8,0,0,1,.288.187A1.735,1.735,0,0,1,443.259,436.91Z" transform="translate(-414.47 -407.533)"/><path class="d" d="M573.043,430.157a.087.087,0,0,1-.007.028.144.144,0,0,1-.009.03c-.11.387-.763,2.563-1.394,1.959-.69-.66-.355-2.185-.355-2.185h0l1.452-.148.288.3h0Z" transform="translate(-535.562 -402.807)"/><path class="e" d="M460.759,443.242l.037,4.157a3.409,3.409,0,0,0-.523,1.782l-1.877.074c-.458-.308-.132-1.167-.132-1.167v-2.14a13.533,13.533,0,0,1-.15-2.67c.14-.579-.588-1.65-.588-1.65l-.1-1.167a11.6,11.6,0,0,1-.523-3.043l-.381-1.3c.011.056.208,1.142,0,1.342s-.29,1.083-.29,1.083a13.862,13.862,0,0,1,0,2.941.728.728,0,0,0,.055.775l.038,2.54a3.972,3.972,0,0,0,.018,1.643,9.341,9.341,0,0,1,0,2.447h-2.013l.009-1.037-.326-.878s-.224-3.622-.4-4.407a1.969,1.969,0,0,1,.186-1.372,2.335,2.335,0,0,1-.354-1.018,4.354,4.354,0,0,0-.288-1.222l-.434-2.95a5.732,5.732,0,0,0-.215-1.681c-.252-.841-.625-1.943-.625-1.943l.422.038,2.127.189s5.172-.348,5.4-.059a.97.97,0,0,1,.1.3c.232,1.043.539,4.311.539,4.311s.626,2.549.357,2.8-.236,1.073-.236,1.073A4.49,4.49,0,0,1,460.759,443.242Z" transform="translate(-424.119 -405.179)"/><path class="f" d="M465.973,678.438c-.015.232-.272.246-.272.246-.756.119-.917.413-.917.413a2.429,2.429,0,0,1-1.82.616c-.93-.09-.84-.255-.792-.562a1.156,1.156,0,0,0,.015-.173c0-.42.322-.54.826-.858s.49-.581.7-.812a1.288,1.288,0,0,0,.232-.679c.237-.414.84.066.84.066.028.146.924.126.924.126a1.971,1.971,0,0,0,.18.5,2.476,2.476,0,0,1,.082.713C465.977,678.206,465.979,678.358,465.973,678.438Z" transform="translate(-433.705 -633.155)"/><path class="g" d="M465.973,700.779c-.015.232-.272.245-.272.245-.756.119-.917.413-.917.413a2.429,2.429,0,0,1-1.82.616c-.93-.09-.84-.255-.792-.562a2.7,2.7,0,0,0,1.674-.005c.645-.35,1.107-.594,1.107-.594l1.019-.513C465.977,700.547,465.979,700.7,465.973,700.779Z" transform="translate(-433.705 -655.496)"/><path class="f" d="M551.658,683.467a.4.4,0,0,1-.232.192l-.018,0a13.984,13.984,0,0,1-1.5.066,6.483,6.483,0,0,0-1.568-.952.766.766,0,0,1-.56-.336s.007-.216.03-.469a1.789,1.789,0,0,1,.166-.736c.161-.168.2-.4.56-.252,0,0,.517-.912,1.127-.207l.631.957s.119.4.918.825a.885.885,0,0,1,.5.558A.492.492,0,0,1,551.658,683.467Z" transform="translate(-513.691 -636.937)"/><path class="g" d="M551.658,704.165c-.071.06-.15.125-.232.192l-.018,0a13.984,13.984,0,0,1-1.5.066,6.483,6.483,0,0,0-1.568-.952.766.766,0,0,1-.56-.337s.007-.216.03-.469a2.6,2.6,0,0,1,1.083.518,4.592,4.592,0,0,0,.932.77s1.308-.126,1.889-.143A.491.491,0,0,1,551.658,704.165Z" transform="translate(-513.691 -657.635)"/><path class="d" d="M480.051,200.53l-1.722,1.82s-2.087-.154-1.723-.77a3.464,3.464,0,0,0,.2-1.543c-.015-.551-.072-1.02-.072-1.02s2.927-1.457,2.705-.1a2.236,2.236,0,0,0-.008.775A1.016,1.016,0,0,0,480.051,200.53Z" transform="translate(-447.173 -186.582)"/><path class="g" d="M481.823,198.919a2.235,2.235,0,0,0-.008.775,2.149,2.149,0,0,1-1.532.639,2.625,2.625,0,0,1-1.144-.513c-.015-.552-.018-.8-.018-.8S482.047,197.561,481.823,198.919Z" transform="translate(-449.561 -186.582)"/><path class="d" d="M468.352,163.648a2.157,2.157,0,1,1-.812-1.685A2.157,2.157,0,0,1,468.352,163.648Z" transform="translate(-435.474 -152.165)"/><path class="g" d="M464.554,433.364c-.537,1.278-3.992,1.3-3.992,1.3v-1.394l-.209-.014a4.8,4.8,0,0,1-.127,1.372c-2.73.385-3.4-1.171-3.4-1.171l.095-.532,2.127.189s5.172-.348,5.4-.059A.974.974,0,0,1,464.554,433.364Z" transform="translate(-428.742 -405.693)"/><path class="h" d="M460.562,242.7v-1.394l-.209-.013a4.815,4.815,0,0,1-.127,1.372c-2.055.29-2.94-.519-3.252-.938a1.274,1.274,0,0,1-.144-.232l.834-4.691.2-6.9.3-1.211.069-.581V228.1h.007l.213.091,1.271.55,1.444-1.091.021-.015.072-.055.119.1.3.238.952,6.149a62.771,62.771,0,0,1,1.958,6.645c.013.077.023.148.03.214C464.82,242.667,460.562,242.7,460.562,242.7Z" transform="translate(-428.742 -213.893)"/><circle class="i" cx="0.123" cy="0.123" r="0.123" transform="translate(31.011 14.861)"/><circle class="i" cx="0.123" cy="0.123" r="0.123" transform="translate(31.068 15.982)"/><circle class="i" cx="0.123" cy="0.123" r="0.123" transform="translate(31.191 17.795)"/><circle class="i" cx="0.123" cy="0.123" r="0.123" transform="translate(31.393 19.749)"/><circle class="i" cx="0.123" cy="0.123" r="0.123" transform="translate(31.516 21.584)"/><circle class="i" cx="0.123" cy="0.123" r="0.123" transform="translate(31.639 23.537)"/><circle class="i" cx="0.123" cy="0.123" r="0.123" transform="translate(31.59 25.47)"/><path class="g" d="M458.3,244.572a11.051,11.051,0,0,1-.389,2.319,8.509,8.509,0,0,0-.364,1.989l-.585-.066a1.274,1.274,0,0,1-.144-.232l.834-4.691.2-6.9.3-1.212.069-.581.008,0a.236.236,0,0,1,.208,0l.028.014q-.013.036-.024.073a11.214,11.214,0,0,0-.313,2.032s.33,2.409.364,3.529S458.3,244.572,458.3,244.572Z" transform="translate(-428.733 -220.979)"/><path class="g" d="M442.6,435.089a.338.338,0,0,1-.022.044,2.1,2.1,0,0,1-.977.693l-.052-.093.121-.569.642-.264A1.8,1.8,0,0,1,442.6,435.089Z" transform="translate(-414.47 -407.533)"/><path class="j" d="M415.023,298.81l-.533.317-.485,2.157a5.794,5.794,0,0,0-.141,3.137c.466,1.307.738,2.055.738,2.055s.187,1.485.467,1.606.4.187.4.187l.056.355a2.218,2.218,0,0,0,1.029-.713c.269-.455-.2-1.584-.2-1.584a3.45,3.45,0,0,1-.3-1.41,5.794,5.794,0,0,0-.206-1.65,2.8,2.8,0,0,1,.2-1.135c.226-.481.075-.686.075-.686l-.141-1.372Z" transform="translate(-388.447 -280.423)"/><path class="g" d="M525.487,241.823s-1.41.532-1.858.066-.4-2.652-.4-2.652a43.58,43.58,0,0,0-.7-4.7,38.473,38.473,0,0,1-.132-5.444,2.9,2.9,0,0,0-.341-.78.175.175,0,0,0-.034-.027l.055.012.191.041.3.238.952,6.149a62.789,62.789,0,0,1,1.958,6.645Z" transform="translate(-489.631 -214.556)"/><path class="g" d="M574.176,430.195h-.016c-.177.023-1.744.212-1.751-.114a.942.942,0,0,1,.006-.113l1.452-.148.288.3h0c.005.019.009.036.013.049Z" transform="translate(-536.695 -402.788)"/><path class="j" d="M572.672,266.07l1.029.537a22.885,22.885,0,0,1,1,3.173s.635,2.551.2,3.6a10.367,10.367,0,0,0-.4,3.132s-.252.383-.355.28.038.4.038.4-1.76.234-1.767-.112a18.049,18.049,0,0,1,.4-2,44.712,44.712,0,0,0-.047-4.547C572.607,269.92,572.672,266.07,572.672,266.07Z" transform="translate(-536.694 -249.843)"/><path class="g" d="M517.955,329.52a7.69,7.69,0,0,1-.766,1.512c-.187.094.038.466.038.466S518.282,330.024,517.955,329.52Z" transform="translate(-485.049 -309.106)"/><path class="g" d="M511.818,254.089c.007-.027-.691.684-.878.792S511.622,254.875,511.818,254.089Z" transform="translate(-479.257 -238.652)"/><path class="g" d="M481.923,327.82s-1.064.688-.924.961S481.923,327.82,481.923,327.82Z" transform="translate(-451.304 -307.519)"/><path class="g" d="M524.47,480.07a5.7,5.7,0,0,0,2.315.726Z" transform="translate(-491.919 -449.723)"/><path class="g" d="M491.5,501.3s.84,1.056,1.223,1.083S491.5,501.3,491.5,501.3Z" transform="translate(-461.124 -469.552)"/><path class="g" d="M494.984,564c-.038.018-.476.952-.924.981S494.984,564,494.984,564Z" transform="translate(-463.432 -528.115)"/><path class="g" d="M568.33,594.609s.833-.187,1.018.41C569.348,595.017,569.292,594.83,568.33,594.609Z" transform="translate(-532.885 -556.678)"/><path class="g" d="M559.84,645.729s1.009-.206,1.223.075S559.84,645.729,559.84,645.729Z" transform="translate(-524.955 -604.383)"/><path class="g" d="M502.566,654c0,.009-1.027.206-.99.336s1.1.112,1.133-.094a.2.2,0,0,0-.143-.243Z" transform="translate(-470.535 -612.176)"/><path class="g" d="M554.75,666.58s1.687-.206,1.584.149S554.75,666.58,554.75,666.58Z" transform="translate(-520.201 -623.87)"/><path class="g" d="M420.89,352.44c.009.028,1.111.178,1.26.533a9.477,9.477,0,0,0-1.254-.5" transform="translate(-395.173 -330.514)"/><path class="g" d="M432.3,396.16s-.915.29-.85.726S431.36,396.684,432.3,396.16Z" transform="translate(-405.036 -371.349)"/><path class="g" d="M437.92,424.408s.333-.457.651-.373S437.92,424.408,437.92,424.408Z" transform="translate(-411.08 -397.375)"/><path class="g" d="M467.586,161.957a.518.518,0,0,1-.107.08,1.232,1.232,0,0,0-.462.664,1.412,1.412,0,0,1-.481.657c-.3.183-.7.116-1.021.276a.792.792,0,0,0-.422.781,2.261,2.261,0,0,0,.09.358,2.547,2.547,0,0,1,.1.777.121.121,0,0,1,0,.023,2.156,2.156,0,1,1,2.309-3.614Z" transform="translate(-435.519 -152.159)"/><path class="k" d="M452.285,143.595a1.99,1.99,0,0,0-1.282-.967,2.153,2.153,0,0,0-1.245-.026,4.568,4.568,0,0,0-.651.305,3.683,3.683,0,0,0-1.14.693.348.348,0,0,0-.114.278.78.78,0,0,0,.113.2.612.612,0,0,1,.006.507,4.645,4.645,0,0,0-.186.488.513.513,0,0,0,.1.489,1.831,1.831,0,0,0,.189.132.993.993,0,0,1,.179.2l.356.487a4.933,4.933,0,0,1,.446.686,3.267,3.267,0,0,0,.276.523.6.6,0,0,0,.5.267.1.1,0,0,0,.079-.038.1.1,0,0,0,.01-.049,2.533,2.533,0,0,0-.094-.774,2.233,2.233,0,0,1-.09-.358.8.8,0,0,1,.422-.781c.317-.16.717-.092,1.021-.275a1.4,1.4,0,0,0,.481-.66,1.242,1.242,0,0,1,.462-.664A.464.464,0,0,0,452.285,143.595Z" transform="translate(-420.275 -134.446)"/><path class="g" d="M501.63,693.06s.33.42.244.66S501.63,693.06,501.63,693.06Z" transform="translate(-470.586 -648.659)"/><path class="g" d="M569.28,700.844s.073-.564.367-.569a.982.982,0,0,1,.532.056c.224.086.435.22.368.24s-.386-.322-.713-.147A2.355,2.355,0,0,0,569.28,700.844Z" transform="translate(-533.772 -655.39)"/><path class="g" d="M474.53,236.851l.924-.647s-1.351-.8-1.512-.686-.272,1.122-.272,1.122Z" transform="translate(-444.471 -221.296)"/><path class="l" d="M474.47,236.043l.924-.66s-1.351-.8-1.512-.686-.272,1.177-.272,1.177Z" transform="translate(-444.415 -220.53)"/><path class="h" d="M474.47,236.043l.924-.66s-1.351-.8-1.512-.686-.272,1.177-.272,1.177Z" transform="translate(-444.415 -220.53)"/><path class="j" d="M429.3,234.364l-.028-.014a.24.24,0,0,0-.259.027l-2.771,2.248a3.722,3.722,0,0,0-.519,2.271l1.634,2.315s.187-.784.41-.635c0,0,.317,4.015,0,4.594a11.553,11.553,0,0,0-.457,2.745l1.074.121a8.508,8.508,0,0,1,.364-1.989,11.051,11.051,0,0,0,.389-2.319s.227-2.61.189-3.731-.364-3.529-.364-3.529A10.7,10.7,0,0,1,429.3,234.364Z" transform="translate(-399.684 -220.191)"/><path class="g" d="M505.591,229.712l-1.151-.426s1.466-1.606,1.65-.715Z" transform="translate(-473.211 -214.567)"/><path class="l" d="M505.591,228.862l-1.151-.426s1.466-1.606,1.65-.715Z" transform="translate(-473.211 -213.773)"/><path class="h" d="M505.591,228.862l-1.151-.426s1.466-1.606,1.65-.715Z" transform="translate(-473.211 -213.773)"/><path class="g" d="M521.32,228.108a.066.066,0,0,1,.047.011Z" transform="translate(-488.977 -214.385)"/><path class="j" d="M523,226.413l3.055.66s.841.187,1.448,2.3-.831,4.7-.831,4.7l-.317-.27.159,6.162s-1.41.532-1.858.066-.4-2.654-.4-2.654a43.63,43.63,0,0,0-.7-4.7,38.464,38.464,0,0,1-.132-5.443S523.172,226.377,523,226.413Z" transform="translate(-490.546 -212.802)"/><path class="g" d="M564.793,285.548a17.487,17.487,0,0,0,.094,3.324,18.091,18.091,0,0,0,.528,2.558l-.277-5.686S564.924,285.427,564.793,285.548Z" transform="translate(-529.544 -268.01)"/><path class="g" d="M559.7,261.6a1.657,1.657,0,0,1,.252,1.139C559.8,263.056,559.7,261.6,559.7,261.6Z" transform="translate(-524.824 -245.668)"/><path class="g" d="M475.641,148.833a1.687,1.687,0,0,0-.672-.7,1.6,1.6,0,0,1,.5.594.469.469,0,0,1-.164.672,1.236,1.236,0,0,0-.462.664,1.434,1.434,0,0,1-.482.66c-.3.183-.7.115-1.021.275a.8.8,0,0,0-.422.781,2.247,2.247,0,0,0,.09.357,2.551,2.551,0,0,1,.1.777.1.1,0,0,1-.011.049.1.1,0,0,1-.079.038.455.455,0,0,1-.23-.043.536.536,0,0,0,.4.155.078.078,0,0,0,.088-.087,2.535,2.535,0,0,0-.1-.777,2.167,2.167,0,0,1-.09-.358.8.8,0,0,1,.422-.781c.317-.16.717-.092,1.021-.275a1.4,1.4,0,0,0,.481-.66,1.242,1.242,0,0,1,.462-.664A.47.47,0,0,0,475.641,148.833Z" transform="translate(-443.649 -139.685)"/><path class="m" d="M618.8,178.592a2.705,2.705,0,0,1-2.166-1.444,1.453,1.453,0,0,1-.219-.618.71.71,0,0,1,.025-.148,1.536,1.536,0,0,0,.066-.226.4.4,0,0,0,0-.092v-.005a.546.546,0,0,0-.2-.444c-.121-.114-.274-.2-.4-.311a1.875,1.875,0,0,1-.517-1.417v-.028c0-.224.022-.449.02-.674a2.833,2.833,0,0,0-.017-.381,1.26,1.26,0,0,0-.408-.843c-.651-.528-1.745.022-2.418-.477-.164-.122-.3-.3-.495-.35a.833.833,0,0,0-.452.061,1.844,1.844,0,0,0-1.244.858c-.111.275-.08.589-.181.868a4.339,4.339,0,0,1-.284.524.821.821,0,0,0-.106.437.494.494,0,0,0,.032.233.593.593,0,0,0,.162.232.766.766,0,0,1-.1.154c-.127.155-.321.264-.453.418a.989.989,0,0,0-.115,1c.12.333.337.635.487.959a.515.515,0,0,1,.049.437,1.252,1.252,0,0,1-.219.255.8.8,0,0,0-.2.442,1.687,1.687,0,0,0-1.487,1.533h0l-.8,2.018s-.129.34-.28.788l-.95-.17.66,1.1a3.485,3.485,0,0,0-.184,1.077s-.295,1.386.23,1.628l1.157.521a.681.681,0,0,0,.16.072l.047.021a.124.124,0,0,0,.108,0h.016a.156.156,0,0,0,.066-.01.132.132,0,0,0,.058-.063.017.017,0,0,1,0-.007l.346-.1.294.348c.132.093.264.174.389.246l-.455,4.515s-.073,6-.295,7.373a3.829,3.829,0,0,0-.051,1.087l-.009.014c.055.386.2.462.2.462v-.005l.008.005a3.9,3.9,0,0,1,.238-.509v.1c0,.509-.02,1.223-.073,1.687a26.323,26.323,0,0,0,.23,3.4l.11,2.375a2.195,2.195,0,0,1-.271,1.157,5.466,5.466,0,0,0-.626,1.438.334.334,0,0,0,0,.048h0l-.566.681s-.221.342.278.48a2.674,2.674,0,0,0,1.1-.088.737.737,0,0,0,.572-.718,2.541,2.541,0,0,1,.467-.9l.093.547.623.154.08-1.5a.661.661,0,0,0,.043-.264h0c.123-1.066-.289-.971-.289-.971a.057.057,0,0,1,.02.037l-.02-.036h0a2.7,2.7,0,0,1-.132-1.32s.33-2.375.443-3a21.8,21.8,0,0,0,.021-2.705.967.967,0,0,0,0-.1c.966-.013,2.15-.045,2.98-.125v.1l-.153,5.612a3.08,3.08,0,0,1-.215,1.044.059.059,0,0,1-.007.019,4.549,4.549,0,0,0-.3,1.471l-.071,1.782v.049h0c-.124.048-.32.185-.325.585-.009.586,1.024.391,1.024.391a1.049,1.049,0,0,0,1.04-1.074s.032-.985.082-1.644-.156-.514-.156-.514l-.016,1.875V208.4l.016-.238v-.007h0v-.051l.13-1.934s.951-3.223,1.1-3.841a14.494,14.494,0,0,0,.027-2.495.572.572,0,0,0-.005-.1c.3-.026.556-.029.66-.029h.048s-.049-5.176-.172-7.126-.319-3.735-.811-4.272a8.84,8.84,0,0,1-.99-2.069,10.354,10.354,0,0,0,1.819.594c1.557.326,1.344-1.025,1.344-1.025l-.158-2.556h.01a13.014,13.014,0,0,0-.172-2,5.879,5.879,0,0,0-.4-1.452c.169-.066.336-.137.5-.209.423-.187.9-.451.96-.907h-.021A.575.575,0,0,0,618.8,178.592Zm-9.649,3.7h0c0,.264-.007.722-.022,1.228l-.494-.66.5-.8ZM615.776,183.627Zm.206,1-.823-.264a3.692,3.692,0,0,1,.509-.629l.071-.066-.026.005.04-.036.024-.005-.038.036.045-.009a1.405,1.405,0,0,0,.28.564c.3.323-.081.4-.081.4Z" transform="translate(-568.013 -161.157)"/><path class="n" d="M639.26,715.66l-.1,1.826-.614-.154-.129-.76Z" transform="translate(-596.294 -668.438)"/><path class="g" d="M639.26,715.66l-.1,1.826-.614-.154-.129-.76Z" transform="translate(-596.294 -668.438)"/><path class="o" d="M716.48,602.2l.937.194.695-.614v-1.729l.016-.236v-.007h0v-.05l.129-1.922s.938-3.2,1.084-3.814a14.508,14.508,0,0,0,.026-2.476c-.014-.3-.026-.5-.026-.5l-2.069-.5-.043,1.59-.151,5.572a3.087,3.087,0,0,1-.212,1.036l-.007.019a4.536,4.536,0,0,0-.3,1.459l-.07,1.772v.049Z" transform="translate(-671.259 -552.913)"/><path class="g" d="M741.45,730.131v.049h0v-.05Z" transform="translate(-694.582 -683.283)"/><path class="g" d="M716.48,759.127l.937.194.695-.614v-.147a.2.2,0,0,1-.1.158l-.01.006a1.866,1.866,0,0,1-1.052.208l-.365-.031a.345.345,0,0,0-.1.024v.049Z" transform="translate(-671.259 -709.837)"/><path class="f" d="M713.537,732.736l.01-.005a.2.2,0,0,0,.1-.172l.015-1.861s.2-.144.153.51-.081,1.632-.081,1.632a1.039,1.039,0,0,1-1.026,1.066s-1.018.194-1.01-.388.42-.606.42-.606l.365.032A1.863,1.863,0,0,0,713.537,732.736Z" transform="translate(-666.794 -683.801)"/><path class="o" d="M642.52,610.437c.024.42,1.26.177,1.26.177l.832-1.615s.695-.534.347-1a.732.732,0,0,1-.051-.08l0,0h0c-.007-.012-.014-.024-.02-.038h0a2.659,2.659,0,0,1-.127-1.306s.323-2.359.436-2.982a21.87,21.87,0,0,0,.02-2.687c-.01-.335-.02-.56-.02-.56l-2.053-.55v.612c0,.506-.02,1.214-.073,1.675a26.38,26.38,0,0,0,.226,3.377l.109,2.36a2.187,2.187,0,0,1-.264,1.149,5.52,5.52,0,0,0-.617,1.429A.278.278,0,0,0,642.52,610.437Z" transform="translate(-602.18 -561.543)"/><path class="g" d="M642.512,725.48c.024.42,1.26.177,1.26.177l.832-1.615s.695-.534.347-1a.748.748,0,0,1-.051-.08,4.011,4.011,0,0,1-.28.858s-.687,1.374-.905,1.689-1.167-.059-1.2-.072A.29.29,0,0,0,642.512,725.48Z" transform="translate(-602.172 -676.586)"/><path class="f" d="M636.2,722.269s.406-.094.285.964h0a.682.682,0,0,1-.321.605,2.31,2.31,0,0,0-.967,1.341h0a.731.731,0,0,1-.564.713,2.648,2.648,0,0,1-1.089.087c-.493-.137-.275-.476-.275-.476l.566-.671s.986.388,1.2.073.905-1.689.905-1.689S636.319,722.358,636.2,722.269Z" transform="translate(-593.493 -675.939)"/><path class="g" d="M727.863,593.52l-.044,1.59a2.059,2.059,0,0,0,1.013-.233c.146-.226.675-.321,1.125-.36-.014-.3-.026-.5-.026-.5Z" transform="translate(-681.851 -555.687)"/><path class="g" d="M651.94,603.332a.756.756,0,0,1,.226-.273c.218-.121.194.776.194.776s.726.007,1.653-.005c-.011-.335-.02-.561-.02-.561l-2.053-.549S651.944,602.975,651.94,603.332Z" transform="translate(-610.978 -564.28)"/><path class="e" d="M645.363,403.151s.243-.66.462-.777.194.775.194.775,5.333.049,5.6-.364,1.818-.388,1.818-.388-.048-5.139-.17-7.077-.315-3.709-.8-4.242a9.641,9.641,0,0,1-1.035-2.206c-.15-.406-.249-.7-.249-.7l-5.09.29-.042.412-.54,5.405s-.073,5.963-.291,7.32S645.363,403.151,645.363,403.151Z" transform="translate(-604.635 -363.886)"/><g class="p" transform="translate(40.52 24.284)"><path d="M667.737,402.786c.264-.412,1.818-.388,1.818-.388s-.048-5.139-.17-7.077-.315-3.709-.8-4.242a9.617,9.617,0,0,1-1.035-2.206c-.126-.342-.216-.605-.241-.68l.4-.022s.1.3.25.7a9.646,9.646,0,0,0,1.035,2.206c.485.533.679,2.3.8,4.242s.17,7.077.17,7.077-1.551-.024-1.819.388c-.228.352-4.152.368-5.291.365C664.312,403.147,667.531,403.1,667.737,402.786Z" transform="translate(-661.688 -388.17)"/><path d="M645.5,603.28c.1-.055.147.1.172.281a3.8,3.8,0,0,0-.229.5s-.141-.076-.2-.462A.9.9,0,0,1,645.5,603.28Z" transform="translate(-645.24 -589.075)"/></g><path class="k" d="M657.861,189.419c-.353.48,0,1.163-.374,1.63-.125.154-.317.264-.447.416a.988.988,0,0,0-.114.993c.118.33.33.631.48.953a.51.51,0,0,1,.049.434,1.23,1.23,0,0,1-.216.253.912.912,0,0,0-.119.967,3.13,3.13,0,0,0,.626.864.533.533,0,0,0,.381.22.527.527,0,0,0,.239-.079,2.441,2.441,0,0,0,1.111-3.186,4.216,4.216,0,0,1-.549-1.478c0-.411.211-.8.249-1.213a1.55,1.55,0,0,0-.849-1.5C658.369,189.009,658.04,189.172,657.861,189.419Z" transform="translate(-615.56 -177.569)"/><path class="g" d="M657.861,189.419c-.353.48,0,1.163-.374,1.63-.125.154-.317.264-.447.416a.988.988,0,0,0-.114.993c.118.33.33.631.48.953a.51.51,0,0,1,.049.434,1.23,1.23,0,0,1-.216.253.912.912,0,0,0-.119.967,3.13,3.13,0,0,0,.626.864.533.533,0,0,0,.381.22.527.527,0,0,0,.239-.079,2.441,2.441,0,0,0,1.111-3.186,4.216,4.216,0,0,1-.549-1.478c0-.411.211-.8.249-1.213a1.55,1.55,0,0,0-.849-1.5C658.369,189.009,658.04,189.172,657.861,189.419Z" transform="translate(-615.56 -177.569)"/><path class="g" d="M676.717,464.55a4.687,4.687,0,0,0-1.987.684,13.611,13.611,0,0,1-1.88.975" transform="translate(-630.508 -435.227)"/><path class="g" d="M677.941,489.74a2.907,2.907,0,0,0-1.831.891c-.172.181-.319.385-.5.559a2.213,2.213,0,0,1-.982.556" transform="translate(-632.171 -458.754)"/><path class="g" d="M670.483,508.91a3.2,3.2,0,0,0-1.473.888c-.108.117-.207.242-.315.358a5.813,5.813,0,0,1-2.205,1.274" transform="translate(-624.568 -476.66)"/><path class="o" d="M686.46,242.577a14.485,14.485,0,0,0,.145,1.684,2.205,2.205,0,0,0,.291.91c.388.462-1.89,1.079-1.89,1.079l-1.345-1.043s1.066-.982.569-1.939S686.46,242.577,686.46,242.577Z" transform="translate(-640.605 -227.869)"/><path class="g" d="M658.79,388.873h5.381c-.15-.406-.249-.7-.249-.7l-5.09.29Z" transform="translate(-617.376 -363.886)"/><path class="h" d="M638.67,280.5h5.753a2,2,0,0,1,.23-1.526,3.37,3.37,0,0,1,.6-.781l.039-.036,2.009-.445.108-.024s.016-3.652-1.277-4.154a7.56,7.56,0,0,1-2.069-1.179l-1.777.549-1.309-.66c-.42.452-1.535.275-1.535.275-1.826.21-1.826,1.584-1.826,1.584s1.066,2.488,1.147,2.488S638.67,280.5,638.67,280.5Z" transform="translate(-597.603 -255.606)"/><path class="g" d="M661.382,352.045a3.82,3.82,0,0,1-1.572-.715" transform="translate(-618.329 -329.477)"/><path class="g" d="M754.03,341.51l-1.36,1.115a2.323,2.323,0,0,0,.045.264l.04-.036,2.009-.445Z" transform="translate(-705.062 -320.305)"/><path class="g" d="M717.46,369.054s.3.168.754.388H719a2,2,0,0,1,.23-1.526l-1.378-.446C718.316,367.906,717.46,369.054,717.46,369.054Z" transform="translate(-672.175 -344.552)"/><path class="h" d="M615.542,293.76l-.808.436-.792,2a11.9,11.9,0,0,0-.744,2.779s-.29,1.374.226,1.616l1.346.61a.125.125,0,0,0,.162-.173c-.192-.364-.4-.932-.066-1.245l-.388-.808,1.4-2.295.468-.792Z" transform="translate(-574.717 -275.706)"/><path class="g" d="M676.941,347.33a1.248,1.248,0,0,0,1.088.89l.858.7.912.414.372.168.158-1.14-.358-.2-.418-.228s-.942-1.707-2.434-.99A.33.33,0,0,0,676.941,347.33Z" transform="translate(-634.319 -325.221)"/><path class="o" d="M677.7,345.914a1.246,1.246,0,0,0,1.087.89l.858.7.913.414.371.168.158-1.14-.358-.2-.414-.226s-.943-1.707-2.435-.987A.33.33,0,0,0,677.7,345.914Z" transform="translate(-635.03 -323.902)"/><circle class="g" cx="2.084" cy="2.084" r="2.084" transform="translate(42.267 12.018)"/><circle class="o" cx="2.084" cy="2.084" r="2.084" transform="translate(42.267 11.97)"/><path class="g" d="M714.007,270.5l-.627-1.218s.917-.371.984-.8.879.5.7.813A11.54,11.54,0,0,1,714.007,270.5Z" transform="translate(-668.364 -251.988)"/><path class="h" d="M714.007,269.026l-.627-1.218s.917-.371.984-.8.879.5.7.813A11.609,11.609,0,0,1,714.007,269.026Z" transform="translate(-668.364 -250.615)"/><path class="q" d="M609.749,340.453l3.464,4.656a2.96,2.96,0,0,1-3.035-.549l-.759-.905L607.25,340Z" transform="translate(-569.237 -318.895)"/><path class="o" d="M633.651,368.249l.315-.009s1.927-1.87,2.4-.924-1.2,1.83-1.2,1.83l-.509.275-.663.2-.424-.569Z" transform="translate(-593.82 -344.159)"/><path class="g" d="M627.941,383.433a.47.47,0,0,1,.008.326.132.132,0,0,1-.057.063.146.146,0,0,1-.066.009.663.663,0,0,1-.435-.215,1.986,1.986,0,0,1-.282-.408.752.752,0,0,1-.144-.486.707.707,0,0,1,.358-.418c.319-.211.33.035.4.307S627.867,383.158,627.941,383.433Z" transform="translate(-587.644 -358.333)"/><path class="h" d="M627.207,383.433a.475.475,0,0,1,.008.326.132.132,0,0,1-.057.063.15.15,0,0,1-.066.009.659.659,0,0,1-.435-.215,1.96,1.96,0,0,1-.282-.408.748.748,0,0,1-.144-.486.707.707,0,0,1,.358-.418c.32-.211.33.035.4.307S627.133,383.158,627.207,383.433Z" transform="translate(-586.959 -358.333)"/><path class="g" d="M623.85,314.083l.161-.273-.141.506Z" transform="translate(-582.685 -293.104)"/><path class="g" d="M721.19,367.6l.371.168.158-1.14-.358-.2C721.608,366.714,721.392,367.238,721.19,367.6Z" transform="translate(-675.659 -343.581)"/><path class="g" d="M719.6,360.5a3.821,3.821,0,0,1-1.709-.254" transform="translate(-672.576 -337.809)"/><g class="p" transform="translate(41.766 16.729)"><path d="M733.964,282.009a3.375,3.375,0,0,1,.6-.782,1.607,1.607,0,0,1,.177-.1l1.87-.384.108-.024s.016-3.652-1.276-4.154a7.767,7.767,0,0,1-2.016-1.136l.142-.044a7.542,7.542,0,0,0,2.069,1.179c1.293.5,1.276,4.154,1.276,4.154h-.194l-1.913.366-.108.1a3.712,3.712,0,0,0-.612.809,2.029,2.029,0,0,0-.16,1.533h-.2A2.016,2.016,0,0,1,733.964,282.009Z" transform="translate(-728.857 -275.277)"/><path d="M664.13,277.823c.031,0,.061-.009.093-.013a3.345,3.345,0,0,0,.4.032A3.6,3.6,0,0,1,664.13,277.823Z" transform="translate(-664.13 -277.538)"/><path d="M688.944,274.342l-1.184-.6a.619.619,0,0,0,.066-.063l1.235.625Z" transform="translate(-686.201 -273.68)"/></g><path class="h" d="M721.873,340l.792.97.162,2.634s.21,1.341-1.325,1.017a14.15,14.15,0,0,1-3.311-1.322s.858-1.148.388-1.584l2.2.711s.372-.081.081-.4a1.817,1.817,0,0,1-.342-.905Z" transform="translate(-672.857 -318.895)"/><path class="g" d="M779.42,382.17l.436.5A.629.629,0,0,1,779.42,382.17Z" transform="translate(-730.046 -358.282)"/><path class="g" d="M736.99,360.8l.679.872-.339.081Z" transform="translate(-688.36 -336.993)"/><path class="g" d="M665.094,177.91a.7.7,0,0,1,.073-.568,4.481,4.481,0,0,0,.28-.521c.1-.276.069-.588.178-.858a1.829,1.829,0,0,1,1.227-.858.824.824,0,0,1,.446-.061c.2.047.327.226.488.347.664.495,1.743-.05,2.385.474a1.248,1.248,0,0,1,.4.837,7.367,7.367,0,0,1,0,.951,1.959,1.959,0,0,0,.509,1.532c.125.111.273.194.4.309a.54.54,0,0,1,.2.441,1.558,1.558,0,0,1-.066.224,1.149,1.149,0,0,0,.191.858,2.674,2.674,0,0,0,2.136,1.434c-.06.453-.528.715-.947.9a3.72,3.72,0,0,1-1.672.439,1.34,1.34,0,0,1-1.289-.975c-.035-.2-.03-.436-.2-.539-.1-.063-.236-.047-.347-.094a.612.612,0,0,1-.292-.412,3.708,3.708,0,0,1-.172-1.056,2.205,2.205,0,0,0-.192-1.238c-.223-.324-.619-.488-.876-.786a1.552,1.552,0,0,0-.885-.66C666.526,177.958,665.412,178.69,665.094,177.91Z" transform="translate(-623.232 -164.813)"/><path class="k" d="M665.094,176.44a.7.7,0,0,1,.073-.568,4.483,4.483,0,0,0,.28-.521c.1-.276.069-.588.178-.858a1.825,1.825,0,0,1,1.227-.858.824.824,0,0,1,.446-.061c.2.047.327.226.488.347.664.495,1.743-.05,2.385.474a1.249,1.249,0,0,1,.4.837,7.356,7.356,0,0,1,0,.951,1.959,1.959,0,0,0,.509,1.531c.125.111.273.194.4.309a.54.54,0,0,1,.2.441,1.558,1.558,0,0,1-.066.224,1.148,1.148,0,0,0,.191.858,2.678,2.678,0,0,0,2.135,1.434c-.06.453-.528.715-.947.9a3.728,3.728,0,0,1-1.671.439,1.34,1.34,0,0,1-1.289-.975c-.035-.2-.03-.436-.2-.539-.1-.063-.236-.047-.347-.094a.612.612,0,0,1-.292-.412,3.7,3.7,0,0,1-.172-1.056,2.205,2.205,0,0,0-.192-1.239c-.223-.324-.619-.488-.876-.786a1.552,1.552,0,0,0-.885-.66C666.526,176.488,665.412,177.221,665.094,176.44Z" transform="translate(-623.232 -163.44)"/><path class="g" d="M682.179,271.2l1.195-.97s-.818-.443-.916-.821-.752.179-.686.519S682.179,271.2,682.179,271.2Z" transform="translate(-638.838 -252.844)"/><path class="h" d="M682.946,269l1.195-.969s-.818-.443-.912-.822-.752.18-.686.519S682.946,269,682.946,269Z" transform="translate(-639.557 -250.789)"/><circle class="g" cx="0.095" cy="0.095" r="0.095" transform="translate(44.535 17.958)"/><circle class="g" cx="0.095" cy="0.095" r="0.095" transform="translate(44.535 18.486)"/><circle class="g" cx="0.095" cy="0.095" r="0.095" transform="translate(44.535 19.013)"/><g class="p" transform="translate(41.843 10.841)"><path d="M671.134,185.262c.094-.259.074-.55.162-.812a.888.888,0,0,0-.1.186c-.109.273-.078.585-.179.858l-.007.016A1.51,1.51,0,0,0,671.134,185.262Z" transform="translate(-670.632 -184.45)"/><path d="M673.328,212.351a3.726,3.726,0,0,1-1.671.439,1.34,1.34,0,0,1-1.289-.974c-.035-.2-.03-.437-.2-.54-.1-.063-.236-.047-.347-.094a.611.611,0,0,1-.292-.412,3.7,3.7,0,0,1-.172-1.056,2.207,2.207,0,0,0-.191-1.238c-.224-.324-.62-.488-.877-.786a1.554,1.554,0,0,0-.885-.66c-.534-.073-1.65.66-1.965-.12a.614.614,0,0,1,.021-.451c-.023.039-.046.078-.066.117a.7.7,0,0,0-.072.569c.317.779,1.431.047,1.965.12a1.566,1.566,0,0,1,.885.66c.257.3.653.462.876.787a2.2,2.2,0,0,1,.192,1.238,3.7,3.7,0,0,0,.172,1.056.613.613,0,0,0,.292.412c.111.047.244.032.347.094.17.1.166.344.2.54a1.342,1.342,0,0,0,1.289.974,3.732,3.732,0,0,0,1.671-.439c.383-.17.809-.406.924-.792A2,2,0,0,1,673.328,212.351Z" transform="translate(-665.288 -205.008)"/></g><path class="r" d="M784.859,247.251a15.533,15.533,0,0,0-1.927-1l-.029-.02a1.163,1.163,0,0,1-.352-.445c0-.032,0-.064,0-.1a.039.039,0,0,0,0,.009,2.106,2.106,0,0,1,.612-1.151l.734-.864a.848.848,0,0,0,.189-.3.693.693,0,0,0,.02-.184v-.075c0-.214-.01-.43-.018-.644-.006-.187-.055-.424-.242-.462-.1-.02-.227.015-.278-.066a.16.16,0,0,1-.013-.112.039.039,0,0,0,0,.009v-.011a2.5,2.5,0,0,0,.069-.441.6.6,0,0,0-.03-.224c-.108-.311-.482-.439-.813-.5a1.425,1.425,0,0,1-.909-.367,2.7,2.7,0,0,0-.181-.249.713.713,0,0,0-.338-.167,1.913,1.913,0,0,0-1.229.107,1.1,1.1,0,0,1-.5.157c-.176-.011-.338-.137-.517-.168a.738.738,0,0,0-.711.416,1.018,1.018,0,0,0-.132.491v.029h0a.718.718,0,0,0,.189.5c.125.132.312.219.364.39.021.069.016.145.035.215a.207.207,0,0,0,.008.026l-.009.013a2.178,2.178,0,0,0-.462,1.342,2.228,2.228,0,0,0,1.565,2.111v.066a.95.95,0,0,1-.3.739l-1.979.79s-1.193-.142-1.623,1.6a2.971,2.971,0,0,0-.074.884,2.564,2.564,0,0,1-.33,1.324c-.489.958-.377,3.157.623,3.375a3.26,3.26,0,0,0,1.353.11v.038c-.016.413-.166,3.972-.71,4.4-.151.119-.123.2,0,.254,0,0,0,.023,0,.066a4.436,4.436,0,0,1-.462,1.816c-.423.653-.379,4.421-.379,4.421l-.288,2.221a4.849,4.849,0,0,1,0,1.611c-.159.213-.37,5.288-.414,6.388h-.018a.536.536,0,0,0-.428.264,7.453,7.453,0,0,1-1.052,1.081,2.959,2.959,0,0,1-1.181.607.734.734,0,0,0-.132.058.7.7,0,0,0-.3.314.337.337,0,0,0-.031.264,4.246,4.246,0,0,0,2.4.152,15.962,15.962,0,0,1,2.425-.484.5.5,0,0,0,.432-.432.285.285,0,0,0-.055-.216h0a1.911,1.911,0,0,1-.2-.792.533.533,0,0,0,.136-.081,5.794,5.794,0,0,1,.33-2.33,13.377,13.377,0,0,0,.467-4.769s1.356-5.836,2.424-6.38h0a4.984,4.984,0,0,1,.6,2.744,8.312,8.312,0,0,0,.822,3.462,22.83,22.83,0,0,0,0,4.878l-.436,2.095c-.032-.027-.053-.048-.053-.048s.013.058.031.151l-.009.045.019,0a4.118,4.118,0,0,1,.092.99c-.017.152-.06.362-.089.567-.046.323-.059.635.111.7.278.112,1.913.264,2.191-.095a.514.514,0,0,0,.081-.538.542.542,0,0,0-.081-.137,2.028,2.028,0,0,1-.311-1.209.368.368,0,0,0-.052-.287,14.744,14.744,0,0,1,.374-2.346c.278-1.048.865-3.345.434-4.856h0q-.025-.089-.056-.174a6.521,6.521,0,0,1-.245-2.548,5.19,5.19,0,0,1,0-2.221c.267-1.219.454-2.417.454-2.417a15.283,15.283,0,0,0,.018-2.6.6.6,0,0,0-.009-.066l.07-.016s-.378-1.677-.511-2.744c-.032-.252-.073-.571-.117-.911a2.326,2.326,0,0,0,.362-.09c1.2-.414,1.578-4.157,1.578-4.157v-1.188A2.527,2.527,0,0,0,784.859,247.251Zm-8.945,28.917c-.037-.018-.059-.031-.059-.031h0Z" transform="translate(-723.315 -225.342)"/><path class="s" d="M829.983,529.08c.521,1.5-.087,3.927-.369,5.015a15.17,15.17,0,0,0-.369,2.387,5.029,5.029,0,0,1-1.91-.044l.456-2.235a23.216,23.216,0,0,1,0-4.861,8.433,8.433,0,0,1-.8-3.45,5.07,5.07,0,0,0-.585-2.734h0c-1.041.542-2.365,6.358-2.365,6.358a13.6,13.6,0,0,1-.456,4.751,5.875,5.875,0,0,0-.325,2.321.705.705,0,0,1-.594.114,4.053,4.053,0,0,1-1.363-.634s.238-6.334.412-6.575a4.907,4.907,0,0,0,0-1.606l.282-2.213s-.044-3.754.369-4.405a4.471,4.471,0,0,0,.454-1.81v-.066l.628-.752s6.076-.456,6.532,0a1.3,1.3,0,0,1,.222.686,15.551,15.551,0,0,1-.018,2.59s-.182,1.194-.443,2.408a5.286,5.286,0,0,0,0,2.214A6.629,6.629,0,0,0,829.983,529.08Z" transform="translate(-769.163 -485.56)"/><path class="n" d="M914.7,785.927c-.271.358-1.866.207-2.138.1-.166-.066-.153-.381-.108-.7.028-.2.07-.412.087-.564a5.2,5.2,0,0,0-.132-1.183s.358.38.444,0a.414.414,0,0,1,.31-.294.809.809,0,0,1,.563.035c.282.123.752.383.668.736a2.058,2.058,0,0,0,.3,1.205.551.551,0,0,1,.079.136A.521.521,0,0,1,914.7,785.927Z" transform="translate(-854.261 -732.892)"/><path class="g" d="M914.923,815.317c-.271.358-1.866.207-2.138.1-.166-.066-.153-.381-.108-.7a1.84,1.84,0,0,0,.948.1,2.674,2.674,0,0,1,.341-.011,7.908,7.908,0,0,0,1.036-.021A.52.52,0,0,1,914.923,815.317Z" transform="translate(-854.484 -762.282)"/><path class="g" d="M843.315,590.357a13.6,13.6,0,0,1-.456,4.751,5.875,5.875,0,0,0-.325,2.321.705.705,0,0,1-.594.114c.132-.915.689-4.858,1.046-7.974a13.048,13.048,0,0,1,2.309-5.989l.38.418C844.639,584.541,843.315,590.357,843.315,590.357Z" transform="translate(-788.441 -546.403)"/><path class="t" d="M874.661,303.794l-.264,1.3-1.3,2.181-1.6-.684s-2.177-2.278-.808-2.6a1.214,1.214,0,0,0,.454-.2A.939.939,0,0,0,871.5,303a2.408,2.408,0,0,0-.22-.933l2.8-.879a4.494,4.494,0,0,0-.2,1.134,1.508,1.508,0,0,0,.494,1.32A.841.841,0,0,0,874.661,303.794Z" transform="translate(-814.873 -282.646)"/><path class="g" d="M888.8,301.19a4.493,4.493,0,0,0-.2,1.134,2.111,2.111,0,0,1-.163.174,2.214,2.214,0,0,1-2.213.5,2.4,2.4,0,0,0-.222-.933Z" transform="translate(-829.594 -282.646)"/><path class="t" d="M870.578,264.433a2.2,2.2,0,1,1-.645-1.568A2.214,2.214,0,0,1,870.578,264.433Z" transform="translate(-811.054 -246.247)"/><path class="g" d="M874.661,338.492l-.264,1.3-1.3,2.181-1.6-.684s-2.177-2.278-.808-2.6a1.213,1.213,0,0,0,.454-.2c-.247.678.772,2.09.772,2.09.119.175.391.066.391.066.656-.1,1.865-1.987,2.062-2.3A.841.841,0,0,0,874.661,338.492Z" transform="translate(-814.873 -317.344)"/><path class="g" d="M851.715,519.31a14.381,14.381,0,0,1-3.326.441c-.889-.132-2.619-.216-2.619-.216a5.108,5.108,0,0,1-1.44-.1v-.066l.628-.752s6.076-.456,6.532,0A1.3,1.3,0,0,1,851.715,519.31Z" transform="translate(-790.673 -485.541)"/><path class="h" d="M826.351,340.93s-1.145-1.584-.713-2.2l-1.934.792s-1.164-.141-1.584,1.6a3.024,3.024,0,0,0-.072.882,2.608,2.608,0,0,1-.319,1.32c-.477.955-.369,3.147.608,3.365a2.969,2.969,0,0,0,1.323.108s-.132,3.971-.694,4.427,1.438.347,1.438.347,1.729.087,2.62.217a15.184,15.184,0,0,0,3.385-.456s-.369-1.671-.5-2.734-.435-3.328-.435-3.328l2.213-3a2.543,2.543,0,0,0-.977-2.615,15.441,15.441,0,0,0-1.881-1s-1.374,2.237-2.09,2.345C826.741,341,826.469,341.1,826.351,340.93Z" transform="translate(-769.307 -317.634)"/><path class="g" d="M851.959,382.74a3.262,3.262,0,0,0,.109,1c.13.282.608,1.848.608,1.848H851.59s.586-.629.543-.934S851.959,382.74,851.959,382.74Z" transform="translate(-797.454 -358.815)"/><path class="t" d="M856.908,421.581s-2.4-.586-2.619-1.085-.839-1.616-.839-1.616l.253-.341,1.165.914a7.54,7.54,0,0,0,2.04,1.215C857.563,420.779,856.908,421.581,856.908,421.581Z" transform="translate(-799.192 -392.253)"/><path class="u" d="M856.908,421.581s-2.4-.586-2.619-1.085-.839-1.616-.839-1.616l.253-.341,1.165.914a7.54,7.54,0,0,0,2.04,1.215C857.563,420.779,856.908,421.581,856.908,421.581Z" transform="translate(-799.192 -392.253)"/><path class="t" d="M875.979,421.676v1.3h-.208a6.076,6.076,0,0,0-2.952.765l-.391.216-.1.059-.673-1.518.629-.564h.032a3.763,3.763,0,0,0,1.1-.024,1.792,1.792,0,0,1,1.39-.178c.389.1.721.535,1.1.4Z" transform="translate(-816.191 -395.168)"/><path class="g" d="M902.115,365.121l.433.488v1.183s-.369,3.732-1.54,4.144a6.8,6.8,0,0,1-3.264-.239s-.54-1.432-.288-1.518,2.234-.61,2.234-.61a7.935,7.935,0,0,1,.406-2.841s-.282-2.039.695-2.083S902.115,365.121,902.115,365.121Z" transform="translate(-840.232 -340.981)"/><path class="h" d="M903.12,365.121l.434.488v1.183s-.369,3.732-1.541,4.144a6.8,6.8,0,0,1-3.264-.239s-.54-1.432-.287-1.518,2.234-.61,2.234-.61a7.917,7.917,0,0,1,.406-2.841s-.282-2.039.694-2.083S903.12,365.121,903.12,365.121Z" transform="translate(-841.172 -340.981)"/><path class="g" d="M876.378,265.261a.872.872,0,0,0-.049-.423.322.322,0,0,0-.344-.2c-.185.044-.264.285-.447.343a.357.357,0,0,1-.4-.2,1.012,1.012,0,0,1-.075-.472v-.544a.9.9,0,0,0-.128-.565,1,1,0,0,0-.744-.269.632.632,0,0,0-.425.171.547.547,0,0,1-.447.159.385.385,0,0,1-.311-.269v-.007a2.213,2.213,0,1,1,3.29,2.938,5.99,5.99,0,0,0,.078-.66Z" transform="translate(-817.461 -246.135)"/><path class="v" d="M865.2,244.187a.388.388,0,0,1-.312-.27c-.018-.07-.013-.145-.034-.214-.051-.171-.233-.259-.355-.389a.872.872,0,0,1-.055-1,.721.721,0,0,1,.694-.414c.176.03.33.155.505.167a1.02,1.02,0,0,0,.484-.156,1.822,1.822,0,0,1,1.2-.107.692.692,0,0,1,.33.167,2.888,2.888,0,0,1,.176.247,1.375,1.375,0,0,0,.887.366c.323.058.688.186.792.5a1.3,1.3,0,0,1-.038.643.194.194,0,0,0,.009.132c.051.083.177.048.272.066.183.039.23.274.237.462q.011.321.017.642a.818.818,0,0,1-.019.238.841.841,0,0,1-.184.3l-.717.861a1.853,1.853,0,0,0-.594,1.32.307.307,0,0,1-.379-.22.987.987,0,0,1,.024-.489,5.993,5.993,0,0,0,.115-.848.869.869,0,0,0-.05-.422.322.322,0,0,0-.344-.2c-.186.044-.264.285-.447.343a.357.357,0,0,1-.4-.2,1.011,1.011,0,0,1-.075-.472v-.544a.9.9,0,0,0-.128-.565,1,1,0,0,0-.744-.269.632.632,0,0,0-.424.171A.548.548,0,0,1,865.2,244.187Z" transform="translate(-809.339 -227.127)"/><path class="g" d="M885.3,381.92l.68,2.792S886.515,384.708,885.3,381.92Z" transform="translate(-828.94 -358.049)"/><path class="g" d="M911.675,374.85a4.47,4.47,0,0,0-.542,2.964l.166.012S911,377.128,911.675,374.85Z" transform="translate(-852.993 -351.445)"/><path class="g" d="M929,498.723s1.093-.362,1.172.477C930.174,499.2,929.969,498.625,929,498.723Z" transform="translate(-869.757 -467.072)"/><path class="g" d="M854.748,426.81a4.313,4.313,0,0,0,.173,2.127,4.759,4.759,0,0,1-1.909.261l-.132-2.387Z" transform="translate(-798.659 -399.977)"/><path class="g" d="M872.428,427.813l-.1.059-.673-1.518.629-.564h.032A4.746,4.746,0,0,0,872.428,427.813Z" transform="translate(-816.191 -399.024)"/><path class="h" d="M845.865,425.83a4.308,4.308,0,0,0,.173,2.126,4.745,4.745,0,0,1-1.91.261l-.759-2.387Z" transform="translate(-789.777 -399.061)"/><path class="n" d="M779.914,784.217a.492.492,0,0,1-.422.43,15.186,15.186,0,0,0-2.367.483,4.056,4.056,0,0,1-2.344-.152.344.344,0,0,1,.031-.264.7.7,0,0,1,.291-.313.755.755,0,0,1,.132-.058,2.85,2.85,0,0,0,1.153-.6,7.356,7.356,0,0,0,1.027-1.076.521.521,0,0,1,.417-.26c.19-.009.4.087.489.5,0,0,1.041.594,1.32.073a2.859,2.859,0,0,0,.216,1.019h0A.29.29,0,0,1,779.914,784.217Z" transform="translate(-725.701 -732.106)"/><path class="g" d="M779.914,806.809a.492.492,0,0,1-.422.43,15.185,15.185,0,0,0-2.367.483,4.058,4.058,0,0,1-2.344-.152.344.344,0,0,1,.031-.264.7.7,0,0,1,.291-.313,3.463,3.463,0,0,0,2.379.162,10.5,10.5,0,0,0,2.375-.565h0A.29.29,0,0,1,779.914,806.809Z" transform="translate(-725.701 -754.698)"/><g class="p" transform="translate(54.973 15.648)"><path d="M942.394,265.023v-.011a1.939,1.939,0,0,0,.066-.493,3.265,3.265,0,0,1-.066.4A.241.241,0,0,0,942.394,265.023Z" transform="translate(-937.234 -264.044)"/><path d="M868.178,260.311a.627.627,0,0,1,.053.248.748.748,0,0,0-.053-.346.321.321,0,0,0-.344-.2c-.186.044-.264.285-.448.343a.358.358,0,0,1-.4-.2,1,1,0,0,1-.075-.472v-.544a.9.9,0,0,0-.128-.565,1,1,0,0,0-.744-.27.632.632,0,0,0-.425.172.548.548,0,0,1-.447.159.387.387,0,0,1-.312-.269c-.018-.07-.013-.145-.034-.214-.051-.17-.233-.259-.355-.389a.71.71,0,0,1-.183-.462.739.739,0,0,0,.183.556c.122.132.3.218.355.389.021.066.016.144.034.214a.387.387,0,0,0,.312.269.548.548,0,0,0,.447-.159.632.632,0,0,1,.425-.172,1,1,0,0,1,.744.27.9.9,0,0,1,.128.565v.544a1,1,0,0,0,.075.472.359.359,0,0,0,.4.2c.182-.058.264-.3.448-.343A.333.333,0,0,1,868.178,260.311Z" transform="translate(-864.285 -257.3)"/><path d="M929.133,291.891a.831.831,0,0,1-.185.3l-.717.861a1.931,1.931,0,0,0-.594,1.244,2.135,2.135,0,0,1,.594-1.147l.717-.861a.832.832,0,0,0,.185-.3.823.823,0,0,0,.019-.238A.621.621,0,0,1,929.133,291.891Z" transform="translate(-923.457 -289.477)"/><path d="M921.663,326.466a.509.509,0,0,1-.022-.116.583.583,0,0,0,.022.214.306.306,0,0,0,.379.22c0-.031-.007-.063-.008-.1A.307.307,0,0,1,921.663,326.466Z" transform="translate(-917.855 -321.794)"/></g><path class="g" d="M812.69,789.36s.227.4,1.049.047" transform="translate(-761.121 -738.605)"/><path class="g" d="M918,790.82a1.254,1.254,0,0,0,1.6.274" transform="translate(-859.482 -739.968)"/><path class="g" d="M941.937,641.23s-.5.313-.517.492.259-.132.259-.132Z" transform="translate(-881.357 -600.249)"/><path class="g" d="M939.533,677.59a1.048,1.048,0,0,1-.617.241c-.375.017-.343.5-.1.358A6.147,6.147,0,0,0,939.533,677.59Z" transform="translate(-878.755 -634.209)"/><path class="g" d="M947.535,682.34s-.24,1.18-.435.953" transform="translate(-886.662 -638.646)"/><path class="w" d="M240.248,268.6s1.508.414,2.234-.137,1.041-.374,1.041-.374,1.731-.1,1.873-.5-.664-1.9-.664-1.9c-.057-.132-.141-.3-.179-.3l.008-.627h0l.251-2.623a6.13,6.13,0,0,0,.011-3.4l-.1-.476a1.2,1.2,0,0,1,.1-.792l1.051-2.111a3.163,3.163,0,0,1,.2-.405c.066-.121.154-.27.264-.449.032-.051.066-.1.1-.161.127-.2.282-.422.469-.681a5.573,5.573,0,0,0,.837-2.046l.056.186h.013l.015,0h.025l.027,0h.01l.323,4.115a4.906,4.906,0,0,0,.609,2.493l-.081,3.543a7.663,7.663,0,0,1-.243,2.445l-.255.575a.691.691,0,0,0-.375.523,6.455,6.455,0,0,1-.5,1.339c-.173.219-.548.811-.548.811s-.177.571-.067.785,1.025.192,1.025.192c1.046.232,1.848-.33,1.8-.717s.163-.485.163-.485c.416-.132.375-.414.375-.414a2.589,2.589,0,0,0-.315-1.685l-.066.152a2.321,2.321,0,0,1,.125-.9l-.038.026-.012.007h0a6.371,6.371,0,0,1,.674-1.65,8.172,8.172,0,0,0,.711-4.612l-.173-.827-.01-.312a10.417,10.417,0,0,1,.168-2.224c.06-.325.122-.717.17-1.149a10.153,10.153,0,0,1,.573-2.255l.044-.008h.005l.184-.033h.012s.036-.193.066-.521c.018-.209.032-.474.032-.779a8.768,8.768,0,0,0-.416-2.713l.034-.048s.08-.108.226-.3h0c.268-.34.685-.858,1.2-1.441a2.47,2.47,0,0,0,.65-2.111s-.666-2.442-.963-3.908a4.445,4.445,0,0,0-.731-1.739,3.463,3.463,0,0,0,.092-.7,2.574,2.574,0,0,0-.191-1.277,1.1,1.1,0,0,0-1.045-.646.4.4,0,0,1-.187,0,.285.285,0,0,1-.123-.108,1.62,1.62,0,0,1-.191-1.246c.079-.425.241-.831.314-1.258a1.557,1.557,0,0,0-.232-1.237c-.319-.4-.874-.507-1.289-.8-.291-.209-.509-.509-.816-.695a1.168,1.168,0,0,0-.927-.045,7.414,7.414,0,0,0-1.623.413,4.322,4.322,0,0,0-1.414,1.029,1.343,1.343,0,0,0-.315.5c-.132.436.126.9.072,1.352a2.675,2.675,0,0,1-.377.884,1.146,1.146,0,0,0-.146.924c.185.467.787.566,1.225.815a.374.374,0,0,1,.145.126c.108.189-.113.385-.252.552a.832.832,0,0,0-.165.335,1.2,1.2,0,0,0-.717.866,4.043,4.043,0,0,0,.281,2.057c-.22,1.235.066,1.721.276,1.908a1.059,1.059,0,0,1,.367.722v.023c.014.224.038.448.069.671h0c-.007-.052-.014-.108-.018-.132a7.786,7.786,0,0,0-.685,2.5,7.51,7.51,0,0,1-.167.872,4.767,4.767,0,0,0-.14,1.559l.033.444a.14.14,0,0,1-.09-.03l.232.424v.716a2.639,2.639,0,0,1-.176.944c-.016.044-.034.087-.053.132a.768.768,0,0,0-.078.389,38.879,38.879,0,0,0-1.64,5.042,2.359,2.359,0,0,0,.051,2.309s.325,3.906.385,4.107.2,2.583.2,2.583h0v.189a.445.445,0,0,0-.113-.032c-.543-.03-.69.827-.69.827l-1.111,1.061a1.806,1.806,0,0,0-1.254.474C239.019,268.085,240.248,268.6,240.248,268.6Zm11.1-22.572,0-.012-.03.018h0l-.013.007-.006,0h0l-.512-1.807a3,3,0,0,1-.038-1.487l.4-1.734h0V240.6l1.258,3.353C252.476,244.4,251.728,245.5,251.343,246.024Z" transform="translate(-225.775 -216.055)"/><path class="x" d="M369.7,557a10.394,10.394,0,0,0-.637,2.422c-.047.428-.108.814-.167,1.135a10.37,10.37,0,0,0-.162,2.2l.01.308.165.816a8.132,8.132,0,0,1-.7,4.553,5.92,5.92,0,0,0-.668,1.7l-.439.17-.887-.249a8.21,8.21,0,0,0,.289-2.612l.08-3.5a4.868,4.868,0,0,1-.6-2.459l-.339-4.346Z" transform="translate(-343.578 -521.576)"/><path class="x" d="M284.672,547.62a6.344,6.344,0,0,1-.947,2.862,8.127,8.127,0,0,0-1.016,1.675l-1.032,2.086a1.2,1.2,0,0,0-.1.781l.1.47a6.087,6.087,0,0,1-.01,3.359l-.269,2.831h-1.574s-.132-2.352-.189-2.552-.379-4.057-.379-4.057a2.341,2.341,0,0,1-.05-2.282s1.376-5.183,1.744-5.093S284.672,547.62,284.672,547.62Z" transform="translate(-262.601 -512.815)"/><g class="p" transform="translate(18.642 34.805)"><path d="M313.959,555.5l-.1-.47a1.187,1.187,0,0,1,.1-.784l1.032-2.088A8.122,8.122,0,0,1,316,550.48a6.325,6.325,0,0,0,.946-2.853l.16-.008a6.344,6.344,0,0,1-.947,2.862,8.126,8.126,0,0,0-1.016,1.675l-1.032,2.086a1.2,1.2,0,0,0-.1.781l.1.47a6.086,6.086,0,0,1-.01,3.359l-.269,2.831h-.16l.269-2.831A6.073,6.073,0,0,0,313.959,555.5Z" transform="translate(-313.68 -547.62)"/></g><path class="g" d="M386.634,570.135a5.921,5.921,0,0,1,.668-1.7,8.1,8.1,0,0,0,.7-4.553l-.169-.817-.01-.308a10.372,10.372,0,0,1,.162-2.2c.059-.321.119-.707.166-1.135a10.387,10.387,0,0,1,.635-2.416l.164-.007a10.393,10.393,0,0,0-.637,2.422c-.047.428-.108.814-.167,1.135a10.366,10.366,0,0,0-.162,2.2l.01.308.165.816a8.132,8.132,0,0,1-.7,4.553,5.919,5.919,0,0,0-.668,1.7l-.439.17-.092-.026Z" transform="translate(-362.829 -521.576)"/><path class="y" d="M369.958,752.137a.762.762,0,0,0,.726-.09,2.342,2.342,0,0,0-.059,1.316c.179.718-1.675-.578-1.675-.578l.4-.9A.621.621,0,0,0,369.958,752.137Z" transform="translate(-346.661 -703.598)"/><path class="g" d="M370.115,752.149a.741.741,0,0,0,.589-.132,2.342,2.342,0,0,0-.059,1.316c.18.718-1.675-.578-1.675-.578l.4-.9a.566.566,0,0,0,.452.255C369.92,752.117,370.018,752.13,370.115,752.149Z" transform="translate(-346.679 -703.57)"/><path class="x" d="M289.32,417.809h.775v-4.4l-.581-.1Z" transform="translate(-270.229 -386.039)"/><path class="u" d="M289.32,417.809h.775v-4.4l-.581-.1Z" transform="translate(-270.229 -386.039)"/><path class="z" d="M350.384,759.794a.772.772,0,0,1,.707.408l.269.209.132-.309a2.574,2.574,0,0,1,.3,1.665s.04.278-.369.408c0,0-.209.1-.16.478s-.737.937-1.764.707c0,0-.9.021-1.007-.189s.07-.767.07-.767.369-.585.538-.8a6.476,6.476,0,0,0,.489-1.32C349.645,759.869,350.125,759.564,350.384,759.794Z" transform="translate(-327.526 -710.916)"/><path class="y" d="M292.832,757.253l.008-.62a2.857,2.857,0,0,1-1.613-.034s.061.623-.04.708.334.887.334.887l.485.508.834-.3.226-.713S292.891,757.253,292.832,757.253Z" transform="translate(-274.015 -708.006)"/><path class="g" d="M292.832,757.253l.008-.62a2.857,2.857,0,0,1-1.613-.034s.061.623-.04.708.334.887.334.887l.485.508.834-.3.226-.713S292.891,757.253,292.832,757.253Z" transform="translate(-274.015 -708.006)"/><path class="z" d="M244.764,763.089s.474.055.414.66.025,0,.025,0a1.735,1.735,0,0,1,.683.488c.179.284.5-.254.528-.408s.226-.218.226-.218.792,1.468.652,1.872-1.84.5-1.84.5-.309-.174-1.022.369-2.193.132-2.193.132-1.206-.5-.473-1.056a1.772,1.772,0,0,1,1.231-.469l1.091-1.052S244.231,763.058,244.764,763.089Z" transform="translate(-227.646 -714.066)"/><path class="aa" d="M309.912,235.411c.3.183.516.48.8.686.407.294.952.4,1.265.8a1.554,1.554,0,0,1,.227,1.221c-.071.421-.231.823-.308,1.242a1.609,1.609,0,0,0,.188,1.231.28.28,0,0,0,.121.106.4.4,0,0,0,.184,0,1.078,1.078,0,0,1,1.027.638,2.555,2.555,0,0,1,.187,1.261,2.606,2.606,0,0,1-.211,1.027,2.687,2.687,0,0,1-1.355,1.126,10.5,10.5,0,0,1-1.081.437,1.628,1.628,0,0,1-.784.118c-.451-.078-.77-.488-1.2-.648a2.52,2.52,0,0,0-1.112-.051,1.083,1.083,0,0,1-.9-.205c-.281-.3-.154-.779-.011-1.163a.828.828,0,0,1-.586-1.354c.136-.166.353-.359.247-.546a.361.361,0,0,0-.143-.124c-.43-.245-1.021-.344-1.2-.8a1.135,1.135,0,0,1,.143-.913,2.708,2.708,0,0,0,.37-.873c.053-.446-.2-.9-.071-1.335a1.338,1.338,0,0,1,.309-.492,4.247,4.247,0,0,1,1.386-1.015,7.2,7.2,0,0,1,1.593-.408A1.127,1.127,0,0,1,309.912,235.411Z" transform="translate(-287.136 -221.096)"/><path class="x" d="M310.3,337.749s-1.262-.066-1.5,1.01a5.021,5.021,0,0,0,.518,2.618Z" transform="translate(-290.436 -316.792)"/><path class="u" d="M310.3,337.749s-1.262-.066-1.5,1.01a5.021,5.021,0,0,0,.518,2.618Z" transform="translate(-290.436 -316.792)"/><path class="x" d="M320,304.018l.478.379,2.232.1,1.394-.957,1.417-2.432a1.752,1.752,0,0,1-1.347-1.379,3.018,3.018,0,0,1-.028-1.152s-2.272-1.177-1.993.66a2.5,2.5,0,0,1,.021.682.966.966,0,0,1-1.176.873l-.4.618-.459,1.518Z" transform="translate(-300.941 -279.858)"/><path class="g" d="M352.324,299.227a2.493,2.493,0,0,1,.021.682,2.015,2.015,0,0,0,2-.187,3.02,3.02,0,0,1-.028-1.152S352.045,297.393,352.324,299.227Z" transform="translate(-331.109 -279.851)"/><circle class="x" cx="2.013" cy="2.013" r="2.013" transform="translate(20.06 16.134)"/><path class="j" d="M314.591,339.719c.049,0,.1.007.145.012a2.391,2.391,0,0,0,1.995-.664c.7-.839,1.638-1.876,1.677-1.918l.952.288s-.754-.268-1.254,1.134a1.452,1.452,0,0,0,.49,1.67,1.508,1.508,0,0,0,.623.264,0,0,0,0,1,0,0v.615h0l-.389,1.716a2.974,2.974,0,0,0,.037,1.468l.594,2.1c-.09.062-3.774,2.568-6.235.837h0a17.722,17.722,0,0,0,.1-3.744,8.333,8.333,0,0,1-.11-.932v-.023a1.051,1.051,0,0,0-.361-.713c-.222-.2-.522-.726-.225-2.121a5.124,5.124,0,0,1,.33-1l.825-1.865h0l.761.015v.005a5.464,5.464,0,0,0-1.044,1.894C313.41,339.429,313.294,339.636,314.591,339.719Z" transform="translate(-293.942 -315.943)"/><path class="x" d="M373.784,345.773a3.839,3.839,0,0,1,1.037,2.086c.292,1.448.944,3.854.944,3.854a2.459,2.459,0,0,1-.638,2.086c-.9,1.037-1.5,1.847-1.5,1.847l-.594.875a.745.745,0,0,1-.428.3,1.444,1.444,0,0,1-1.047-.075.61.61,0,0,1-.264-.77l.132-.306s-1.223.771-1.329.345,1.422-.851,1.422-.851,1.262-.213,1.518-.81c0,0,1.355-1.741,1.249-2.339l-1.309-3.508s-1.637-.216-1.079-2.055S373.784,345.773,373.784,345.773Z" transform="translate(-347.725 -323.952)"/><path class="s" d="M307.281,481.474a25.769,25.769,0,0,0,3.7.518l.076.253a11.156,11.156,0,0,0,3.7-.153q.251-.04.522-.089l.06-.011s.035-.19.063-.514a8.915,8.915,0,0,0-.435-3.619l-.432-1.329s-2.667,1.6-4.433,1.452c-.158-.013-.314-.026-.472-.031a2.2,2.2,0,0,1-1.289-.292l-.765.132v2.177a2.61,2.61,0,0,1-.173.932c-.016.044-.034.086-.053.132A.693.693,0,0,0,307.281,481.474Z" transform="translate(-289.05 -446.416)"/><path class="g" d="M364.58,551.6v.678a12.174,12.174,0,0,0,4.283-.253s.035-.19.063-.514C368.012,551.657,365.494,552.009,364.58,551.6Z" transform="translate(-342.579 -516.449)"/><path class="g" d="M307.286,543.361a25.764,25.764,0,0,0,3.7.518l.076.253v-.678a17.567,17.567,0,0,1-3.652-.664c-.016.044-.034.086-.053.132A.693.693,0,0,0,307.286,543.361Z" transform="translate(-289.055 -508.304)"/><path class="s" d="M417.31,533.985l.222,1.375q.251-.04.522-.089a9.022,9.022,0,0,1-.179-1.472l-.279-.239Z" transform="translate(-391.83 -499.683)"/><path class="g" d="M417.78,533.535l.222,1.376q.251-.04.522-.089a9.02,9.02,0,0,1-.179-1.472l-.279-.24Z" transform="translate(-392.269 -499.263)"/><g class="ab" transform="translate(19.159 30.112)"><path d="M323.239,493.943c-.157-.013-.314-.026-.472-.031a2.265,2.265,0,0,1-1.257-.27l.128-.022a2.2,2.2,0,0,0,1.289.292c.158.005.314.018.472.031.051,0,.1.007.158.009A2.961,2.961,0,0,1,323.239,493.943Z" transform="translate(-321.51 -492.49)"/><path d="M382.412,482.063q.251-.04.522-.088l.061-.011s.035-.19.062-.514a8.89,8.89,0,0,0-.435-3.619l-.406-1.254c.086-.049.132-.077.132-.077l.432,1.329a8.914,8.914,0,0,1,.435,3.619c-.028.324-.063.514-.063.514l-.06.011q-.27.049-.522.088a16.435,16.435,0,0,1-2.689.231A16.955,16.955,0,0,0,382.412,482.063Z" transform="translate(-376.029 -476.5)"/><path d="M359.786,559.3v.007H359.7Z" transform="translate(-357.18 -553.836)"/></g><ellipse class="y" cx="0.113" cy="0.232" rx="0.113" ry="0.232" transform="translate(25.739 34.094)"/><path class="x" d="M309.353,434.111a7.719,7.719,0,0,1,.673-2.471c.007.043.024.182.032.225a6.553,6.553,0,0,1,.015.7l-.169,3.059.226.957c.212.758-.575.159-.575.159a.469.469,0,0,1-.462.319l-.041-.549a4.741,4.741,0,0,1,.137-1.539A7.335,7.335,0,0,0,309.353,434.111Z" transform="translate(-290.703 -404.488)"/><path class="u" d="M309.353,434.111a7.719,7.719,0,0,1,.673-2.471c.007.043.024.182.032.225a6.553,6.553,0,0,1,.015.7l-.169,3.059.226.957c.212.758-.575.159-.575.159a.469.469,0,0,1-.462.319l-.041-.549a4.741,4.741,0,0,1,.137-1.539A7.335,7.335,0,0,0,309.353,434.111Z" transform="translate(-290.703 -404.488)"/><path class="x" d="M375.416,474.915c-.143.185-.222.292-.222.292l-.594.874a.741.741,0,0,1-.428.3,1.441,1.441,0,0,1-1.046-.075.608.608,0,0,1-.264-.769l.132-.306s-1.223.771-1.329.346,1.422-.85,1.422-.85,1.262-.213,1.518-.811c0,0,.11-.141.264-.358" transform="translate(-349.192 -443.642)"/><path class="s" d="M387.393,502.617s-1.446-.141-1.9-.967l-.21.683s1.518,1.048,1.864.912Z" transform="translate(-361.913 -469.879)"/><path class="g" d="M386.623,502.508s-1.445-.141-1.9-.968l-.209.681s1.518,1.048,1.863.912Z" transform="translate(-361.194 -469.776)"/><path class="s" d="M309.006,510.46s-.506.18-.606.08l.228.419.43-.33Z" transform="translate(-290.106 -478.107)"/><path class="g" d="M309.006,510.46s-.506.18-.606.08l.228.419.43-.33Z" transform="translate(-290.106 -478.107)"/><path class="g" d="M330.478,520.344v-.874l-.208.9Z" transform="translate(-308.477 -485.194)"/><path class="g" d="M331,252.26a.776.776,0,0,1-.542.286,4.27,4.27,0,0,1-.63,0,1.58,1.58,0,0,0-.951.24,2.421,2.421,0,0,0-.436.462,2.042,2.042,0,0,1-1.617.913.419.419,0,0,1-.3-.127.481.481,0,0,1-.077-.273,6.248,6.248,0,0,1,.039-1.231,2.6,2.6,0,0,1,.186-.734,2.508,2.508,0,0,1,.447-.639,2.736,2.736,0,0,1,.781-.626,1.4,1.4,0,0,1,.977-.126,9,9,0,0,1,1.051.561C330.35,251.141,331.463,251.611,331,252.26Z" transform="translate(-306.952 -235.176)"/><path class="aa" d="M331,251.04a.776.776,0,0,1-.542.286,4.283,4.283,0,0,1-.63,0,1.575,1.575,0,0,0-.951.239,2.421,2.421,0,0,0-.436.462,2.042,2.042,0,0,1-1.617.913.417.417,0,0,1-.3-.127.479.479,0,0,1-.077-.273,6.243,6.243,0,0,1,.039-1.231,2.6,2.6,0,0,1,.186-.734,2.492,2.492,0,0,1,.447-.638,2.727,2.727,0,0,1,.781-.626,1.4,1.4,0,0,1,.977-.126,9,9,0,0,1,1.051.561C330.35,249.921,331.463,250.391,331,251.04Z" transform="translate(-306.952 -234.036)"/><path class="x" d="M291.459,473.47l-.005.241-.054-.23Z" transform="translate(-272.172 -442.229)"/><path class="u" d="M291.459,473.47l-.005.241-.054-.23Z" transform="translate(-272.172 -442.229)"/><g class="ab" transform="translate(24.02 21.519)"><path d="M395.54,347.129c-.559,1.839,1.07,2.055,1.07,2.055l1.309,3.508c.106.6-1.25,2.339-1.25,2.339a1.16,1.16,0,0,1-.587.518.919.919,0,0,0,.348-.383s1.355-1.741,1.249-2.338l-1.309-3.509s-1.628-.216-1.07-2.055c.187-.614.462-.894.74-.994A1.693,1.693,0,0,0,395.54,347.129Z" transform="translate(-395.184 -346.27)"/></g><g class="p" transform="translate(18.57 20.896)"><path d="M401,384.61a1.376,1.376,0,0,0,.264.25,1.5,1.5,0,0,0,.623.264v.069a1.5,1.5,0,0,1-.565-.25A1.37,1.37,0,0,1,401,384.61Z" transform="translate(-395.166 -381.457)"/><path d="M320.946,416.289v.023a8.517,8.517,0,0,0,.113.935,17.43,17.43,0,0,1-.1,3.708l-.066-.042a17.664,17.664,0,0,0,.1-3.743,8.383,8.383,0,0,1-.11-.932v-.023a1.017,1.017,0,0,0-.177-.5A1.026,1.026,0,0,1,320.946,416.289Z" transform="translate(-320.173 -410.505)"/><path d="M314.564,336.92l-.645-.013h0l-.825,1.865a5.144,5.144,0,0,0-.33,1,2.618,2.618,0,0,0,.094,1.968c-.207-.243-.42-.8-.154-2.046a5.084,5.084,0,0,1,.327-1.006l.831-1.865h0l.761.015v0Z" transform="translate(-312.577 -336.83)"/><path d="M416.39,345.87l.011,0Z" transform="translate(-409.54 -345.273)"/><path d="M334.016,341.824l-.647-.195h0c-.038.042-.973,1.079-1.676,1.918a2.391,2.391,0,0,1-1.995.665c-.048-.005-.1-.009-.145-.013-.721-.046-1-.132-1.1-.314.135.132.433.2,1.04.235.049,0,.1.007.145.012a2.394,2.394,0,0,0,1.995-.664c.7-.84,1.638-1.877,1.677-1.919h0l.941.285A.589.589,0,0,0,334.016,341.824Z" transform="translate(-327.403 -341.239)"/></g><path class="g" d="M281.387,775.622s-.911.249-1.087-.142" transform="translate(-263.86 -725.64)"/><path class="g" d="M365.98,772.689s-1.056.272-1.3-.149" transform="translate(-342.672 -722.894)"/><path class="ac" d="M514.077,739.643c.015-.132.037-.264.061-.4a2.76,2.76,0,0,0-.132-1.338h0c-.024-.069-.042-.108-.042-.108-.42-.115-2.077,1.171-2.681,1.655-.209,0-.436.009-.684.026q-.162.012-.325.009h-.4c-.56-.451-2.294-1.809-2.726-1.691,0,0-.018.039-.042.108h0a2.711,2.711,0,0,0-.135,1.338c.024.132.046.264.061.4a1.894,1.894,0,0,0,.594,1.221,8.008,8.008,0,0,0,.719,2.136,1.52,1.52,0,0,0,.092.3,4.472,4.472,0,0,0-.2,1.188s-.586-.142-.645.563v.022c-.212.1-.476.319-.179.785a.306.306,0,0,0,.153.125c.053.018.1.018.1-.056l.366.412s.664.077.672-.309l.039.006c.089.013.182.024.278.034l.046.152s-.5-.01-.362.3c0,0,.125.116.168.074,0,0-.066.2.194.2,0,0,.279.148.388.042s.335-.264.356-.33c.006-.018.009-.174.01-.391h.043c.556.013,1.147,0,1.684-.034h.044c0,.234,0,.407.009.426.022.066.248.222.356.33s.387-.042.387-.042c.259,0,.194-.2.194-.2.043.042.169-.074.169-.074.136-.307-.363-.3-.363-.3l.059-.2.275-.023.044,0c-.026.419.671.339.671.339l.367-.412c-.006.074.046.074.1.055a.3.3,0,0,0,.148-.126c.449-.7-.381-.852-.381-.852a.417.417,0,0,0-.078-.012.14.14,0,0,1,0-.036h0a1.445,1.445,0,0,0,.005-.279.612.612,0,0,0-.494-.359c-.169-.021-.172-.8-.155-1.335a1.534,1.534,0,0,0,.026-.306,1.616,1.616,0,0,0-.066-.49,6.293,6.293,0,0,0,.624-1.32A1.92,1.92,0,0,0,514.077,739.643Z" transform="translate(-475.545 -690.439)"/><path class="j" d="M524.031,812.631h0c-.026.365-.1.952-.1.952s-.294.036-.748.076l-.308.026c-.236.019-.5.038-.782.053-.518.028-1.087.046-1.623.033-.268-.006-.528-.02-.769-.043-.108-.011-.212-.023-.311-.038-.615-.092-1.056-.267-1.093-.575a1.778,1.778,0,0,1-.014-.4c.057-.693.622-.553.622-.553a4.772,4.772,0,0,1,.211-1.216c.07-.271.132-.477.132-.477l3.967-.264h.013a.194.194,0,0,1,.194.2c-.024.476-.057,1.565.137,1.589a.6.6,0,0,1,.477.353A1.479,1.479,0,0,1,524.031,812.631Z" transform="translate(-486.139 -758.079)"/><path class="j" d="M511.857,742.17s-1.5,1.8-2.216,1.3l-.049-.036a1.835,1.835,0,0,1-.645-1.258c-.015-.132-.036-.259-.059-.388a2.693,2.693,0,0,1,.132-1.314h0c.024-.066.04-.106.04-.106C509.557,740.231,511.857,742.17,511.857,742.17Z" transform="translate(-477.334 -692.84)"/><path class="ad" d="M511.007,743.941s-.471.33-1.136.872a2.4,2.4,0,0,1-.33.227,1.836,1.836,0,0,1-.645-1.258c-.015-.132-.036-.259-.059-.388a2.694,2.694,0,0,1,.132-1.314h0C509.9,742.145,511.007,743.941,511.007,743.941Z" transform="translate(-477.287 -694.444)"/><path class="ae" d="M511.007,743.941s-.471.33-1.136.872a2.4,2.4,0,0,1-.33.227,1.836,1.836,0,0,1-.645-1.258c-.015-.132-.036-.259-.059-.388a2.694,2.694,0,0,1,.132-1.314h0C509.9,742.145,511.007,743.941,511.007,743.941Z" transform="translate(-477.287 -694.444)"/><path class="g" d="M517.839,753.533s-.251.177-.606.466a1.282,1.282,0,0,1-.174.121.971.971,0,0,1-.344-.671c-.007-.07-.018-.138-.031-.208a1.442,1.442,0,0,1,.073-.7h0C517.249,752.574,517.839,753.533,517.839,753.533Z" transform="translate(-484.632 -704.214)"/><path class="j" d="M569.05,742.17s1.5,1.8,2.216,1.3l.05-.036a1.836,1.836,0,0,0,.645-1.258c.015-.132.036-.259.058-.388a2.686,2.686,0,0,0-.132-1.314h0c-.024-.066-.041-.106-.041-.106C571.349,740.231,569.05,742.17,569.05,742.17Z" transform="translate(-533.557 -692.84)"/><path class="ad" d="M581.22,743.941s.472.33,1.136.872a2.407,2.407,0,0,0,.327.227,1.835,1.835,0,0,0,.645-1.258c.015-.132.036-.259.058-.388a2.687,2.687,0,0,0-.132-1.314h0C582.327,742.145,581.22,743.941,581.22,743.941Z" transform="translate(-544.924 -694.444)"/><path class="ae" d="M581.22,743.941s.472.33,1.136.872a2.407,2.407,0,0,0,.327.227,1.835,1.835,0,0,0,.645-1.258c.015-.132.036-.259.058-.388a2.687,2.687,0,0,0-.132-1.314h0C582.327,742.145,581.22,743.941,581.22,743.941Z" transform="translate(-544.924 -694.444)"/><path class="g" d="M589.05,753.578s.25.177.6.462a1.211,1.211,0,0,0,.174.12.975.975,0,0,0,.342-.667c.007-.066.019-.138.031-.207a1.444,1.444,0,0,0-.069-.7h0C589.637,752.626,589.05,753.578,589.05,753.578Z" transform="translate(-552.238 -704.261)"/><path class="g" d="M535.095,810.23a3.584,3.584,0,0,1-.573.73c-.594.528-3.158.318-3.324.291-.035-.006-.108-.11-.2-.278.07-.271.132-.477.132-.477Z" transform="translate(-498.018 -758.097)"/><path class="j" d="M521.457,765.1c-.1.007-.208.01-.313.008-.535-.009-2.338.015-2.538.742a5.874,5.874,0,0,0,.983,3.182c.166.028,2.729.235,3.325-.291a6.394,6.394,0,0,0,1.33-2.327S524.983,764.858,521.457,765.1Z" transform="translate(-486.41 -715.923)"/><path class="g" d="M531.7,786.386a1.893,1.893,0,0,0-1.939,1.1,1.583,1.583,0,0,0,.117,1.6.73.73,0,0,0,.928.33C531.742,789.023,531.7,786.386,531.7,786.386Z" transform="translate(-496.711 -735.816)"/><path class="g" d="M531.071,785.126a1.893,1.893,0,0,0-1.939,1.1,1.584,1.584,0,0,0,.117,1.6.73.73,0,0,0,.928.33C531.112,787.763,531.071,785.126,531.071,785.126Z" transform="translate(-496.122 -734.639)"/><path class="ad" d="M531.071,785.756a1.893,1.893,0,0,0-1.939,1.1,1.584,1.584,0,0,0,.117,1.6.729.729,0,0,0,.928.33C531.112,788.393,531.071,785.756,531.071,785.756Z" transform="translate(-496.122 -735.228)"/><path class="ae" d="M531.071,785.756a1.893,1.893,0,0,0-1.939,1.1,1.584,1.584,0,0,0,.117,1.6.729.729,0,0,0,.928.33C531.112,788.393,531.071,785.756,531.071,785.756Z" transform="translate(-496.122 -735.228)"/><path class="af" d="M537.446,803.13s-.18.166-.111.208S537.446,803.13,537.446,803.13Z" transform="translate(-503.921 -751.466)"/><path class="af" d="M541.423,806.35s-.1.217-.028.241.111-.156.111-.156Z" transform="translate(-507.703 -754.473)"/><path class="af" d="M534.984,811.32s-.1.256,0,.256S534.984,811.32,534.984,811.32Z" transform="translate(-501.699 -759.115)"/><path class="ag" d="M533.78,821.71a.729.729,0,0,0,.694.457" transform="translate(-500.615 -768.82)"/><path class="ag" d="M540.61,823.91a.347.347,0,0,0,.415.055" transform="translate(-506.994 -770.875)"/><path class="g" d="M564,786.386a1.893,1.893,0,0,1,1.939,1.1,1.584,1.584,0,0,1-.117,1.6.729.729,0,0,1-.928.33C563.952,789.023,564,786.386,564,786.386Z" transform="translate(-528.836 -735.816)"/><path class="g" d="M564.587,785.126a1.893,1.893,0,0,1,1.939,1.1,1.584,1.584,0,0,1-.117,1.6.729.729,0,0,1-.928.33C564.548,787.763,564.587,785.126,564.587,785.126Z" transform="translate(-529.388 -734.639)"/><path class="ad" d="M564.587,785.756a1.893,1.893,0,0,1,1.939,1.1,1.584,1.584,0,0,1-.117,1.6.729.729,0,0,1-.928.33C564.548,788.393,564.587,785.756,564.587,785.756Z" transform="translate(-529.388 -735.228)"/><path class="ae" d="M564.587,785.756a1.893,1.893,0,0,1,1.939,1.1,1.584,1.584,0,0,1-.117,1.6.729.729,0,0,1-.928.33C564.548,788.393,564.587,785.756,564.587,785.756Z" transform="translate(-529.388 -735.228)"/><path class="af" d="M586.16,803.13s.18.166.111.208S586.16,803.13,586.16,803.13Z" transform="translate(-549.538 -751.466)"/><path class="af" d="M582.043,806.35s.1.217.028.241-.111-.156-.111-.156Z" transform="translate(-545.615 -754.473)"/><path class="af" d="M589.218,811.32s.1.256,0,.256S589.218,811.32,589.218,811.32Z" transform="translate(-552.355 -759.115)"/><path class="ag" d="M581.794,821.71a.729.729,0,0,1-.694.457" transform="translate(-544.812 -768.82)"/><path class="ag" d="M578.916,823.91a.348.348,0,0,1-.416.055" transform="translate(-542.384 -770.875)"/><path class="af" d="M553.2,841.058a1.915,1.915,0,0,1,1.371,0Z" transform="translate(-518.753 -786.769)"/><path class="g" d="M519.394,847.845c-.615-.092-1.056-.267-1.093-.575a1.778,1.778,0,0,1-.014-.4.886.886,0,0,1,.235-.086,1.054,1.054,0,0,1,.54.073c.291.083.27.426.33.872A.369.369,0,0,1,519.394,847.845Z" transform="translate(-486.139 -792.23)"/><path class="j" d="M514.278,847.444s-.8.146-.367.837a.3.3,0,0,0,.148.122c.051.018.1.018.094-.055l.354.405s.706.083.644-.364-.042-.792-.33-.872A1.093,1.093,0,0,0,514.278,847.444Z" transform="translate(-481.937 -792.844)"/><path class="ag" d="M524.18,854.67s.17.387.405.062" transform="translate(-491.648 -799.605)"/><path class="ag" d="M518.28,857s.088.367.42.094" transform="translate(-486.137 -801.781)"/><path class="g" d="M593.437,846.806h0c-.026.365-.1.952-.1.952s-.293.036-.748.077a.382.382,0,0,1,0-.077c.062-.447.042-.792.33-.872A1.268,1.268,0,0,1,593.437,846.806Z" transform="translate(-555.545 -792.254)"/><path class="j" d="M594.117,847.444s.8.146.367.837a.3.3,0,0,1-.148.122c-.051.018-.1.018-.1-.055l-.353.405s-.707.083-.644-.364.042-.792.33-.872A1.092,1.092,0,0,1,594.117,847.444Z" transform="translate(-556.152 -792.844)"/><path class="ag" d="M597.905,854.67s-.17.387-.405.062" transform="translate(-560.13 -799.605)"/><path class="ag" d="M603.581,857s-.088.367-.421.094" transform="translate(-565.417 -801.781)"/><path class="g" d="M536.92,843.056c-.268-.006-.528-.02-.769-.044l-.24-.806a.523.523,0,0,1-.022-.147.513.513,0,0,1,1.026,0C536.919,842.37,536.921,842.768,536.92,843.056Z" transform="translate(-502.585 -787.362)"/><path class="j" d="M534.325,841.961l.282.951s-.48-.011-.349.291c0,0,.121.114.162.073,0,0-.063.2.187.2,0,0,.269.146.373.042s.323-.26.344-.322c.013-.041.009-.837,0-1.386a.512.512,0,0,0-.513-.508h0a.513.513,0,0,0-.492.661Z" transform="translate(-501.04 -787.117)"/><path class="ag" d="M539.511,869.47s-.21.2-.1.315" transform="translate(-505.845 -813.429)"/><path class="ag" d="M537.254,867.56a.285.285,0,0,0-.194.244" transform="translate(-503.678 -811.645)"/><path class="g" d="M577.177,841.809a.521.521,0,0,1-.021.147l-.224.763c-.236.019-.5.038-.782.053,0-.285,0-.664,0-.967a.513.513,0,1,1,1.025,0Z" transform="translate(-540.189 -787.113)"/><path class="j" d="M577.732,841.961l-.282.951s.481-.011.35.291c0,0-.121.114-.162.073,0,0,.062.2-.187.2,0,0-.269.146-.373.042s-.322-.26-.343-.322c-.013-.041-.009-.837,0-1.386a.512.512,0,0,1,.513-.508h0a.513.513,0,0,1,.491.661Z" transform="translate(-540.725 -787.117)"/><path class="ag" d="M586.23,869.47s.21.2.1.315" transform="translate(-549.604 -813.429)"/><path class="ag" d="M587.63,867.56a.285.285,0,0,1,.194.244" transform="translate(-550.911 -811.645)"/><path class="g" d="M546.542,782.768s-.977-.031-1.008.726,1.527.436,1.527.436.655-.088.54-.547S547.248,782.809,546.542,782.768Z" transform="translate(-511.592 -732.447)"/><path class="g" d="M546.542,781.508s-.977-.031-1.008.726,1.527.436,1.527.436.655-.088.54-.548S547.248,781.549,546.542,781.508Z" transform="translate(-511.592 -731.27)"/><path class="af" d="M546.542,782.137s-.977-.031-1.008.726,1.527.436,1.527.436.655-.088.54-.548S547.248,782.179,546.542,782.137Z" transform="translate(-511.592 -731.858)"/><path class="g" d="M527.78,839.92s.33.117.4.342" transform="translate(-495.011 -785.828)"/><path class="g" d="M595.186,837.4s-.234.1-.218.509" transform="translate(-557.765 -783.475)"/><ellipse class="ad" cx="0.153" cy="0.254" rx="0.153" ry="0.254" transform="translate(32.649 55.663) rotate(-29.887)"/><ellipse class="ad" cx="0.253" cy="0.152" rx="0.253" ry="0.152" transform="translate(37.293 55.723) rotate(-60)"/><ellipse class="ah" cx="0.153" cy="0.254" rx="0.153" ry="0.254" transform="translate(32.649 55.663) rotate(-29.887)"/><ellipse class="ah" cx="0.253" cy="0.152" rx="0.253" ry="0.152" transform="translate(37.293 55.723) rotate(-60)"/><ellipse class="b" cx="1.777" cy="0.3" rx="1.777" ry="0.3" transform="translate(10.932 46.948)"/><ellipse class="b" cx="1.777" cy="0.3" rx="1.777" ry="0.3" transform="translate(3.932 51.205)"/><ellipse class="h" cx="2.653" cy="0.449" rx="2.653" ry="0.449" transform="translate(1.206 47.248)"/><path class="h" d="M69.3,714.573a.768.768,0,0,1-.253-.381.34.34,0,0,1,.177-.388.5.5,0,0,1,.467.164.627.627,0,0,0,.455.22.692.692,0,0,1-.214-.648.264.264,0,0,1,.059-.132c.09-.1.253-.055.362.021a1.346,1.346,0,0,1,.44,1.127,2.078,2.078,0,0,0,.007-.462.475.475,0,0,1,.174-.411.529.529,0,0,1,.264-.066.552.552,0,0,1,.432.123.424.424,0,0,1-.017.528,1.721,1.721,0,0,1-.446.358.986.986,0,0,0-.319.3.313.313,0,0,0-.024.054H69.9A2.667,2.667,0,0,1,69.3,714.573Z" transform="translate(-66.536 -667.61)"/><ellipse class="b" cx="1.777" cy="0.3" rx="1.777" ry="0.3" transform="translate(66.176 49.459)"/><path class="ai" d="M1042.91,745.359a3.717,3.717,0,0,0,1.32-.249c.306-.218,1.558-.477,1.634-.128s1.523,1.735.379,1.744a9.667,9.667,0,0,1-2.963-.364C1042.975,746.176,1042.91,745.359,1042.91,745.359Z" transform="translate(-976.151 -696.995)"/><path class="aj" d="M1046.263,754.347a9.682,9.682,0,0,1-2.964-.364c-.232-.141-.325-.649-.355-.883h-.034s.066.818.369,1a9.689,9.689,0,0,0,2.963.364c.33,0,.445-.12.438-.294C1046.635,754.281,1046.509,754.347,1046.263,754.347Z" transform="translate(-976.15 -704.737)"/></svg>