<svg xmlns="http://www.w3.org/2000/svg" width="65.963" height="35.993" viewBox="0 0 65.963 35.993"><defs><style>.a,.n{fill:#a8996f;}.a{opacity:0.32;}.b{fill:#454b69;}.c{fill:none;}.d{opacity:0.4;}.e,.j,.m{opacity:0.1;}.f{fill:#efb7b9;}.g{fill:#fff;}.h{fill:#6c63ff;}.i{fill:#616161;}.k{fill:#3f3d56;}.l,.m{fill:#eee;}.o{fill:#9c9ca1;}.p{fill:#939498;}</style></defs><g transform="translate(0 -0.035)"><path class="a" d="M90.264,169.687a10.815,10.815,0,0,1-.941,1.81,7.788,7.788,0,0,1-.57.784l-.006.007H25l.009-.007c.057-.045.394-.317.918-.784.376-.334.847-.769,1.377-1.292,4.33-4.259,12.648-14.34,5.72-23.575-6.44-8.585.494-10.143,5.068-10.325a13.068,13.068,0,0,1,5.154.843,45.794,45.794,0,0,0,11.007,2.6c.165.018.332.037.5.053a48.189,48.189,0,0,0,8.018.146h0l.237-.016a47.642,47.642,0,0,0,7.842-1.213c.167-.041.332-.079.5-.118,8.583-1.986,16.495,4.782,14.517,12.43-.731,2.829-.545,5.844,1.893,8.284C91.747,163.295,91.264,167.216,90.264,169.687Z" transform="translate(-25 -136.26)"/><path class="b" d="M90.406,702.566a10.813,10.813,0,0,1-.941,1.81,7.788,7.788,0,0,1-.57.784H25.15c.057-.045.394-.317.918-.784.376-.334.847-.769,1.377-1.292l6.719-1.388a1.308,1.308,0,0,1,.264-.027l7.162-.01H41.6l3.548,0h.008l2.994,0h3.968l8.227-.011h3.54l1.413-.016h.467l4.109-.006h1.943l4.747-.006h1.413l4.5-.006,3.795,0a1.345,1.345,0,0,1,.314.037Z" transform="translate(-25.141 -669.139)"/><path class="c" d="M26.068,750h63.4a7.79,7.79,0,0,1-.57.784H25.15C25.206,750.737,25.543,750.464,26.068,750Z" transform="translate(-25.141 -714.763)"/><path class="d" d="M26.068,750h63.4a7.79,7.79,0,0,1-.57.784H25.15C25.206,750.737,25.543,750.464,26.068,750Z" transform="translate(-25.141 -714.763)"/><path class="b" d="M488.656,168.142l-.127.025-5.757,1.106a19.519,19.519,0,0,1-5.067.521,18.848,18.848,0,0,1-3.562-.774c-.668-.181-1.377-.254-1.6-1-.313-1.032.2-2.561.316-3.607a10.064,10.064,0,0,0-.022-3.094,5.5,5.5,0,0,0-.179-.673,3.251,3.251,0,0,1-.353-1.856,2.538,2.538,0,0,1,.946-1.162,5.276,5.276,0,0,0,1.853-2.284c.149-.459.177-.953.338-1.408a3.288,3.288,0,0,1,1.921-1.857,7.218,7.218,0,0,1,2.706-.416,18.33,18.33,0,0,1,2.424.161,6.943,6.943,0,0,1,2.532.738,3.15,3.15,0,0,1,1.6,2.016c.254,1.228-.451,2.536-.073,3.728a9.516,9.516,0,0,0,.937,1.642,3.91,3.91,0,0,1,.287,3.04c-.366,1.134-1.262,2.281-.8,3.381.292.7,1.038,1.073,1.557,1.627Q488.6,168.067,488.656,168.142Z" transform="translate(-446.599 -150.743)"/><path class="e" d="M491.6,282.377v.169l-5.757,1.106a19.519,19.519,0,0,1-5.067.521,18.845,18.845,0,0,1-3.562-.774c-.668-.181-1.377-.254-1.6-1-.313-1.032.2-2.561.316-3.607.115-1.027,1.881-4.775,1.677-5.79l10.554.459c.071.56,2.861,3.373,2.687,3.911-.366,1.134-1.262,2.281-.8,3.381C490.338,281.45,491.084,281.823,491.6,282.377Z" transform="translate(-449.674 -265.123)"/><path class="f" d="M511.634,331.573a1.561,1.561,0,0,1-.086,1.055,1.733,1.733,0,0,1-1.239.642l-1.635.327a.634.634,0,0,0-.313.124.547.547,0,0,0-.146.357,4.106,4.106,0,0,0,.334,1.739c.386,1.142.71,2.308,1.2,3.41a7.313,7.313,0,0,0,2.114,2.89,4.088,4.088,0,0,0,3.392.841,5.541,5.541,0,0,0,2.577-1.734,6.238,6.238,0,0,0,1.44-2.138,7.611,7.611,0,0,0,.326-1.754l.29-2.728a1.622,1.622,0,0,0-.2-1.234,1.47,1.47,0,0,0-.455-.329,18.7,18.7,0,0,1-1.872-1.01,3,3,0,0,1-1.279-1.641,6.863,6.863,0,0,0-.268-1.244,1.68,1.68,0,0,0-1.09-.849,3.717,3.717,0,0,0-1.416-.057c-.473.053-2.294.19-2.49.723-.1.287.33.9.434,1.184A8.265,8.265,0,0,1,511.634,331.573Z" transform="translate(-480.487 -317.157)"/><path class="e" d="M511.634,331.573a1.561,1.561,0,0,1-.086,1.055,1.733,1.733,0,0,1-1.239.642l-1.635.327a.634.634,0,0,0-.313.124.547.547,0,0,0-.146.357,4.106,4.106,0,0,0,.334,1.739c.386,1.142.71,2.308,1.2,3.41a7.313,7.313,0,0,0,2.114,2.89,4.088,4.088,0,0,0,3.392.841,5.541,5.541,0,0,0,2.577-1.734,6.238,6.238,0,0,0,1.44-2.138,7.611,7.611,0,0,0,.326-1.754l.29-2.728a1.622,1.622,0,0,0-.2-1.234,1.47,1.47,0,0,0-.455-.329,18.7,18.7,0,0,1-1.872-1.01,3,3,0,0,1-1.279-1.641,6.863,6.863,0,0,0-.268-1.244,1.68,1.68,0,0,0-1.09-.849,3.717,3.717,0,0,0-1.416-.057c-.473.053-2.294.19-2.49.723-.1.287.33.9.434,1.184A8.265,8.265,0,0,1,511.634,331.573Z" transform="translate(-480.487 -317.157)"/><path class="g" d="M503.308,403.2l.958-2.029a6.527,6.527,0,0,0,.86-3c-.009-.209-.011-.47.172-.564a.492.492,0,0,1,.252-.032,10.187,10.187,0,0,1,2.955.6,1.172,1.172,0,0,1,.5.29,1.2,1.2,0,0,1,.225.533,15.583,15.583,0,0,1,.329,1.943,30.688,30.688,0,0,1,0,4.876l-.255,4.958a.474.474,0,0,1-.042.2.441.441,0,0,1-.333.175,7.236,7.236,0,0,1-1.5.048,66.2,66.2,0,0,0-10.527.088q.024-.774-.025-1.549a34.407,34.407,0,0,0-1.284-6.568,5.836,5.836,0,0,1-.119-3.828,1.64,1.64,0,0,1,.332-.506,1.887,1.887,0,0,1,.842-.423,5.359,5.359,0,0,1,1.623-.184l3.617,7.874c.165.36.3.739.466,1.1.148-.614-.03-1.334.148-2A12.592,12.592,0,0,1,503.308,403.2Z" transform="translate(-468.228 -382.551)"/><path class="h" d="M434.93,406.4a2.256,2.256,0,0,0,1.721-.759,5.317,5.317,0,0,0,.987-1.663,16.408,16.408,0,0,0,.848-2.645,6.384,6.384,0,0,0,.176-2.343c-.164-1.076-.773-2.053-.876-3.136a.572.572,0,0,1,.146-.525.605.605,0,0,1,.335-.087,4.422,4.422,0,0,1,3.108.634c.255.209.462.47.712.685.594.516,1.434.779,1.815,1.464a5.081,5.081,0,0,1,.29.766,7.043,7.043,0,0,0,.975,1.669c-.365,1.542-.785,3.085-1.151,4.627a20.228,20.228,0,0,1-.766,2.679,3.817,3.817,0,0,0-.43,1.755,4.011,4.011,0,0,0,.176.7,8.031,8.031,0,0,1,.338,2.5l-16.367.04a6.062,6.062,0,0,0,.934-3.871,4.23,4.23,0,0,0-.516-1.883,5.785,5.785,0,0,0-2.335-1.965c-.631-.344-1.308,1.592-1.99,1.37a44.648,44.648,0,0,0,.115-4.57,2.093,2.093,0,0,1,.041-.766c.054-.168.153-.318.22-.482.269-.654.013-1.491.447-2.048.3-.387.828-.5,1.256-.736a7.546,7.546,0,0,0,1.163-.96,5.173,5.173,0,0,1,2.648-1.182,3.335,3.335,0,0,1,.505,1.491c.029.333.008.671.055,1a4.936,4.936,0,0,0,.434,1.286,46.712,46.712,0,0,0,2.508,5.095,5.4,5.4,0,0,0,.972,1.275A2.22,2.22,0,0,0,434.93,406.4Z" transform="translate(-400.227 -380.328)"/><path class="i" d="M434.93,406.4a2.256,2.256,0,0,0,1.721-.759,5.317,5.317,0,0,0,.987-1.663,16.408,16.408,0,0,0,.848-2.645,6.384,6.384,0,0,0,.176-2.343c-.164-1.076-.773-2.053-.876-3.136a.572.572,0,0,1,.146-.525.605.605,0,0,1,.335-.087,4.422,4.422,0,0,1,3.108.634c.255.209.462.47.712.685.594.516,1.434.779,1.815,1.464a5.081,5.081,0,0,1,.29.766,7.043,7.043,0,0,0,.975,1.669c-.365,1.542-.785,3.085-1.151,4.627a20.228,20.228,0,0,1-.766,2.679,3.817,3.817,0,0,0-.43,1.755,4.011,4.011,0,0,0,.176.7,8.031,8.031,0,0,1,.338,2.5l-16.367.04a6.062,6.062,0,0,0,.934-3.871,4.23,4.23,0,0,0-.516-1.883,5.785,5.785,0,0,0-2.335-1.965c-.631-.344-1.308,1.592-1.99,1.37a44.648,44.648,0,0,0,.115-4.57,2.093,2.093,0,0,1,.041-.766c.054-.168.153-.318.22-.482.269-.654.013-1.491.447-2.048.3-.387.828-.5,1.256-.736a7.546,7.546,0,0,0,1.163-.96,5.173,5.173,0,0,1,2.648-1.182,3.335,3.335,0,0,1,.505,1.491c.029.333.008.671.055,1a4.936,4.936,0,0,0,.434,1.286,46.712,46.712,0,0,0,2.508,5.095,5.4,5.4,0,0,0,.972,1.275A2.22,2.22,0,0,0,434.93,406.4Z" transform="translate(-400.227 -380.328)"/><circle class="f" cx="4.917" cy="4.917" r="4.917" transform="translate(28.92 4.452)"/><path class="b" d="M505.909,186.809a6.532,6.532,0,0,0-.993-3.647,7.349,7.349,0,0,1-.738-1.673,2.107,2.107,0,0,1,.266-1.754,3.6,3.6,0,0,1,1.269-.883,6.5,6.5,0,0,0,3.053-3.053c-.322.176-.239.7.046.93a2.945,2.945,0,0,0,1.022.386c1.276.4,2.041,1.674,2.655,2.862a1.368,1.368,0,0,1,.2.617,1.252,1.252,0,0,1-.205.6,6.483,6.483,0,0,0-.811,1.66,4.005,4.005,0,0,0,.225,2.087,4.47,4.47,0,0,0,1.085,1.957,1.924,1.924,0,0,0,2.082.438c-.676-1.163-1.377-2.462-1.113-3.78.127-.631.47-1.2.615-1.832a6.149,6.149,0,0,0-.638-3.571l-1.356-3.41a2.675,2.675,0,0,0-.918-1.373,2.485,2.485,0,0,0-1.086-.287,7.82,7.82,0,0,0-3.594.379c-2.055.821-3.343,2.844-4.365,4.807a4.012,4.012,0,0,0-.6,1.876,5.207,5.207,0,0,0,.191,1.072,20.488,20.488,0,0,1,.372,4.42,7.027,7.027,0,0,1-.543,3.244,4.7,4.7,0,0,0,2.344.233A2.9,2.9,0,0,0,505.909,186.809Z" transform="translate(-474.652 -170.888)"/><g class="j" transform="translate(27.359 4.819)"><path d="M502.529,297.644q0-.243,0-.49a20.493,20.493,0,0,0-.372-4.42,7.458,7.458,0,0,1-.176-.854,2.236,2.236,0,0,0-.016.3,5.2,5.2,0,0,0,.191,1.072A20.322,20.322,0,0,1,502.529,297.644Z" transform="translate(-501.966 -287.74)"/><path d="M709.827,307.772a3.47,3.47,0,0,0,.075-1.022,3.18,3.18,0,0,1-.075.506c-.146.631-.488,1.2-.615,1.832a3.036,3.036,0,0,0-.046.848,3.016,3.016,0,0,1,.046-.332C709.339,308.972,709.681,308.4,709.827,307.772Z" transform="translate(-697.27 -301.757)"/><path d="M546.952,224.323a.826.826,0,0,0,.045-.253,1.383,1.383,0,0,0-.2-.617c-.614-1.188-1.377-2.46-2.655-2.862a2.948,2.948,0,0,1-1.022-.386.728.728,0,0,1-.251-.5,6.8,6.8,0,0,1-2.847,2.628,3.6,3.6,0,0,0-1.269.883,1.956,1.956,0,0,0-.329,1.389,1.755,1.755,0,0,1,.329-.872,3.6,3.6,0,0,1,1.269-.883,6.8,6.8,0,0,0,2.847-2.628.728.728,0,0,0,.251.5,3,3,0,0,0,1.022.386c1.276.4,2.041,1.674,2.655,2.862A2.264,2.264,0,0,1,546.952,224.323Z" transform="translate(-536.318 -219.7)"/><path d="M670.717,353.142a4.488,4.488,0,0,1-1.085-1.957,5.665,5.665,0,0,1-.275-1.245,4.535,4.535,0,0,0,.275,1.762,4.47,4.47,0,0,0,1.085,1.957,1.923,1.923,0,0,0,2.082.438q-.122-.209-.243-.424A2.009,2.009,0,0,1,670.717,353.142Z" transform="translate(-659.745 -342.47)"/><path d="M506.2,401.77a2.9,2.9,0,0,1-1.534,2.306,4.037,4.037,0,0,1-2.148-.19,4.979,4.979,0,0,1-.2.473,4.7,4.7,0,0,0,2.344.233,2.9,2.9,0,0,0,1.534-2.306,3.985,3.985,0,0,0,.013-.667C506.207,401.67,506.2,401.72,506.2,401.77Z" transform="translate(-502.3 -391.185)"/></g><path class="g" d="M624.333,647.407a7.485,7.485,0,0,0-2.664-.229,3.7,3.7,0,0,0-1.4.665,1.61,1.61,0,0,1,.858,1.178,4.816,4.816,0,0,1,.2,1.053,1.6,1.6,0,0,1-.271,1.019,9.745,9.745,0,0,0,3.29-.434.9.9,0,0,0,.348-.141.748.748,0,0,0,.224-.6,4.077,4.077,0,0,0-.222-1.151C624.565,648.32,624.466,647.855,624.333,647.407Z" transform="translate(-586.126 -617.78)"/><path class="h" d="M684.537,482.909a1.617,1.617,0,0,1,1.033.777,11.293,11.293,0,0,1,1.347,3.435,45.734,45.734,0,0,0,1.484,4.366,6.572,6.572,0,0,0,.445.958,2.681,2.681,0,0,1,.376.734c.151.65-.385,1.262-.944,1.624a3.737,3.737,0,0,1-.966.466,5.757,5.757,0,0,1-1.028.176l-3.184.344a20.8,20.8,0,0,1-4.41.165c-.092-.321.089-.548.076-.883a1.971,1.971,0,0,0-.209-.682,4.357,4.357,0,0,1-.34-1.234,1.672,1.672,0,0,0-.082-.463.434.434,0,0,0-.344-.287c.86-.085,1.514-.248,2.374-.334a2.12,2.12,0,0,0,.924-.238,1.926,1.926,0,0,0,.677-.958,5.07,5.07,0,0,0,.416-2.883,12.054,12.054,0,0,1-.606-2.338,3.5,3.5,0,0,1,.358-1.388,2.3,2.3,0,0,1,.924-1.178A3.129,3.129,0,0,1,684.537,482.909Z" transform="translate(-640.346 -462.958)"/><path class="i" d="M684.537,482.909a1.617,1.617,0,0,1,1.033.777,11.293,11.293,0,0,1,1.347,3.435,45.734,45.734,0,0,0,1.484,4.366,6.572,6.572,0,0,0,.445.958,2.681,2.681,0,0,1,.376.734c.151.65-.385,1.262-.944,1.624a3.737,3.737,0,0,1-.966.466,5.757,5.757,0,0,1-1.028.176l-3.184.344a20.8,20.8,0,0,1-4.41.165c-.092-.321.089-.548.076-.883a1.971,1.971,0,0,0-.209-.682,4.357,4.357,0,0,1-.34-1.234,1.672,1.672,0,0,0-.082-.463.434.434,0,0,0-.344-.287c.86-.085,1.514-.248,2.374-.334a2.12,2.12,0,0,0,.924-.238,1.926,1.926,0,0,0,.677-.958,5.07,5.07,0,0,0,.416-2.883,12.054,12.054,0,0,1-.606-2.338,3.5,3.5,0,0,1,.358-1.388,2.3,2.3,0,0,1,.924-1.178A3.129,3.129,0,0,1,684.537,482.909Z" transform="translate(-640.346 -462.958)"/><path class="f" d="M440.7,324.458a4.169,4.169,0,0,0,.426-1.541,5.342,5.342,0,0,0-.41-1.681,9.723,9.723,0,0,1-.442-2.076.287.287,0,0,1,.029-.2.342.342,0,0,1,.22-.1,1.787,1.787,0,0,0,.945-.734,8.05,8.05,0,0,0,.967-1.615c.19-.423.447-.938.91-.942a26.289,26.289,0,0,1-.693,2.6c.485-.124.945-.3,1.43-.428a.856.856,0,0,1,.294-.039.443.443,0,0,1,.3.661c.237.278.631.352.941.543s.532.662.257.9a.766.766,0,0,0-.161.139c-.133.205.193.441.166.684-.022.2-.277.292-.47.239a2.115,2.115,0,0,1-.516-.3.54.54,0,0,0-.564-.062,4.5,4.5,0,0,1-.326,1.581c-.085.18-.2.348-.264.534a2.631,2.631,0,0,0-.122.627l-.208,1.9A3.373,3.373,0,0,1,440.7,324.458Z" transform="translate(-416.445 -305.252)"/><path class="g" d="M440.092,461.4l-.183-1.238a1.513,1.513,0,0,1,.219-1.127,7.541,7.541,0,0,0,3.224.641.5.5,0,0,0,.407-.129.935.935,0,0,1,.115.848c-.081.278-.236.528-.34.8a1.138,1.138,0,0,1-.194.392.839.839,0,0,1-.634.194,4.056,4.056,0,0,1-.716-.068A5.639,5.639,0,0,0,440.092,461.4Z" transform="translate(-416.083 -440.492)"/><path class="i" d="M417.723,489.6q-1.179-.134-2.342-.379a4.738,4.738,0,0,0-1.152-.153,1.383,1.383,0,0,1-.746-.064,3.59,3.59,0,0,1-.029,2.234c-.153.43-.387.831-.5,1.274-.234.926.087,1.936-.205,2.846a.72.72,0,0,1-.177.317c-.089.082-.212.124-.294.213a.728.728,0,0,0-.13.506l-.005,1.58a5.431,5.431,0,0,0,.541,2.925,2.778,2.778,0,0,0,2.991,1.184,2.223,2.223,0,0,0,.812-.4,3.792,3.792,0,0,0,.871-1.18,5.066,5.066,0,0,0,.666-1.625,4.619,4.619,0,0,0-.018-1.245,42.015,42.015,0,0,1-.7-6.872A2.083,2.083,0,0,1,417.723,489.6Z" transform="translate(-389.938 -468.734)"/><path class="f" d="M452.66,661.194a6.957,6.957,0,0,1-1.2,0c-.287-.034-.567-.1-.851-.153a5.455,5.455,0,0,0-4.393,1.221c-.22.188-.443.477-.321.74.131.283.531.275.839.223a2.523,2.523,0,0,0-.86.673.508.508,0,0,0-.151.365c.035.284.42.336.706.311a.237.237,0,0,0,.088.344.589.589,0,0,0,.4.029,2.955,2.955,0,0,0,.847-.293.323.323,0,0,0,.172.375.708.708,0,0,0,.442.041,19.347,19.347,0,0,0,1.97-.794c1.093-.306,2.237.182,3.373.216a2.355,2.355,0,0,0,1.045-.172,8.967,8.967,0,0,1,1.138-.64c.466-.133,1,.02,1.428-.21.31-.167.03-1.453-.049-1.7-.145-.453-.291-.754-.774-.8A26.09,26.09,0,0,0,452.66,661.194Z" transform="translate(-421.59 -630.81)"/><path class="g" d="M619.88,655.754s1.852,1.568.784,3.278l2.065-.713v-1.5c0-.071-.784-1.14-.784-1.14l-.926-.143Z" transform="translate(-585.758 -625.721)"/><path class="k" d="M233.224,521.32h.695a1.434,1.434,0,0,1,1.434,1.434v2.129H231.79v-2.129A1.434,1.434,0,0,1,233.224,521.32Z" transform="translate(-218.495 -491.384)"/><path class="e" d="M233.224,521.32h.695a1.434,1.434,0,0,1,1.434,1.434v2.129H231.79v-2.129A1.434,1.434,0,0,1,233.224,521.32Z" transform="translate(-218.495 -491.384)"/><circle class="k" cx="0.285" cy="0.285" r="0.285" transform="translate(14.649 30.149)"/><circle class="k" cx="0.285" cy="0.285" r="0.285" transform="translate(14.649 29.793)"/><circle class="k" cx="0.285" cy="0.285" r="0.285" transform="translate(14.649 29.437)"/><circle class="k" cx="0.285" cy="0.285" r="0.285" transform="translate(14.649 29.081)"/><circle class="k" cx="0.285" cy="0.285" r="0.285" transform="translate(14.649 28.725)"/><circle class="k" cx="0.285" cy="0.285" r="0.285" transform="translate(14.649 28.368)"/><circle class="k" cx="0.285" cy="0.285" r="0.285" transform="translate(14.649 28.012)"/><circle class="k" cx="0.285" cy="0.285" r="0.285" transform="translate(15.077 28.154)"/><circle class="k" cx="0.285" cy="0.285" r="0.285" transform="translate(15.362 28.012)"/><circle class="k" cx="0.285" cy="0.285" r="0.285" transform="translate(15.647 27.869)"/><circle class="k" cx="0.285" cy="0.285" r="0.285" transform="translate(14.649 27.655)"/><circle class="k" cx="0.285" cy="0.285" r="0.285" transform="translate(14.649 27.299)"/><circle class="k" cx="0.285" cy="0.285" r="0.285" transform="translate(14.649 26.943)"/><circle class="k" cx="0.285" cy="0.285" r="0.285" transform="translate(14.649 26.587)"/><path class="l" d="M266.643,571.609q-.107.015-.213.022a1.637,1.637,0,0,0,.184-.188,1.205,1.205,0,0,0-.172-.334.587.587,0,0,1-.229.072c-.071.01-.142.018-.213.023a3.557,3.557,0,0,0,.272-.287,1.21,1.21,0,1,0,.4.9,1.184,1.184,0,0,0-.018-.208Z" transform="translate(-250.525 -545.657)"/><path class="l" d="M303.914,610.525a.553.553,0,0,1-.24.08c-.071.01-.142.018-.213.023a2.087,2.087,0,0,0,.211-.219.713.713,0,1,0,.241.115Z" transform="translate(-286.846 -583.156)"/><circle class="k" cx="0.285" cy="0.285" r="0.285" transform="translate(14.222 28.154)"/><circle class="k" cx="0.285" cy="0.285" r="0.285" transform="translate(13.937 28.012)"/><circle class="k" cx="0.285" cy="0.285" r="0.285" transform="translate(13.652 27.869)"/><path class="l" d="M243.36,610.525a.553.553,0,0,0,.24.08c.071.01.142.018.213.023a2.027,2.027,0,0,1-.211-.219.714.714,0,1,1-.241.115Z" transform="translate(-230.559 -583.156)"/><path class="k" d="M233.2,525h.695a1.434,1.434,0,0,1,1.434,1.434v1.885a.243.243,0,0,1-.243.243H232a.243.243,0,0,1-.243-.243v-1.885A1.434,1.434,0,0,1,233.2,525Z" transform="translate(-218.466 -494.853)"/><g class="j" transform="translate(13.74 24.963)"><path d="M304.832,589.49a1.082,1.082,0,0,1-.092.087.939.939,0,0,0,.1-.009C304.836,589.542,304.835,589.516,304.832,589.49Z" transform="translate(-302.434 -588.423)"/><path d="M297.28,579.647c.072,0,.142-.012.213-.022a.685.685,0,0,0,.185-.05,1.259,1.259,0,0,0-.1-.165.431.431,0,0,1-.115.049A1.647,1.647,0,0,1,297.28,579.647Z" transform="translate(-295.402 -578.921)"/><path d="M264.665,572.223a1.209,1.209,0,0,1,1.864-1.019l.018-.02a1.21,1.21,0,0,0-1.6,1.82A1.2,1.2,0,0,1,264.665,572.223Z" transform="translate(-264.54 -570.885)"/></g><g class="j" transform="translate(15.932 27.228)"><path d="M314.68,613.037c.071,0,.142-.012.213-.022a.554.554,0,0,0,.24-.08.713.713,0,0,1,.287.5.657.657,0,0,0,0-.075.71.71,0,0,0-.287-.574.553.553,0,0,1-.24.08l-.057.007A1.452,1.452,0,0,1,314.68,613.037Z" transform="translate(-313.996 -612.651)"/><path d="M303.472,610.512a.578.578,0,0,1,.071.005c.037-.04.074-.082.111-.123a.711.711,0,0,0-.895.688.487.487,0,0,0,0,.071A.712.712,0,0,1,303.472,610.512Z" transform="translate(-302.76 -610.37)"/></g><g class="j" transform="translate(12.51 27.228)"><path d="M243.833,613.037c-.071,0-.142-.012-.213-.022a.554.554,0,0,1-.24-.08.713.713,0,0,0-.287.5.653.653,0,0,1,0-.075.71.71,0,0,1,.287-.574.553.553,0,0,0,.24.08l.057.007A1.358,1.358,0,0,0,243.833,613.037Z" transform="translate(-243.09 -612.651)"/><path d="M252.552,610.512a.613.613,0,0,0-.072.005c-.037-.04-.073-.082-.111-.123a.711.711,0,0,1,.895.688.487.487,0,0,1,0,.071A.712.712,0,0,0,252.552,610.512Z" transform="translate(-251.838 -610.37)"/></g><path class="h" d="M125.842,683.977h-5.6a.238.238,0,0,1-.238-.238v-2.652a.238.238,0,0,1,.34-.215,5.763,5.763,0,0,0,5.392.012.239.239,0,0,1,.344.213v2.639A.238.238,0,0,1,125.842,683.977Z" transform="translate(-114.551 -649.578)"/><path class="e" d="M125.842,683.977h-5.6a.238.238,0,0,1-.238-.238v-2.652a.238.238,0,0,1,.34-.215,5.763,5.763,0,0,0,5.392.012.239.239,0,0,1,.344.213v2.639A.238.238,0,0,1,125.842,683.977Z" transform="translate(-114.551 -649.578)"/><ellipse class="k" cx="0.332" cy="0.434" rx="0.332" ry="0.434" transform="translate(8.119 31.515)"/><ellipse class="k" cx="0.332" cy="0.434" rx="0.332" ry="0.434" transform="translate(8.119 30.984)"/><ellipse class="k" cx="0.332" cy="0.434" rx="0.332" ry="0.434" transform="translate(8.119 30.453)"/><ellipse class="k" cx="0.332" cy="0.434" rx="0.332" ry="0.434" transform="translate(8.119 29.922)"/><ellipse class="k" cx="0.332" cy="0.434" rx="0.332" ry="0.434" transform="translate(8.119 29.391)"/><ellipse class="k" cx="0.332" cy="0.434" rx="0.332" ry="0.434" transform="translate(8.119 28.86)"/><ellipse class="k" cx="0.332" cy="0.434" rx="0.332" ry="0.434" transform="translate(8.119 28.329)"/><path class="l" d="M147.35,531.429a1.679,1.679,0,0,0,.123-.182l-.872-.143.943.007a1.589,1.589,0,0,0,.03-1.262l-1.265.656,1.167-.86a1.589,1.589,0,1,0-2.625,1.778,1.555,1.555,0,0,0-.181.29l1.131.594-1.2-.407a20.18,20.18,0,0,1,.427,3.642,3.218,3.218,0,0,0,2.328-4.115Z" transform="translate(-137.656 -506.299)"/><path class="m" d="M144.49,590.545a6.316,6.316,0,0,1,.511,3.133,1.589,1.589,0,0,0,2.328-2.15C147.541,591.258,144.49,590.367,144.49,590.545Z" transform="translate(-137.636 -564.432)"/><path class="n" d="M125.842,684.118h-5.6a.238.238,0,0,1-.238-.238v-2.793a.238.238,0,0,1,.34-.215c1.61.764,2.887,1.655,5.392.012a.233.233,0,0,1,.344.213v2.782A.238.238,0,0,1,125.842,684.118Z" transform="translate(-114.551 -649.578)"/><path class="o" d="M712.734,540.254l-8.268,1.094-.414.055-4.042-2.159v-.505l12.632-1.378Z" transform="translate(-659.858 -506.504)"/><path class="p" d="M740.85,556.836l8.957-1.056-.092,1.654-6.977.512Z" transform="translate(-698.355 -523.867)"/><path class="d" d="M729.456,699.707v.543l-.414.057L725,698.145v-.505l3.859,2.065A2.554,2.554,0,0,0,729.456,699.707Z" transform="translate(-684.848 -665.406)"/><path class="k" d="M799.65,566.731l-1.856,8.607a.549.549,0,0,0,.609.661l11.743-1.554a.55.55,0,0,0,.45-.372l2.534-7.64a.551.551,0,0,0-.548-.723l-12.42.59A.551.551,0,0,0,799.65,566.731Z" transform="translate(-753.455 -541.043)"/><ellipse class="g" cx="0.499" cy="0.321" rx="0.499" ry="0.321" transform="translate(51.958 29.293) rotate(-84)"/></g></svg>