<svg xmlns="http://www.w3.org/2000/svg" xmlns:xlink="http://www.w3.org/1999/xlink" width="54.814" height="47.779" viewBox="0 0 54.814 47.779"><defs><style>.a{fill:#6c63ff;}.b{fill:#a8996f;}.c{fill:#eee;opacity:0.69;}.d{fill:url(#a);}.e{fill:url(#b);}.f{fill:#fbbebe;}.g{fill:#616161;}.h,.j{opacity:0.1;}.i{fill:#3f3d56;}.k{fill:#fff;}.l{fill:#ffd037;}.m{fill:#a8a8a8;}.n{opacity:0.2;}.o{fill:none;}</style><linearGradient id="a" x1="0.5" y1="1" x2="0.5" gradientUnits="objectBoundingBox"><stop offset="0" stop-color="gray" stop-opacity="0.251"/><stop offset="0.54" stop-color="gray" stop-opacity="0.122"/><stop offset="1" stop-color="gray" stop-opacity="0.102"/></linearGradient><linearGradient id="b" x1="0.507" y1="1.003" x2="0.507" y2="0" xlink:href="#a"/></defs><g transform="translate(0.003 -50.95)"><ellipse class="a" cx="13.242" cy="1.013" rx="13.242" ry="1.013" transform="translate(16.211 96.704)"/><ellipse class="b" cx="13.242" cy="1.013" rx="13.242" ry="1.013" transform="translate(16.211 96.704)"/><path class="b" d="M159.255,78.448c1.856-1.657,4.777-1.995,7.435-1.861,8.346.414,15.881,4.444,22.4,9a23.487,23.487,0,0,1,6.214,5.7,11.411,11.411,0,0,1-2.143,14.844,22.306,22.306,0,0,1-5.1,3.174,31.414,31.414,0,0,1-10.49,3.182,34.512,34.512,0,0,1-7.942-.308,52.3,52.3,0,0,1-20.574-6.964c-2.648-1.651-5.143-3.7-6.234-6.375a6.115,6.115,0,0,1,2.31-7.637,12.6,12.6,0,0,1,3.764-1.226,25.116,25.116,0,0,0,5.623-1.64c1.8-.858,3.921-2.515,3.566-4.412C157.7,81.891,157.4,80.1,159.255,78.448Z" transform="translate(-142.33 -25.61)"/><path class="c" d="M159.255,78.448c1.856-1.657,4.777-1.995,7.435-1.861,8.346.414,15.881,4.444,22.4,9a23.487,23.487,0,0,1,6.214,5.7,11.411,11.411,0,0,1-2.143,14.844,22.306,22.306,0,0,1-5.1,3.174,31.414,31.414,0,0,1-10.49,3.182,34.512,34.512,0,0,1-7.942-.308,52.3,52.3,0,0,1-20.574-6.964c-2.648-1.651-5.143-3.7-6.234-6.375a6.115,6.115,0,0,1,2.31-7.637,12.6,12.6,0,0,1,3.764-1.226,25.116,25.116,0,0,0,5.623-1.64c1.8-.858,3.921-2.515,3.566-4.412C157.7,81.891,157.4,80.1,159.255,78.448Z" transform="translate(-142.33 -25.61)"/><path class="d" d="M503.573,217.132h0a6.887,6.887,0,0,0-.608-.548c.026-.321.086-1.089.091-1.237.006-.187-.27-.427-.861-.648s-.419.81-.411.9a.7.7,0,0,0,.359.466c.08.033.1.074.1.113l-.019,0a2.31,2.31,0,0,1-.7-.172,3.721,3.721,0,0,0-.18.8v.041a.308.308,0,0,0,.014.139h.041a.451.451,0,0,1-.033.2h0a1.58,1.58,0,0,1-.06.147,4.131,4.131,0,0,1-.028-.444,3.744,3.744,0,0,0-.219-.728,1.018,1.018,0,0,1-.3-.268,1.178,1.178,0,0,0-.5-.374c-.136-.048-.629-.689-.832-.838-.162-.12-.227-.049-.247-.016l-.012.008a.71.71,0,0,1-.161-.344c0-.065.007-.2.019-.37a1.559,1.559,0,0,1,.2.18c.138.153.24.335.39.475a.635.635,0,0,0,.43.188.4.4,0,0,0,.156-.025c.2-.077.329-.321.539-.331.165.008.287.161.422.262a.566.566,0,0,0,.348.12.4.4,0,0,0,.147-.023.314.314,0,0,0,.191-.4c-.11-.232-.485-.18-.645-.382a.158.158,0,0,1-.037-.149.1.1,0,0,1,.1-.071.338.338,0,0,1,.2.1c.078.079.18.18.276.169a.131.131,0,0,0,.078-.015c0-.071.007-.143.01-.214a.746.746,0,0,0,.333.095.39.39,0,0,0,.065,0,.261.261,0,0,0,.232-.256.29.29,0,0,0,.2.066.272.272,0,0,0,.1-.012.29.29,0,0,0,.194-.249.568.568,0,0,0-.152-.359l-.392-.535a.217.217,0,0,1-.06-.155.322.322,0,0,1,.067-.12.418.418,0,0,0-.081-.515.726.726,0,0,0-.522-.173.685.685,0,0,1-.414-.054.471.471,0,0,1-.162-.282c-.083-.315-.088-.646-.146-.966a1.325,1.325,0,0,0-.443-.845.411.411,0,0,0-.205-.09,1.457,1.457,0,0,0-.19.016.7.7,0,0,1-.544-.305,4.842,4.842,0,0,0-.4-.513.966.966,0,0,0-.919-.213c-.14.039-.252.153-.4.159a4.742,4.742,0,0,1-.655-.06,1.81,1.81,0,0,0-.6.013.637.637,0,0,0-.419.311l-.051-.432a7.536,7.536,0,0,0-.153-.881.22.22,0,0,1,.006-.192l.01.009.023-.066a.155.155,0,0,0,0-.05,9.2,9.2,0,0,0-.278-1.2h-.267a.215.215,0,0,0-.007-.038,7.224,7.224,0,0,0-.3-1.244.742.742,0,0,1-.054-.4,3.221,3.221,0,0,0,.013-.475,1.3,1.3,0,0,1,.011-.229.321.321,0,0,0-.128-.3,4.306,4.306,0,0,0-1.7-.867c-.638-.019.2,1.1.19,1.207s.638.2.638.2.038.325.077.507c.026.126.071,1.064.1,1.626a1.786,1.786,0,0,1-.429-.161s-.743-.2-.81,0,.905,1.168.905,1.168a3.1,3.1,0,0,1,.24,1.2,9.032,9.032,0,0,0-.029,1.647s.01,1.617.081,2.03a.8.8,0,0,1-.129.641,4.8,4.8,0,0,0,0,1.111,2.967,2.967,0,0,1,.235.377l.025.046a2.873,2.873,0,0,1-.708.719c-.286.086-2.239.9-2.239.9a4.922,4.922,0,0,1-.734.61c-.1,0,.581.652.581.652s.61.488.677.565,1.737.986,1.737.986.286.086.314.172.41.325.41.325a2.488,2.488,0,0,1,.369.553.129.129,0,0,0,0,.041c0,.06.008.087.011.073.051.14.394.5.229.753-.077.12,0,.335.148.508a1.828,1.828,0,0,1-.156.539c-.114.153-.063.37-.18.4s-.153.587-.153.587l-.1,1.238s-.026.255-.165.319,0,.408,0,.408-.15.293-.06.459-.18.932-.18.932a8.234,8.234,0,0,0,0,1.685,1.676,1.676,0,0,1,.18.651c0,.128.063,2.515.063,2.515s-.153.97-.2,1.149.14.575.013.779a1.511,1.511,0,0,0-.1.664,14.451,14.451,0,0,0-.076,2.464c.114.664-.037.8-.037.8a1.36,1.36,0,0,0,.247.109c0,.025.006.052.009.08a7.789,7.789,0,0,1,.068,1.737,3.5,3.5,0,0,0-.111.872v.039h0l-.222.359a1.15,1.15,0,0,1-.1.368c-.057.051-.535.917-.6,1.029l-.007.012s-.483.888.711.913,1.041-.587,1.041-.587,0-.12.015-.266a1.284,1.284,0,0,1,.087-.455,6.412,6.412,0,0,0,.324-.581v-.7h-.077a.125.125,0,0,1,0-.038,2.654,2.654,0,0,1,.066-.434,2.686,2.686,0,0,0-.083-.626,14.088,14.088,0,0,1,.144-1.684c.005-.029.011-.057.016-.084a2.039,2.039,0,0,0,.257-.134,6.055,6.055,0,0,1,.153-1.532,2.121,2.121,0,0,0,.12-.881,1.887,1.887,0,0,1,.152-.689c.114-.115.087-.626.087-.626s.1-.332.216-.6a5.185,5.185,0,0,0,.18-1.021,1.3,1.3,0,0,1,.18-.371c.128-.18,0-.574,0-.574a.7.7,0,0,1-.05-.511c.089-.256.584-2.324.584-2.324l.191-.74.279.944a6.488,6.488,0,0,0,0,.868,2.71,2.71,0,0,0,.3.6v2a9.762,9.762,0,0,0,.128,1.57,5.041,5.041,0,0,1,.152,1.022,10.5,10.5,0,0,1,.127,2.706,2.067,2.067,0,0,0,.351.192v1.391a4.138,4.138,0,0,0-.164,1.415.22.22,0,0,0,.005.034c-.023.017-.048.031-.063.025l.04.958a2.966,2.966,0,0,1-.091.811,1.155,1.155,0,0,0-.06.3c-.022.379.124.9.958.844,1.111-.071.94-.779.94-.779s0-.028,0-.076a2.886,2.886,0,0,0-.276-1.041,2.62,2.62,0,0,1-.228-1.175.412.412,0,0,1-.068.018.173.173,0,0,1,0-.039c.014-.18.036-.413.06-.522a3.42,3.42,0,0,0,0-.638l.143-1.4.008-.078a1.144,1.144,0,0,0,.2-.12h0a1.432,1.432,0,0,1-.074-.389.344.344,0,0,1,.074-.246,11.884,11.884,0,0,0,.279-2.247s.09-.732.09-.98v-.044c-.01-.149-.089-.733-.088-1.074a.674.674,0,0,1,.025-.213c.076-.192.18-3.792.18-3.792l.127-1.6v-1.31a7.731,7.731,0,0,0-.227-1.862c.347.181.94.59,1.048.481a13.4,13.4,0,0,0,.162-2.662.24.24,0,0,0-.009-.047c-.009-.042-.022-.1-.038-.164l.053-.092a8.012,8.012,0,0,0,.69-1.377,9.1,9.1,0,0,1,.173-1.134.517.517,0,0,1,.026-.064h0c.023-.047.048-.073.077-.066.162.038.267.163.353.115a.043.043,0,0,0,.011-.01h0a.143.143,0,0,0,.022-.031h0a.3.3,0,0,0,.02-.044h0c.006-.016.011-.033.017-.052v-.005a.109.109,0,0,1,.006-.023.042.042,0,0,0,0-.008.085.085,0,0,1,0-.02l0-.015v-.008c.015-.068.026-.138.034-.187a.251.251,0,0,1,.006-.044v-.024Z" transform="translate(-469.975 -143.938)"/><path class="e" d="M559.273,489.1a.2.2,0,0,0-.013-.107C559.264,489.076,559.269,489.116,559.273,489.1Z" transform="translate(-534.295 -413.341)"/><path class="f" d="M673.423,410.756s.226-.155.005-.246a.7.7,0,0,1-.359-.464c-.008-.092-.18-1.117.411-.9s.867.458.861.644-.1,1.371-.1,1.371Z" transform="translate(-641.261 -338.253)"/><path class="g" d="M666.718,432.452a.353.353,0,0,1-.009.068c-.017.12-.06.367-.125.4-.086.048-.19-.076-.353-.114-.029-.007-.054.019-.077.066a.557.557,0,0,0-.026.063,9.045,9.045,0,0,0-.173,1.129,7.957,7.957,0,0,1-.69,1.372c-.039.068-.075.129-.107.18l-.12.2-.659-1.235V432.76a1.624,1.624,0,0,0,.12-.252h0a.445.445,0,0,0,.033-.2.1.1,0,0,0-.028-.06.073.073,0,0,1-.013-.019.1.1,0,0,1-.006-.016.2.2,0,0,1-.008-.047v-.039a3.7,3.7,0,0,1,.18-.794,2.228,2.228,0,0,0,.7.171C665.848,431.558,666.718,432.452,666.718,432.452Z" transform="translate(-633.12 -359.134)"/><path class="h" d="M668.24,433.751c-.017.12-.06.366-.125.4-.086.048-.19-.076-.353-.114-.029-.007-.054.019-.077.066a.563.563,0,0,0-.026.063,4.891,4.891,0,0,1-.935-.529c-.037-.081-.434-.1-.659-.1h-.041a.3.3,0,0,1-.014-.138,4.153,4.153,0,0,1,.18-.757,2.227,2.227,0,0,0,.7.171C667.354,432.864,668.149,433.659,668.24,433.751Z" transform="translate(-634.651 -360.366)"/><path class="g" d="M668.307,432.424s-.048.422-.134.469-.19-.076-.353-.114c-.029-.007-.054.018-.077.065a4.956,4.956,0,0,1-.958-.542c-.033-.083-.486-.1-.7-.1-.078-.164.165-.9.165-.9a2.235,2.235,0,0,0,.7.172C667.442,431.529,668.307,432.424,668.307,432.424Z" transform="translate(-634.709 -359.106)"/><path class="g" d="M632.683,416.688c-.134.134-1-.514-1.238-.553s-1.1-3.658-1.1-3.658l.13-2.04-.507-1.877-.066-.246s.05-.15.254,0,.7.788.832.835a1.193,1.193,0,0,1,.5.372,1.009,1.009,0,0,0,.3.267,3.719,3.719,0,0,1,.219.724,4.124,4.124,0,0,0,.18,1.2,3.805,3.805,0,0,1,.276.867s.315,1.1.381,1.411a.438.438,0,0,1,.009.047A13.042,13.042,0,0,1,632.683,416.688Z" transform="translate(-600.705 -337.436)"/><path class="h" d="M645.712,473.33l.629.168s.12,1.086.164,1.144.2,2.286.2,2.286l-.991-.448-.372-1.2v-1.325Z" transform="translate(-615.22 -398.619)"/><path class="f" d="M551.328,764.235a2.115,2.115,0,0,0-.09.359,13.567,13.567,0,0,0-.144,1.677,2.693,2.693,0,0,1,.083.623,2.607,2.607,0,0,0-.067.432c-.01.093-.016.165-.016.165l-1.163-.076s0-.069,0-.174a3.548,3.548,0,0,1,.111-.867,7.808,7.808,0,0,0-.068-1.731c-.026-.24-.047-.4-.047-.4S551.524,763.724,551.328,764.235Z" transform="translate(-525.524 -671.891)"/><path class="f" d="M627.376,764.539l-.143,1.391a3.394,3.394,0,0,1,0,.635c-.022.108-.044.34-.06.519-.011.136-.018.243-.018.243s-.889.623-1.092.076a.966.966,0,0,1-.05-.2,4.1,4.1,0,0,1,.164-1.409V764l1.232.2Z" transform="translate(-597.033 -671.882)"/><path class="h" d="M551.375,764.232a2.126,2.126,0,0,0-.09.359,1.774,1.774,0,0,1-1.258.047c-.026-.24-.047-.4-.047-.4S551.57,763.722,551.375,764.232Z" transform="translate(-525.571 -671.888)"/><path class="h" d="M630.292,764.182l-.035.337a1.468,1.468,0,0,1-1.2-.06v-.479Z" transform="translate(-599.915 -671.864)"/><path class="i" d="M547.657,506.21a3.726,3.726,0,0,1-.216.9c-.114.153-.063.368-.18.393s-.153.584-.153.584l-.1,1.232s-.026.254-.165.317,0,.407,0,.407-.15.292-.06.458-.18.927-.18.927a8.148,8.148,0,0,0,0,1.677,1.666,1.666,0,0,1,.18.648c0,.127.063,2.5.063,2.5s-.153.966-.2,1.144.14.571.013.775a1.493,1.493,0,0,0-.1.659,14.151,14.151,0,0,0-.082,2.452c.114.659-.037.8-.037.8a1.778,1.778,0,0,0,1.789-.076,6,6,0,0,1,.153-1.525,2.138,2.138,0,0,0,.128-.876,1.871,1.871,0,0,1,.152-.686c.114-.114.087-.621.087-.621s.1-.331.216-.6a5.182,5.182,0,0,0,.18-1.018,1.281,1.281,0,0,1,.18-.369c.128-.18,0-.571,0-.571a.694.694,0,0,1-.05-.508c.089-.254.584-2.312.584-2.312l.191-.737.279.94a6.429,6.429,0,0,0,0,.864,2.742,2.742,0,0,0,.3.6v1.995a9.666,9.666,0,0,0,.128,1.562,5,5,0,0,1,.152,1.018,10.407,10.407,0,0,1,.127,2.695,1.627,1.627,0,0,0,1.753.127s-.165-.47,0-.635a11.775,11.775,0,0,0,.279-2.236s.1-.826.089-1.018a6.226,6.226,0,0,1-.063-1.283c.076-.19.18-3.773.18-3.773l.127-1.588v-1.3a7.633,7.633,0,0,0-.287-2.08c-.215-.758-.513-1.626-.763-1.681C552.349,506.4,548.407,506.833,547.657,506.21Z" transform="translate(-522.243 -429.53)"/><path class="h" d="M551.109,814.926c-.01.093-.016.165-.016.165l-1.163-.076s0-.069,0-.174a.788.788,0,0,1,1.089.086Z" transform="translate(-525.524 -719.495)"/><path class="i" d="M535.114,815.581v.705a5.653,5.653,0,0,1-.324.578,1.264,1.264,0,0,0-.087.453c-.011.144-.015.265-.015.265s.153.61-1.041.584-.711-.908-.711-.908l.007-.011c.06-.111.543-.976.6-1.024a1.168,1.168,0,0,0,.1-.366l.222-.359a.789.789,0,0,1,1.093.083Z" transform="translate(-509.457 -720.11)"/><path class="h" d="M534.689,848.143s.153.61-1.041.584-.711-.906-.711-.906l.007-.011c.033.18.174.366.622.342a2.752,2.752,0,0,0,1.138-.271C534.692,848.022,534.689,848.143,534.689,848.143Z" transform="translate(-509.457 -750.673)"/><path class="h" d="M627.481,813.711c-.011.136-.018.243-.018.243s-.889.623-1.092.076a.965.965,0,0,1-.05-.2.492.492,0,0,0,.05-.043,1.073,1.073,0,0,1,.958-.12C627.352,813.721,627.425,813.721,627.481,813.711Z" transform="translate(-597.339 -718.511)"/><path class="i" d="M624.489,817.417c-.838.053-.983-.463-.958-.838a1.139,1.139,0,0,1,.06-.3,2.941,2.941,0,0,0,.091-.808l-.04-.953c.032.013.108-.063.108-.063a1.073,1.073,0,0,1,.958-.12c.038.1.216.033.216.033a2.592,2.592,0,0,0,.228,1.168,2.868,2.868,0,0,1,.275,1.036c0,.048,0,.075,0,.075S625.6,817.347,624.489,817.417Z" transform="translate(-594.715 -719.141)"/><path class="h" d="M624.489,853.519c-.838.053-.983-.463-.958-.838,0,0,.217.369.992.281a2.172,2.172,0,0,0,.9-.292c0,.048,0,.075,0,.075S625.6,853.449,624.489,853.519Z" transform="translate(-594.715 -755.242)"/><g class="j" transform="translate(29.759 76.868)"><path d="M640.19,510.292c-.172-.491-.359-.9-.529-.932l-.152.016a2,2,0,0,1,.49.917,9.5,9.5,0,0,1,.521,3.128v1l-.127,1.588s-.1,3.582-.18,3.773a6.115,6.115,0,0,0,.063,1.283c.013.191-.089,1.018-.089,1.018a11.812,11.812,0,0,1-.279,2.235c-.165.165,0,.635,0,.635a1.138,1.138,0,0,1-.6.221,1.166,1.166,0,0,0,.791-.221s-.165-.47,0-.635a11.769,11.769,0,0,0,.279-2.235s.1-.826.089-1.018a6.241,6.241,0,0,1-.063-1.283c.076-.19.18-3.773.18-3.773l.127-1.588v-1A9.5,9.5,0,0,0,640.19,510.292Z" transform="translate(-639.31 -509.36)"/></g><g class="j" transform="translate(24.201 76.68)"><path d="M546.739,522.09s.151-.14.037-.8a14.3,14.3,0,0,1,.076-2.452,1.49,1.49,0,0,1,.1-.659c.127-.2-.063-.6-.013-.775s.2-1.144.2-1.144-.065-2.377-.065-2.5a1.662,1.662,0,0,0-.18-.647,8.148,8.148,0,0,1,0-1.677s.266-.762.18-.927.06-.458.06-.458-.14-.343,0-.407.165-.317.165-.317l.1-1.232s.038-.559.153-.584.063-.24.18-.393a2.863,2.863,0,0,0,.2-.783.792.792,0,0,1-.211-.12,3.73,3.73,0,0,1-.216.9c-.114.153-.063.368-.18.393s-.152.584-.152.584l-.1,1.233s-.026.254-.165.317,0,.407,0,.407-.15.292-.06.458-.18.927-.18.927a8.147,8.147,0,0,0,0,1.677,1.662,1.662,0,0,1,.18.647c0,.128.063,2.5.063,2.5s-.153.966-.2,1.144.14.571.013.775a1.493,1.493,0,0,0-.1.659,14.281,14.281,0,0,0-.078,2.453c.114.659-.037.8-.037.8a1.751,1.751,0,0,0,.943.2A1.705,1.705,0,0,1,546.739,522.09Z" transform="translate(-546.51 -506.21)"/></g><path class="i" d="M572.438,304.245a4.733,4.733,0,0,1,.4.511.7.7,0,0,0,.544.3,1.454,1.454,0,0,1,.19-.016.411.411,0,0,1,.205.09,1.314,1.314,0,0,1,.443.838c.058.317.06.648.146.962a.48.48,0,0,0,.162.281.7.7,0,0,0,.414.053.731.731,0,0,1,.522.172.415.415,0,0,1,.081.513.312.312,0,0,0-.067.116.215.215,0,0,0,.06.154l.392.533a.568.568,0,0,1,.151.359.282.282,0,0,1-.5.161c.043.132-.088.269-.226.287a.725.725,0,0,1-.4-.1l-.01.226c-.115.06-.237-.06-.328-.153s-.28-.147-.324-.025a.158.158,0,0,0,.037.148c.16.2.535.149.645.38a.311.311,0,0,1-.191.4.523.523,0,0,1-.468-.1c-.134-.1-.264-.263-.438-.262-.217,0-.347.252-.55.33a.562.562,0,0,1-.559-.162c-.149-.14-.253-.322-.39-.474a3.117,3.117,0,0,0-1.392-.713,2.181,2.181,0,0,1-1.289-.855,3.5,3.5,0,0,0-.228-.429c-.169-.22-.453-.323-.638-.53a.819.819,0,0,1-.125-.875,2.928,2.928,0,0,1,.365-.492,1.655,1.655,0,0,0,.325-.971,1.231,1.231,0,0,1,.028-.393.612.612,0,0,1,.444-.365,1.824,1.824,0,0,1,.6-.014,5.494,5.494,0,0,0,.655.06c.145-.007.256-.12.4-.158A.968.968,0,0,1,572.438,304.245Z" transform="translate(-543.11 -239.428)"/><g class="j" transform="translate(25.552 65.994)"><path d="M658.3,328.17c.06.319.06.648.147.961a.607.607,0,0,0,.1.216c-.007-.021-.014-.043-.019-.063-.083-.314-.088-.643-.146-.962a1.711,1.711,0,0,0-.192-.552A1.9,1.9,0,0,1,658.3,328.17Z" transform="translate(-652.844 -327.77)"/><path d="M681.187,362.707a.308.308,0,0,0-.068.12.213.213,0,0,0,.06.153l.016.021a.1.1,0,0,1,0-.022.313.313,0,0,1,.068-.116.406.406,0,0,0-.037-.462A.369.369,0,0,1,681.187,362.707Z" transform="translate(-674.409 -360.326)"/><path d="M590.017,373.626a.328.328,0,0,1-.212.323.523.523,0,0,1-.468-.1c-.134-.1-.264-.262-.438-.261-.218,0-.347.252-.551.329a.56.56,0,0,1-.559-.162c-.149-.14-.253-.322-.39-.473a3.117,3.117,0,0,0-1.393-.714,2.179,2.179,0,0,1-1.287-.852c.023.051.047.1.074.15a2.18,2.18,0,0,0,1.289.855,3.118,3.118,0,0,1,1.393.713c.138.152.24.334.39.474a.562.562,0,0,0,.559.162c.2-.078.333-.328.551-.33.174,0,.3.158.438.262a.5.5,0,0,0,.468.1.312.312,0,0,0,.192-.4A.28.28,0,0,0,590.017,373.626Z" transform="translate(-583.783 -369.088)"/><path d="M663.124,384.87a.328.328,0,0,1,.017.123.282.282,0,0,1-.5.162c.043.132-.088.269-.226.287a.72.72,0,0,1-.4-.1c0,.075-.007.15-.01.225-.115.06-.24-.06-.328-.153s-.28-.148-.325-.025a.158.158,0,0,0,.037.148.305.305,0,0,0,.033.035.11.11,0,0,1,.006-.031c.044-.12.233-.067.325.025s.213.214.328.153c0-.075.007-.15.01-.226a.753.753,0,0,0,.4.1c.138-.016.268-.155.225-.287a.282.282,0,0,0,.5-.161.451.451,0,0,0-.093-.275Z" transform="translate(-655.828 -381.451)"/><path d="M569.777,354.732c-.168-.22-.453-.323-.637-.53a.7.7,0,0,1-.07-.092.761.761,0,0,0,.146.245c.184.207.469.31.637.53a.809.809,0,0,1,.064.1A1.353,1.353,0,0,0,569.777,354.732Z" transform="translate(-569.07 -352.533)"/></g><path class="f" d="M590.044,362.39s.14,1.55-.5,2.019,1.359,1.753,1.359,1.753l1.512-.331s-.737-.686-.737-.978a7.124,7.124,0,0,1,.331-2.122C592.217,362.542,590.044,362.39,590.044,362.39Z" transform="translate(-562.652 -294.323)"/><path class="g" d="M533.978,266.621l-.346.755s-.515.305-.553.334-.448.5-.448.5l-1.01.648-.06-.111a3.022,3.022,0,0,0-.235-.375,4.748,4.748,0,0,1,0-1.1.792.792,0,0,0,.129-.638c-.071-.41-.081-2.02-.081-2.02a8.842,8.842,0,0,1,.029-1.639,3.044,3.044,0,0,0-.24-1.191s-.971-.965-.9-1.165.81,0,.81,0a1.676,1.676,0,0,0,.447.162c.092.005.585.008.963.008h.447a8.222,8.222,0,0,1,.277,1.21l-.023.066c-.031.088-.054.166-.016.22a7.5,7.5,0,0,1,.153.877l.1.877a7.572,7.572,0,0,1,.152.781c-.01.1-.248.3-.143.476a2.643,2.643,0,0,1,.144.734,2.086,2.086,0,0,0,.348.56A.292.292,0,0,0,533.978,266.621Z" transform="translate(-507.028 -198.553)"/><circle class="h" cx="1.829" cy="1.829" r="1.829" transform="translate(26.728 65.439)"/><circle class="f" cx="1.829" cy="1.829" r="1.829" transform="translate(26.728 65.363)"/><path class="k" d="M563.189,389.171a5.532,5.532,0,0,0-.105,2.071c.1.154-.492.458-.835.444a6.451,6.451,0,0,0-1.282.28s-1.881-.508-2.276-.254-.953-.458-.787-.711-.18-.61-.229-.749a1.125,1.125,0,0,1-.02-.18h0c-.046-.64-.094-2.689-.094-2.689V385.03l1.728-1.22a8.29,8.29,0,0,1,.8.464,3.921,3.921,0,0,1,.519.4,6.952,6.952,0,0,0,1.639.915s1.283,1.537,1.448,1.69S563.353,388.993,563.189,389.171Z" transform="translate(-532.697 -314.46)"/><path class="h" d="M557.57,411.663V409.64s.053,3.685.094,4.712C557.618,413.712,557.57,411.663,557.57,411.663Z" transform="translate(-532.706 -338.743)"/><path class="h" d="M559.26,490.86a.2.2,0,0,1,.013.107C559.269,490.985,559.264,490.945,559.26,490.86Z" transform="translate(-534.295 -415.099)"/><path class="h" d="M560.111,384.928a1.552,1.552,0,0,0-.276.39c-.1.21-2.265.038-2.265.038v-.327l1.728-1.22a8.284,8.284,0,0,1,.8.464C560.111,384.632,560.111,384.928,560.111,384.928Z" transform="translate(-532.706 -314.46)"/><path class="h" d="M559.26,488.31a.2.2,0,0,1,.013.107C559.269,488.435,559.264,488.4,559.26,488.31Z" transform="translate(-534.295 -412.702)"/><path class="h" d="M554.476,361.751l-.346.755s-.515.305-.553.334-.448.5-.448.5l-1.01.648-.06-.111a7.036,7.036,0,0,1,.719-.813c.324-.247-.01-.276,0-.324s.715-.3.905-.486a8,8,0,0,1,.739-.539A.293.293,0,0,0,554.476,361.751Z" transform="translate(-527.526 -293.684)"/><path class="g" d="M496.947,362.39a8.627,8.627,0,0,0-.793.571c-.19.181-.9.438-.905.486s.324.076,0,.324-1.114,1.41-1.4,1.5-2.238.9-2.238.9a4.959,4.959,0,0,1-.734.6c-.1,0,.581.648.581.648s.61.486.677.562,1.735.978,1.735.978.286.086.314.171.41.324.41.324.426.489.384.664-.114-4.97-.114-4.97,2.17.171,2.265-.038a1.552,1.552,0,0,1,.276-.39,10.651,10.651,0,0,0-.128-1.893C497.155,362.69,496.95,362.552,496.947,362.39Z" transform="translate(-469.997 -294.323)"/><path class="h" d="M508.2,409.8a4.169,4.169,0,0,0,.838.724.722.722,0,0,1,.371.381,2.181,2.181,0,0,0,.486.21,1.2,1.2,0,0,1,.429.286s.638.18.638.314.257.315.257.315l-.064-3.659s-1.061.133-1.365.581S508.2,409.8,508.2,409.8Z" transform="translate(-486.293 -337.549)"/><path class="h" d="M529,410.473c.048-.029,1.349-1.7,1.349-1.7l.24-.049a9.584,9.584,0,0,0-.608,1A7.708,7.708,0,0,1,529,410.473Z" transform="translate(-505.847 -337.878)"/><path class="h" d="M538.11,416.523s.343-.791.438-.925.608-1.029.608-1.029a.6.6,0,0,1,0,.229C539.129,414.884,538.11,416.523,538.11,416.523Z" transform="translate(-514.412 -343.378)"/><path class="h" d="M565.47,348.7a9.737,9.737,0,0,0-.7,1.458A9.751,9.751,0,0,0,565.47,348.7Z" transform="translate(-539.475 -281.453)"/><path class="h" d="M571.875,357.93a9.192,9.192,0,0,0-.572.907A9.181,9.181,0,0,0,571.875,357.93Z" transform="translate(-545.613 -290.13)"/><path class="f" d="M532.743,209.731l-1.2.086s0-.039,0-.106c-.017-.4-.077-1.779-.11-1.933-.038-.18-.077-.5-.077-.5s-.648-.1-.638-.2-.829-1.22-.19-1.2a4.321,4.321,0,0,1,1.7.862.32.32,0,0,1,.128.3,1.278,1.278,0,0,0-.011.228,3.2,3.2,0,0,1-.013.473.725.725,0,0,0,.054.4,7.524,7.524,0,0,1,.3,1.238C532.718,209.579,532.743,209.731,532.743,209.731Z" transform="translate(-507.053 -147.18)"/><path class="h" d="M548.438,266.691l-.023.065a6.368,6.368,0,0,0-1.892-.423c-.143-.166-.015-.24.138-.443a3.339,3.339,0,0,1,1.053-.41h.447A8.233,8.233,0,0,1,548.438,266.691Z" transform="translate(-522.262 -203.216)"/><path class="h" d="M552.445,264.573l-1.2.086s0-.039,0-.106a5.228,5.228,0,0,1,.967-.343h.174C552.42,264.421,552.445,264.573,552.445,264.573Z" transform="translate(-526.755 -202.022)"/><path class="g" d="M548.438,266.051l-.023.066a6.353,6.353,0,0,0-1.892-.423c-.143-.167-.015-.24.138-.443a3.337,3.337,0,0,1,1.053-.411h.447A8.233,8.233,0,0,1,548.438,266.051Z" transform="translate(-522.262 -202.615)"/><path class="h" d="M595.888,442.57a18.026,18.026,0,0,0,0,2.687A18.026,18.026,0,0,0,595.888,442.57Z" transform="translate(-568.674 -369.701)"/><path class="h" d="M612.236,460.55s-.048,2.821,0,2.849S612.236,460.55,612.236,460.55Z" transform="translate(-584.078 -386.605)"/><path class="h" d="M631,466.12a9.443,9.443,0,0,0,.343,2.02A9.44,9.44,0,0,0,631,466.12Z" transform="translate(-601.739 -391.841)"/><path class="h" d="M632.214,414.6a.4.4,0,0,1-.153-.06c-.162-.1-.343-1.229-.581-1.382a11.4,11.4,0,0,1-1.1-1.649,7.868,7.868,0,0,0-.467-.753c-.134-.154-.066-.838-.066-.838a3.731,3.731,0,0,1-.505-.753.683.683,0,0,1-.066-.245s.051-.15.254,0,.7.788.832.835a1.2,1.2,0,0,1,.5.372,1.03,1.03,0,0,0,.3.267,3.71,3.71,0,0,1,.219.724,4.1,4.1,0,0,0,.18,1.2,3.785,3.785,0,0,1,.276.867S632.148,414.287,632.214,414.6Z" transform="translate(-600.122 -338.005)"/><path class="h" d="M666.05,444.64v-.04a.37.37,0,0,1,.01.086A.2.2,0,0,1,666.05,444.64Z" transform="translate(-634.69 -371.61)"/><path class="h" d="M665.321,453.874c-.039.068-.075.129-.107.18-.157-.162-.335-1.221-.565-1.368a1.076,1.076,0,0,1-.21-.235v-1.258a1.619,1.619,0,0,0,.12-.252,2.826,2.826,0,0,0,.167.905,3.718,3.718,0,0,1,.276.867S665.208,453.434,665.321,453.874Z" transform="translate(-633.176 -377.57)"/><path class="g" d="M632.854,413.964a.375.375,0,0,1-.153-.06c-.162-.1-.343-1.229-.582-1.382a11.368,11.368,0,0,1-1.1-1.648,7.868,7.868,0,0,0-.467-.753c-.134-.154-.066-.838-.066-.838a3.75,3.75,0,0,1-.505-.753.689.689,0,0,1-.066-.246s.05-.15.254,0,.7.788.832.835a1.192,1.192,0,0,1,.5.372,1.009,1.009,0,0,0,.3.266,3.726,3.726,0,0,1,.219.724,4.124,4.124,0,0,0,.18,1.2,3.807,3.807,0,0,1,.276.867S632.788,413.651,632.854,413.964Z" transform="translate(-600.724 -337.407)"/><circle class="i" cx="0.129" cy="0.129" r="0.129" transform="translate(30.058 72.741)"/><circle class="i" cx="0.129" cy="0.129" r="0.129" transform="translate(30.904 73.898)"/><path class="h" d="M668.608,453.451s-.62-.283-.525-.131S668.608,453.451,668.608,453.451Z" transform="translate(-636.593 -379.766)"/><path class="h" d="M668.924,461.489s-.629-.171-.5-.071A1.012,1.012,0,0,0,668.924,461.489Z" transform="translate(-636.908 -387.391)"/><path class="h" d="M669.915,467.188s-.429-.31-.324-.2A1.009,1.009,0,0,0,669.915,467.188Z" transform="translate(-638.004 -392.637)"/><path class="h" d="M678.26,476.14s-.437.86-.228.916S678.26,476.14,678.26,476.14Z" transform="translate(-645.901 -401.261)"/><path class="h" d="M566.784,711.77s-1,.953-.711.94S566.784,711.77,566.784,711.77Z" transform="translate(-540.65 -622.78)"/><path class="h" d="M555.24,731.314c.051,0,1.067-.1.8-.153A2.111,2.111,0,0,0,555.24,731.314Z" transform="translate(-530.516 -641.003)"/><path class="h" d="M637.76,709.23s1.078.038,1.055.152S637.76,709.23,637.76,709.23Z" transform="translate(-608.094 -620.392)"/><path class="h" d="M634.79,716.44s.622.47.762.317S634.79,716.44,634.79,716.44Z" transform="translate(-605.302 -627.171)"/><path class="f" d="M566.618,595.193a.316.316,0,0,1-.039.1.1.1,0,0,1-.028.029,1.713,1.713,0,0,1-.508.24c-.023-.006-.114-.034-.214-.06-.117-.034-.246-.071-.295-.077s-.077-.084-.084-.159,0-.134.032-.146a.075.075,0,0,0,.027-.04.473.473,0,0,0,.017-.053l0-.018c.017-.069.031-.158.04-.23.005-.039.009-.074.012-.1v-.028h0v0l.084,0h.08a4.947,4.947,0,0,1,.726.007.2.2,0,0,1,.132.152.7.7,0,0,1,.03.172A.764.764,0,0,1,566.618,595.193Z" transform="translate(-540.112 -512.657)"/><path class="f" d="M629.915,599.686a.087.087,0,0,0,0,.013c0,.13-.009.228-.009.244a6.366,6.366,0,0,1-1.651.381c-.217-.017-.056-.165.065-.319a.5.5,0,0,0,.1-.162.12.12,0,0,0,0-.065c-.007-.024-.013-.046-.017-.065h0c-.031-.137-.016-.18.017-.213a.256.256,0,0,0,.044-.082.329.329,0,0,0,.018-.085.257.257,0,0,0-.049-.184c-.1-.135.381-.208.381-.208h.918c.09,0,.138.127.162.291a.02.02,0,0,0,0,.005c.007.048.012.1.015.151s.005.1.006.146S629.915,599.637,629.915,599.686Z" transform="translate(-599.058 -516.707)"/><path class="f" d="M576.188,668.743a7.409,7.409,0,0,1-.914.18c.039-.025.048-.107.044-.2a1.328,1.328,0,0,0-.012-.138c-.013-.106-.032-.195-.032-.195a2.533,2.533,0,0,1,.724-.063.227.227,0,0,1,.143.153c0,.007.006.014.008.021A.872.872,0,0,1,576.188,668.743Z" transform="translate(-549.343 -581.925)"/><path class="h" d="M589.62,315.322a4.4,4.4,0,0,0,.4-.193.545.545,0,0,1,.426-.042.68.68,0,0,1,.187.131c.12.106.24.212.352.325a2.068,2.068,0,0,0,.367.328,1.589,1.589,0,0,0,1.078.092.664.664,0,0,0,.213-.06.441.441,0,0,0,.184-.476,1.067,1.067,0,0,0-.274-.466,3.833,3.833,0,0,0-1.25-.925,1.954,1.954,0,0,0-1.607-.114,1.746,1.746,0,0,0-.419.286c-.175.156-.627.552-.527.819C588.856,315.328,589.359,315.41,589.62,315.322Z" transform="translate(-562.002 -248.637)"/><path class="i" d="M589.62,314.689a4.257,4.257,0,0,0,.4-.193.547.547,0,0,1,.426-.042.705.705,0,0,1,.187.131c.12.106.24.212.352.325a2.043,2.043,0,0,0,.367.328,1.589,1.589,0,0,0,1.078.092.649.649,0,0,0,.213-.06.441.441,0,0,0,.184-.476,1.067,1.067,0,0,0-.274-.466,3.823,3.823,0,0,0-1.25-.924,1.956,1.956,0,0,0-1.607-.115,1.761,1.761,0,0,0-.419.286c-.175.156-.627.552-.527.82C588.856,314.7,589.359,314.777,589.62,314.689Z" transform="translate(-562.002 -248.042)"/><path class="h" d="M592.6,332.563a.643.643,0,0,1-.212.06,1.579,1.579,0,0,1-1.078-.092,2.067,2.067,0,0,1-.369-.331c-.113-.114-.233-.219-.352-.325a.7.7,0,0,0-.187-.132.546.546,0,0,0-.427.043,4.231,4.231,0,0,1-.4.193c-.26.087-.764.005-.876-.295a.219.219,0,0,1-.011-.045.248.248,0,0,0,.011.12c.113.3.616.382.876.295a4.318,4.318,0,0,0,.4-.193.546.546,0,0,1,.427-.042.679.679,0,0,1,.187.131c.12.106.24.212.352.325a2.07,2.07,0,0,0,.367.328,1.588,1.588,0,0,0,1.078.092.657.657,0,0,0,.212-.06.426.426,0,0,0,.193-.411A.4.4,0,0,1,592.6,332.563Z" transform="translate(-561.966 -265.414)"/><path class="h" d="M566.816,595.434a2.479,2.479,0,0,1-.066.341,2.861,2.861,0,0,0,.06-.345Z" transform="translate(-541.337 -513.407)"/><path class="h" d="M566.555,595.321a1.712,1.712,0,0,1-.508.24c-.051-.014-.419-.127-.509-.14s-.113-.28-.052-.3a.075.075,0,0,0,.027-.04.519.519,0,0,1-.022.053.265.265,0,0,0,.06.28l.528.137.5-.272c.12-.165-.014-.544-.083-.606a4.223,4.223,0,0,0-.884,0l-.018-.017h0v0l.084,0h.08a4.928,4.928,0,0,1,.726.007C566.682,594.685,566.682,595.232,566.555,595.321Z" transform="translate(-540.116 -512.657)"/><path class="h" d="M629.722,598.92H628.8s-.483.072-.381.208a.307.307,0,0,1-.014.351c-.037.038-.052.089,0,.28s-.493.521-.164.546a6.388,6.388,0,0,0,1.651-.381C629.9,599.873,629.967,598.92,629.722,598.92Zm.124.986a6.018,6.018,0,0,1-1.557.359c-.312-.023.2-.335.154-.514s-.035-.228,0-.264a.289.289,0,0,0,.013-.331c-.1-.128.359-.2.359-.2h.865C629.913,598.96,629.846,599.858,629.846,599.906Z" transform="translate(-599.049 -516.688)"/><path class="h" d="M576,668.3a2.533,2.533,0,0,0-.724.063s.1.47,0,.534a6.745,6.745,0,0,0,.915-.18S576.193,668.346,576,668.3Zm-.708.587c.1-.06,0-.516,0-.516a2.417,2.417,0,0,1,.7-.06c.184.05.184.4.184.4a6.5,6.5,0,0,1-.883.171Z" transform="translate(-549.347 -581.897)"/><path class="h" d="M633.883,606.555l-1.513.18h0l1.507-.325C633.88,606.457,633.883,606.505,633.883,606.555Z" transform="translate(-603.027 -523.73)"/><path class="i" d="M489.81,580.308l1.572-.338.034.147Z" transform="translate(-460.481 -497.339)"/><path class="h" d="M632.6,611.39a.086.086,0,0,0,0,.013l-1.6.307a.5.5,0,0,0,.1-.162Z" transform="translate(-601.739 -528.411)"/><path class="i" d="M485.81,585.081l1.916-.2-1.865.359Z" transform="translate(-456.72 -501.955)"/><path class="h" d="M634.811,603.78l-1.413.1a.33.33,0,0,1-.019.085l1.432-.18Z" transform="translate(-603.976 -521.257)"/><path class="i" d="M489.434,577.534l1.606-.114-1.629.2Z" transform="translate(-460.105 -494.942)"/><path class="h" d="M567.937,597.244l-1.107.036c.017-.069.031-.157.04-.23l1.037.022A.7.7,0,0,1,567.937,597.244Z" transform="translate(-541.412 -514.93)"/><path class="i" d="M423.12,570.76l1.51.032-.184.161L423.12,571Z" transform="translate(-397.784 -488.681)"/><path class="h" d="M566.658,604a.316.316,0,0,1-.039.1l-.75.208c-.117-.034-.246-.071-.295-.077s-.077-.084-.084-.159Z" transform="translate(-540.152 -521.464)"/><path class="i" d="M419.81,577.522l1.759-.1-1.613.447Z" transform="translate(-394.673 -494.942)"/><path class="h" d="M576.773,671.081l-.831.222a1.329,1.329,0,0,0-.012-.138c.232-.031.618-.078.835-.1A.222.222,0,0,1,576.773,671.081Z" transform="translate(-549.967 -584.508)"/><path class="i" d="M572.74,670.242c.032-.013,1.188-.152,1.188-.152l-1.188.317Z" transform="translate(-546.968 -583.596)"/><circle class="a" cx="1.295" cy="1.295" r="1.295" transform="translate(43.259 52.311)"/><circle class="a" cx="1.019" cy="1.019" r="1.019" transform="translate(49.285 55.761)"/><circle class="b" cx="1.295" cy="1.295" r="1.295" transform="translate(43.259 52.311)"/><circle class="b" cx="1.295" cy="1.295" r="1.295" transform="translate(38.656 73.244) rotate(-135)"/><circle class="b" cx="1.295" cy="1.295" r="1.295" transform="translate(21.385 75.847) rotate(150)"/><circle class="b" cx="1.019" cy="1.019" r="1.019" transform="translate(49.285 55.761)"/><circle class="b" cx="1.019" cy="1.019" r="1.019" transform="translate(36.834 66.544) rotate(-135)"/><circle class="b" cx="1.019" cy="1.019" r="1.019" transform="translate(14.441 75.872) rotate(150)"/><circle class="a" cx="3.269" cy="3.269" r="3.269" transform="translate(4.609 53.511)"/><circle class="b" cx="3.269" cy="3.269" r="3.269" transform="translate(4.609 53.511)"/><circle class="a" cx="0.359" cy="0.359" r="0.359" transform="translate(49.644 51.872)"/><circle class="b" cx="0.359" cy="0.359" r="0.359" transform="translate(49.644 51.872)"/><circle class="b" cx="0.359" cy="0.359" r="0.359" transform="translate(33.83 69.04) rotate(-135)"/><circle class="b" cx="0.359" cy="0.359" r="0.359" transform="translate(16.076 79.42) rotate(150)"/><path class="b" d="M444.92,788s.372.487-.172,1.222-.993,1.356-.811,1.815c0,0,.821-1.365,1.489-1.385S445.654,788.822,444.92,788Z" transform="translate(-425.84 -694.445)"/><path class="h" d="M445.253,788a.6.6,0,0,1,.076.153c.652.767,1,1.482.373,1.5-.584.016-1.285,1.061-1.452,1.324a.548.548,0,0,0,.02.06s.821-1.365,1.489-1.385S445.987,788.822,445.253,788Z" transform="translate(-426.173 -694.445)"/><path class="l" d="M471.186,796.653c0,.171-.019.31-.043.31s-.043-.139-.043-.31.024-.091.047-.091S471.186,796.481,471.186,796.653Z" transform="translate(-451.415 -702.476)"/><path class="l" d="M471.892,799.948c-.15.082-.282.132-.293.111s.1-.1.251-.186.091-.022.1,0S472.041,799.866,471.892,799.948Z" transform="translate(-451.883 -705.567)"/><path class="b" d="M415.011,788s-.372.487.172,1.222.993,1.356.811,1.815c0,0-.821-1.365-1.489-1.385S414.276,788.822,415.011,788Z" transform="translate(-397.899 -694.445)"/><path class="h" d="M415.011,788a.6.6,0,0,0-.076.153c-.652.767-1,1.482-.373,1.5.584.016,1.285,1.061,1.452,1.324a.549.549,0,0,1-.02.06s-.821-1.365-1.489-1.385S414.276,788.822,415.011,788Z" transform="translate(-397.899 -694.445)"/><path class="l" d="M416.57,796.653c0,.171.019.31.043.31s.043-.139.043-.31-.024-.091-.047-.091S416.57,796.481,416.57,796.653Z" transform="translate(-400.15 -702.476)"/><path class="l" d="M411.166,799.948c.15.082.281.132.293.111s-.1-.1-.252-.186-.091-.022-.1,0S411.016,799.866,411.166,799.948Z" transform="translate(-394.984 -705.567)"/><path class="m" d="M418.55,828.816a3.8,3.8,0,0,0,1.355-.256c.314-.224,1.6-.49,1.68-.132s1.564,1.782.389,1.792a9.96,9.96,0,0,1-3.044-.374C418.616,829.656,418.55,828.816,418.55,828.816Z" transform="translate(-402.012 -732.288)"/><path class="n" d="M421.994,838.891a9.964,9.964,0,0,1-3.044-.374c-.24-.146-.334-.667-.365-.907h-.035s.066.838.379,1.031a9.91,9.91,0,0,0,3.044.374c.34,0,.457-.123.45-.3C422.376,838.823,422.247,838.891,421.994,838.891Z" transform="translate(-402.012 -741.084)"/><path class="o" d="M810.427,736.963a6.414,6.414,0,0,1,.125-3.922,3.568,3.568,0,0,0,.289-2.239,6,6,0,0,0-.317-1.051" transform="translate(-770.175 -639.683)"/><path class="a" d="M808.613,704.594a.656.656,0,1,1-1,0,.5.5,0,0,1,1,0Z" transform="translate(-767.773 -615.578)"/><path class="a" d="M822.378,725.669a.656.656,0,1,1-.842-.545.5.5,0,0,1,.842.545Z" transform="translate(-780.709 -635.119)"/><path class="a" d="M818.91,766.684a.656.656,0,1,1-.451-.9.5.5,0,1,1,.451.9Z" transform="translate(-777.277 -673.513)"/><path class="a" d="M811.366,800.4a.656.656,0,1,1-.6-.805.5.5,0,1,1,.6.806Z" transform="translate(-770.208 -705.252)"/><path class="a" d="M801.407,735.781a.656.656,0,1,0,.7-.719.5.5,0,0,0-.7.719Z" transform="translate(-761.798 -644.544)"/><path class="a" d="M790.873,773.193a.656.656,0,1,0,.452-.9.5.5,0,0,0-.452.9Z" transform="translate(-751.791 -679.638)"/><path class="a" d="M788.437,812.631a.656.656,0,1,0,.6-.806.5.5,0,0,0-.6.807Z" transform="translate(-749.555 -716.751)"/><path class="b" d="M808.613,704.594a.656.656,0,1,1-1,0,.5.5,0,0,1,1,0Z" transform="translate(-767.773 -615.578)"/><path class="b" d="M822.378,725.669a.656.656,0,1,1-.842-.545.5.5,0,0,1,.842.545Z" transform="translate(-780.709 -635.119)"/><path class="b" d="M818.91,766.684a.656.656,0,1,1-.451-.9.5.5,0,1,1,.451.9Z" transform="translate(-777.277 -673.513)"/><path class="b" d="M811.366,800.4a.656.656,0,1,1-.6-.805.5.5,0,1,1,.6.806Z" transform="translate(-770.208 -705.252)"/><path class="b" d="M801.407,735.781a.656.656,0,1,0,.7-.719.5.5,0,0,0-.7.719Z" transform="translate(-761.798 -644.544)"/><path class="b" d="M790.873,773.193a.656.656,0,1,0,.452-.9.5.5,0,0,0-.452.9Z" transform="translate(-751.791 -679.638)"/><path class="b" d="M788.437,812.631a.656.656,0,1,0,.6-.806.5.5,0,0,0-.6.807Z" transform="translate(-749.555 -716.751)"/><path class="m" d="M788.27,835.406a3.043,3.043,0,0,0,1.026-.375c.216-.214,1.189-.59,1.3-.322s1.458,1.18.539,1.341a7.948,7.948,0,0,1-2.431.107C788.431,836.049,788.27,835.406,788.27,835.406Z" transform="translate(-749.591 -738.269)"/><path class="n" d="M791.134,848.241a7.955,7.955,0,0,1-2.431.108c-.205-.082-.349-.474-.405-.659l-.027.005s.162.644.432.751a7.954,7.954,0,0,0,2.431-.107c.265-.047.341-.156.312-.293C791.423,848.137,791.331,848.207,791.134,848.241Z" transform="translate(-749.591 -750.561)"/></g></svg>