<svg xmlns="http://www.w3.org/2000/svg" width="123.648" height="99.559" viewBox="0 0 123.648 99.559"><defs><style>.a{fill:#3f3d56;}.b{fill:#e5e1e1;}.c{opacity:0.1;}.d{fill:#a8996f;}.e{fill:#2f2e41;}.f{fill:#a0616a;}.g{fill:#fff;}.h{fill:#d0cde1;}.i{fill:#6c63ff;}.j{fill:#fbbebe;}.k{fill:#b3b3b3;}.l{opacity:0.2;}.m{fill:#e6e6e6;}</style></defs><path class="a" d="M637.966,149.625c-2.61,1.565-7.26,3.526-12.011,1.511l-3.071-1.3,6.155-6.9a29.4,29.4,0,1,1,8.928,6.692Zm-11.793-26.487a24.429,24.429,0,0,0,7.778,17.973l1.7,1.6-3.873,4.342a12.932,12.932,0,0,0,4.666-2.135l1.223-.87,1.315.722a24.663,24.663,0,1,0-12.805-21.628Z" transform="translate(-556.563 -93.788)"/><path class="b" d="M638.315,137.263a27.041,27.041,0,1,1,14.045,23.724c-1.87,1.33-6.432,3.984-10.938,2.073l5.425-6.081A26.975,26.975,0,0,1,638.315,137.263Z" transform="translate(-571.096 -107.912)"/><path class="c" d="M840.416,137.681a27.053,27.053,0,0,0-24.661-26.945c.788-.069,1.585-.106,2.391-.106a27.052,27.052,0,0,1,0,54.1c-.8,0-1.6-.038-2.387-.107A27.053,27.053,0,0,0,840.416,137.681Z" transform="translate(-723.702 -108.272)"/><path class="a" d="M204.979,399a29.474,29.474,0,1,1,21.8-9.648l6.155,6.9-3.072,1.3c-4.752,2.015-9.4.054-12.011-1.511A29.513,29.513,0,0,1,204.979,399Zm0-54.1a24.661,24.661,0,1,0,11.857,46.288l1.313-.721,1.223.87a12.931,12.931,0,0,0,4.666,2.135l-3.873-4.342,1.7-1.6a24.429,24.429,0,0,0,7.778-17.973A24.689,24.689,0,0,0,204.979,344.9Z" transform="translate(-173.046 -305.831)"/><path class="d" d="M247.018,384.654a27.041,27.041,0,1,0-14.045,23.724c1.87,1.33,6.432,3.984,10.938,2.073l-5.425-6.081A26.975,26.975,0,0,0,247.018,384.654Z" transform="translate(-188.034 -320.923)"/><path class="c" d="M197.7,383.678a27.053,27.053,0,0,1,24.661-26.945c-.788-.069-1.585-.106-2.391-.106a27.052,27.052,0,1,0,0,54.1c.8,0,1.6-.038,2.387-.107A27.053,27.053,0,0,1,197.7,383.678Z" transform="translate(-188.033 -320.083)"/><path class="e" d="M793.047,222.785a6.876,6.876,0,0,0-5.272-3.13s-3.412-.436-5.6,4.118c-2.04,4.245-4.856,8.345-.453,9.338l.8-2.475.492,2.66a17.223,17.223,0,0,0,1.884.032c4.715-.152,9.205.045,9.061-1.647C793.761,229.431,794.75,225.662,793.047,222.785Z" transform="translate(-692.426 -202.079)"/><path class="e" d="M789.857,419.563a6.979,6.979,0,0,1-.226.972c-.111.311-.282.6-.383.914a3.055,3.055,0,0,0,.839,2.9,4.725,4.725,0,0,0,2.3,1.368,9.4,9.4,0,0,0,1.98.208,15.362,15.362,0,0,0,5.471-.473,9.515,9.515,0,0,0,1.589-.722,1.19,1.19,0,0,0,.412-.325,1.136,1.136,0,0,0,.149-.666c0-.78-.162-1.556-.124-2.335a9.274,9.274,0,0,0,.062-1.293,2.385,2.385,0,0,0-1.823-2.055,4.95,4.95,0,0,0-1.511,0,38.524,38.524,0,0,1-3.933.176c-1.342-.009-2.675-.213-4.01-.235-.395-.006-.387.116-.513.5A9.312,9.312,0,0,0,789.857,419.563Z" transform="translate(-700.813 -372.737)"/><path class="f" d="M811.6,281.726a2.344,2.344,0,0,1-.337.965c-.233.319-.614.5-.865.807a2.638,2.638,0,0,0-.4,1.7,2.1,2.1,0,0,0,1.111,2.29,7.284,7.284,0,0,0,3.768,1.585,2,2,0,0,0,1.564-.569,2.351,2.351,0,0,0,.379-.676,8.967,8.967,0,0,0,.635-2.731,3.206,3.206,0,0,0-.121-1.312,12.093,12.093,0,0,0-.732-1.3,2.888,2.888,0,0,1-.278-1.709.185.185,0,0,0-.01-.124.181.181,0,0,0-.149-.06l-2.741-.2a5.975,5.975,0,0,1-.761-.087c-.148-.03-.538-.24-.679-.184C811.725,280.231,811.657,281.446,811.6,281.726Z" transform="translate(-718.752 -254.11)"/><path class="c" d="M811.6,282.338a2.343,2.343,0,0,1-.337.965c-.233.319-.614.5-.865.807a2.638,2.638,0,0,0-.4,1.7,2.1,2.1,0,0,0,1.111,2.29,7.284,7.284,0,0,0,3.768,1.585,2,2,0,0,0,1.564-.569,2.35,2.35,0,0,0,.379-.676,8.969,8.969,0,0,0,.635-2.731,3.206,3.206,0,0,0-.121-1.312,12.12,12.12,0,0,0-.732-1.3,2.888,2.888,0,0,1-.278-1.709.185.185,0,0,0-.01-.124.181.181,0,0,0-.149-.06l-2.741-.2a5.975,5.975,0,0,1-.761-.087c-.148-.03-.538-.24-.679-.184C811.725,280.842,811.657,282.058,811.6,282.338Z" transform="translate(-718.752 -254.636)"/><circle class="f" cx="4.022" cy="4.022" r="4.022" transform="translate(91.451 19.957)"/><path class="g" d="M816.556,313.358a2.467,2.467,0,0,0,.706.564,2.22,2.22,0,0,0,.883.168,2.66,2.66,0,0,0,2.015-.634c.65-.672.629-1.755,1.138-2.539a.564.564,0,0,1,.164-.18.532.532,0,0,1,.279-.064,2.893,2.893,0,0,1,1.71.809,2.251,2.251,0,0,1,.6.613,2.082,2.082,0,0,1,.2.622,27.311,27.311,0,0,1,.413,3.727c.044.69.089,1.38.086,2.071a29.946,29.946,0,0,1-1.066,6.73,1.052,1.052,0,0,1-.42.741,1.036,1.036,0,0,1-.367.09,44.864,44.864,0,0,1-4.535.378q-.888.014-1.776-.043a.956.956,0,0,1-.3-.052.843.843,0,0,1-.326-.277,5.942,5.942,0,0,1-.864-3.784q.019-4.842.346-9.676a1.065,1.065,0,0,0-.17-.8A9.988,9.988,0,0,0,816.556,313.358Z" transform="translate(-723.141 -280.406)"/><path class="g" d="M781.255,294.469a14.027,14.027,0,0,1-1.331,1.06c-1.08,1.139-3.052,1.1-4.04,2.315a3.8,3.8,0,0,0-.661,1.5,3.6,3.6,0,0,0,.027,2.3,11.405,11.405,0,0,0,1.373,1.778,6.846,6.846,0,0,1,.893,2.293,5.276,5.276,0,0,1,.245,1.8,10.881,10.881,0,0,1-.6,1.985,2.11,2.11,0,0,0,.225,1.977,2.255,2.255,0,0,0,1.361.621,15.633,15.633,0,0,0,1.94.169,2.364,2.364,0,0,0,1.646-.337,1.656,1.656,0,0,0,.519-1.213,7.842,7.842,0,0,0-.134-1.35c-.061-.466-.085-.935-.1-1.4q-.132-3.157-.036-6.319a5.376,5.376,0,0,0-.064-1.311,7.2,7.2,0,0,0-.682-1.586,6,6,0,0,1-.665-3.17C781.246,294.453,781.738,293.594,781.255,294.469Z" transform="translate(-688.692 -266.156)"/><path class="g" d="M851.21,292.143c.207.213.91.283,1.173.42a4.109,4.109,0,0,0,.771.267,10.009,10.009,0,0,1,2.709,1.243,1.644,1.644,0,0,1,.453.391,1.794,1.794,0,0,1,.251.708,6.022,6.022,0,0,1-.216,3.954l-.771,2.465a26.44,26.44,0,0,0-1.317,5.619,13.212,13.212,0,0,0,.119,3.192.379.379,0,0,1-.039.309.3.3,0,0,1-.189.087,1.852,1.852,0,0,1-1.069-.3,11.845,11.845,0,0,0-3.265-1.068,7.586,7.586,0,0,0,1.014-2.09,12.663,12.663,0,0,0,.307-1.438l.359-2.075a20.426,20.426,0,0,0,.308-2.294,2.874,2.874,0,0,0-.05-.864,4.206,4.206,0,0,0-.328-.779,6.658,6.658,0,0,1-.636-3.977,5.811,5.811,0,0,0,.217-1.769,12.455,12.455,0,0,0-.143-1.573C850.268,290.261,850.82,291.743,851.21,292.143Z" transform="translate(-752.999 -263.745)"/><path class="g" d="M775.074,324.6a9.4,9.4,0,0,0-.873,1.637,3.585,3.585,0,0,0-.076.856,4.069,4.069,0,0,0,.127,1.287c.086.265.225.51.325.77a2.79,2.79,0,0,1,.183,1.141c-.027.539-.21,1.062-.224,1.6a5.181,5.181,0,0,0,.752,2.4,1.766,1.766,0,0,1,2.567-.84.527.527,0,0,0,.116-.384q.042-1.476.082-2.951a17.65,17.65,0,0,0-.269-4.545,4.286,4.286,0,0,0-.855-1.854c-.237-.273-1.043-.993-1.433-.687-.175.138-.134.512-.162.7A2.982,2.982,0,0,1,775.074,324.6Z" transform="translate(-687.891 -290.974)"/><path class="g" d="M871.453,314.378a4.116,4.116,0,0,1,.138,1.238q.008,1.276-.034,2.551a4.752,4.752,0,0,1-.166,1.291c-.087.274-.221.53-.311.8a7.527,7.527,0,0,0-.1,2.564,2.916,2.916,0,0,1-.071.83,6.831,6.831,0,0,1-.791,1.448,14.227,14.227,0,0,1-.708,1.4,1.337,1.337,0,0,1-1.333.636,1.472,1.472,0,0,1-.847-.789,3.871,3.871,0,0,1-.4-2.511c.19-1.044.8-1.971,1.024-3.009.3-1.425-.158-2.9-.144-4.354a2.1,2.1,0,0,1,.092-.675,2.825,2.825,0,0,1,.6-.866,10.926,10.926,0,0,0,.8-1.05c.165-.246.389-.878.681-.931C870.531,312.839,871.291,313.874,871.453,314.378Z" transform="translate(-767.576 -282.361)"/><path class="e" d="M733.984,423.953a3.97,3.97,0,0,0-1.1-.117,2.756,2.756,0,0,0-2.559,3.249,4.627,4.627,0,0,0,.438,1.2,3.993,3.993,0,0,0,1.186,1.568,4.622,4.622,0,0,0,1.047.5l2.855,1.076c.42.158.84.316,1.264.463a24.731,24.731,0,0,0,6.6,1.313,7.15,7.15,0,0,0,2.05-.1.668.668,0,0,0,.42-.227.719.719,0,0,0,.094-.31l.176-1.23a1.031,1.031,0,0,0-.015-.519.992.992,0,0,0-.475-.447c-1.877-1.078-4.069-1.673-5.649-3.153-.372-.348-.683-.9-1.135-1.137-.513-.268-1.116-.421-1.646-.669A18.233,18.233,0,0,0,733.984,423.953Z" transform="translate(-650.186 -377.765)"/><path class="c" d="M769.28,434.8a29.625,29.625,0,0,1,6,3.272c-.1.035-3.419-1.826-3.519-1.856a20.078,20.078,0,0,1-2.677-.944c-.173-.08-1.124-.456-1.081-.675C768.052,434.352,769.1,434.744,769.28,434.8Z" transform="translate(-682.632 -386.951)"/><path class="f" d="M841.668,479.262a.238.238,0,0,0,.16-.047.247.247,0,0,0,.05-.184l0-1.676a5.152,5.152,0,0,0-1.55-.374l-2.469-.33c.057.008-.386,1.063-.318,1.2.12.248,1.034.469,1.292.586A6.461,6.461,0,0,0,841.668,479.262Z" transform="translate(-742.429 -423.2)"/><path class="f" d="M802.412,474.243a2,2,0,0,0-1.288.5,1.834,1.834,0,0,0-.037,1.716.557.557,0,0,0,.649.464,2.244,2.244,0,0,0,1.249-.161,5.458,5.458,0,0,0,.485-.361,3.112,3.112,0,0,1,.892-.408,9.018,9.018,0,0,1,1.79-.369,2.787,2.787,0,0,0,.705-.124.781.781,0,0,0,.5-.482,1.148,1.148,0,0,0-.261-.882,3.518,3.518,0,0,0-.751-.928c-.46-.357-.687-.083-1.151.146A9.766,9.766,0,0,1,802.412,474.243Z" transform="translate(-710.918 -420.095)"/><path class="e" d="M768.448,477.945l-2.959-.875a3.919,3.919,0,0,0-1.1-.213,1.322,1.322,0,0,0-1.011.409,1.97,1.97,0,0,0-.352.987L762.9,479a3.75,3.75,0,0,0-.069,1.147,1.268,1.268,0,0,0,.588.945,2.025,2.025,0,0,0,1.369.021,14.9,14.9,0,0,1,2.8-.3,2.251,2.251,0,0,0,1.039-.166,1.3,1.3,0,0,0,.633-1.034C769.324,478.974,769.111,478.141,768.448,477.945Z" transform="translate(-678.172 -423.379)"/><path class="e" d="M867.7,475.521a7.183,7.183,0,0,0,1.09-.414,4.846,4.846,0,0,1,1.626-.179.787.787,0,0,1,.927.886l.248,1.733a2.716,2.716,0,0,1,.02.982.924.924,0,0,1-.61.714,1.816,1.816,0,0,1-1.132-.309,27.528,27.528,0,0,0-2.927-.605.656.656,0,0,1-.438-.313.715.715,0,0,1-.034-.3,7.536,7.536,0,0,1,.066-1.85C866.69,475.386,867.274,475.521,867.7,475.521Z" transform="translate(-767.299 -421.716)"/><path class="e" d="M844.356,418.758a5.14,5.14,0,0,1,1.81-.124,1.908,1.908,0,0,1,1.916,2.154,5.1,5.1,0,0,1-1.107,3.254,2.951,2.951,0,0,1-.633.609,4.169,4.169,0,0,1-.824.4l-6.394,2.522A41.331,41.331,0,0,1,834,429.337a.4.4,0,0,1-.537-.195,13.245,13.245,0,0,1-1.4-2.564.173.173,0,0,1,.076-.272l4.523-2.6a4.574,4.574,0,0,0,.92-.634,2.288,2.288,0,0,0,.473-.658c.094-.2.1-.658.222-.8s.518-.153.7-.209a6.364,6.364,0,0,0,.766-.29c1.012-.453,1.913-1.11,2.882-1.64A7.4,7.4,0,0,1,844.356,418.758Z" transform="translate(-737.691 -373.267)"/><path class="c" d="M857.229,430.529c-.777.584-1.783,1.12-2.553,1.719-.263.2-4.644,2.668-4.706,2.995.718.121,5.3-3.081,5.95-3.4a10.575,10.575,0,0,0,1.81-1.217c.147-.114.768-.457.347-.584C857.839,429.97,857.4,430.412,857.229,430.529Z" transform="translate(-753.127 -383.094)"/><path class="h" d="M814.847,297.693h-6.821a1.045,1.045,0,0,0-1.045,1.045v.383h-.074v.856h.074v.6h-.074v.513h.074V307.4a1.045,1.045,0,0,0,1.045,1.045h6.821a1.045,1.045,0,0,0,1.045-1.045v-8.664a1.045,1.045,0,0,0-1.045-1.045Z" transform="translate(-716.092 -269.233)"/><path class="e" d="M656.657,135.765l-3.46-1.812-4.778.741-.988,4.366,2.461-.095.687-1.6v1.577l1.135-.044.659-2.554.412,2.718,4.036-.082Z" transform="translate(-556.818 -115.346)"/><path class="f" d="M783.2,347.256a1.8,1.8,0,0,0,.646.642,1.263,1.263,0,0,0,1.11-.03,1.954,1.954,0,0,0,.8-.8,4,4,0,0,0,.407-2.22c-.047-.762-.209-1.511-.281-2.271-.052-.552-.057-1.108-.061-1.662a.553.553,0,0,1,.07-.336.661.661,0,0,1,.371-.185,2.983,2.983,0,0,0,1.624-1.641,2.845,2.845,0,0,0,.4-1.511,1.186,1.186,0,0,0-.951-1.111,1.524,1.524,0,0,0-1.147.535,4.917,4.917,0,0,0-1.44,2.877,11.12,11.12,0,0,1-.195,1.605c-.311,1.11-1.284,1.79-1.768,2.789A3.364,3.364,0,0,0,783.2,347.256Z" transform="translate(-695.117 -302.301)"/><path class="f" d="M861.888,322.682a2.1,2.1,0,0,1-1.176,1.13,1.624,1.624,0,0,1-1.022.063,1.134,1.134,0,0,1-.749-.67,1.81,1.81,0,0,1-.084-.5,5.185,5.185,0,0,1,.242-2.218c.1-.27.246-.525.329-.8a4.023,4.023,0,0,0,.124-.979l.089-2.042a1.324,1.324,0,0,0-.03-.443,1.4,1.4,0,0,0-.618-.664,4.067,4.067,0,0,1-1.513-1.606,1.127,1.127,0,0,1-.1-.665,1.105,1.105,0,0,1,.9-.756,2.007,2.007,0,0,1,2.406,1.617c.04.23.039.466.063.7.05.494.206.969.3,1.456.241,1.2.116,2.436.355,3.634C861.6,320.933,862.352,321.586,861.888,322.682Z" transform="translate(-759.485 -281.956)"/><circle class="i" cx="0.856" cy="0.856" r="0.856" transform="translate(94.58 31.342)"/><circle class="e" cx="2.524" cy="2.524" r="2.524" transform="translate(0 57.832)"/><path class="j" d="M59.91,478.916l-1.271-1.236-2.553.793.245,2.956,5.249-.244-1.613-2.191Z" transform="translate(-48.237 -411.087)"/><circle class="j" cx="4.081" cy="4.081" r="4.081" transform="translate(4.812 59.653)"/><path class="e" d="M388.751,617.061s5.013,8.616,6.207,9.909a21.66,21.66,0,0,0,1.81,1.8s-.561,1.861-1.454,1.794a4.207,4.207,0,0,1-1.474-.363,3.575,3.575,0,0,0-1.094-1.487c-.7-.453-6.378-6.043-6.245-7.83S388.751,617.061,388.751,617.061Z" transform="translate(-354.523 -544.068)"/><path class="e" d="M275.023,670.92s5.345,4.149,12.61.25l.626-.461a24.658,24.658,0,0,0-1.155,3.021,23.205,23.205,0,0,1-3.313,5.334,1.164,1.164,0,0,0-.548.4l1.9,2.1.7-.518a54.912,54.912,0,0,1,3.549-4.6c.8-.712,4.63-8.052,4.63-8.052s1.463-2.766-2.188-2.974-5.332.787-5.332.787l-6.481,1.029Z" transform="translate(-258.65 -585.632)"/><path class="e" d="M436.66,697.841l2.7,1.871s3.449,1.081,1.325,1.8-7.724.979-7.851-.013.221-2.554.5-2.469A2.886,2.886,0,0,0,436.66,697.841Z" transform="translate(-394.353 -613.542)"/><path class="e" d="M326.178,764.546l.5,2.748s1.423,2.721-.286,1.877-5.228-4.052-4.709-4.724,1.667-1.4,1.784-1.183A2.452,2.452,0,0,0,326.178,764.546Z" transform="translate(-298.736 -669.775)"/><path class="g" d="M218.2,589.308s-3.634,4.242-5.84,3.212-11.232-12.967-10.2-15.173,1.376-1.736,1.376-1.736l4.66.431-1.341-2.15a.907.907,0,0,1,1.223.186c.6.647,2.992,2.262,3.826,4.543a3.428,3.428,0,0,0,3.284,2.167Z" transform="translate(-195.917 -506.804)"/><path class="a" d="M190.705,469.431l-6.3,6.686-5.643-9.962,5.364-6.481Z" transform="translate(-153.745 -395.619)"/><path class="g" d="M194.05,472.762l-5.689,5.876-5.155-9.054,4.728-5.952Z" transform="translate(-157.565 -399.021)"/><path class="k" d="M162.92,575.336l.309.255-.2.387-8.808,2.621-.083-.3.4-.414Z" transform="translate(-132.567 -495.149)"/><path class="h" d="M129.428,515.886l-9.121,2.852-5.56-10.506,8.96-2.251Z" transform="translate(-98.687 -435.455)"/><path class="a" d="M185.641,520.713l-.391.288-4.343-7.541.449-.21Z" transform="translate(-155.588 -441.699)"/><path class="a" d="M157.7,523.582l-3.858,1.15-4.38-7.755,3.817-.879Z" transform="translate(-128.539 -444.152)"/><path class="j" d="M285.68,619.651l.8-.226s4.455-.5,4.52.9-5.118.75-5.118.75l-.691-.939Z" transform="translate(-267.393 -545.965)"/><path class="j" d="M310.494,646.6l1.112-.456s3.356-1.5,2.393-2.485-3.932.722-3.932.722l-.569.539Z" transform="translate(-288.3 -566.633)"/><path class="g" d="M218.412,618.777s1.81,1.8,1.4,2.228-7.167,6-8.842,4.215-9.833-10.739-6.658-11.507,4.013,1.028,4.013,1.028l4.191,7.17Z" transform="translate(-197.209 -540.982)"/><path class="g" d="M111.412,518.781l2.974,1.008-.049,2.147-3.145-.339Z" transform="translate(-95.63 -446.449)"/><path class="l" d="M89.73,542.815l-3.2,1.875-3.661-5.63L86.4,543.7Z" transform="translate(-71.268 -463.901)"/><circle class="e" cx="4.858" cy="4.858" r="4.858" transform="translate(2.244 57.695)"/><path class="i" d="M217.4,490.869l-3.4-4.976,1.442-1.785,3.535,5.12Z" transform="translate(-184.045 -416.623)"/><path class="m" d="M205.792,498.552l-5.179-7.529.255-.309,5.155,7.547Z" transform="translate(-172.536 -422.309)"/><path class="m" d="M201.024,503.784l-5.179-7.529.255-.309,5.155,7.547Z" transform="translate(-168.435 -426.811)"/><path class="m" d="M196.962,507.635l-5.179-7.529.255-.309,5.155,7.547Z" transform="translate(-164.942 -430.125)"/><path class="e" d="M66.117,425.544h1.5a2.869,2.869,0,0,1,2.869,2.869H66.117Z" transform="translate(-56.864 -366.228)"/><path class="a" d="M362.711,505.5l-.272-.02c-.011.142-.018.284-.027.426l-1.223-.041,1.283,2.4,1.441-2.313-1.227-.041C362.694,505.778,362.7,505.639,362.711,505.5Z" transform="translate(-332.756 -448.006)"/><path class="a" d="M423.317,357.787l.217.166c.326-.427.666-.853,1.011-1.266l-.21-.175C423.988,356.928,423.645,357.357,423.317,357.787Z" transform="translate(-386.189 -319.832)"/><path class="a" d="M438.272,340.473l.2.184c.362-.4.739-.791,1.119-1.172l-.194-.193C439.016,339.675,438.637,340.073,438.272,340.473Z" transform="translate(-399.051 -305.017)"/><path class="a" d="M454.736,324.6l.185.2c.4-.364.806-.724,1.217-1.069l-.176-.209C455.548,323.874,455.135,324.236,454.736,324.6Z" transform="translate(-413.21 -291.452)"/><path class="a" d="M409.991,376.415l.231.146c.287-.454.589-.909.9-1.351l-.224-.156C410.584,375.5,410.28,375.957,409.991,376.415Z" transform="translate(-374.728 -335.786)"/><path class="a" d="M472.579,310.3l.166.217c.427-.328.866-.65,1.305-.957l-.157-.224C473.452,309.645,473.009,309.97,472.579,310.3Z" transform="translate(-428.556 -279.242)"/><path class="a" d="M398.406,396.217l.243.125c.246-.479.506-.958.774-1.426l-.237-.136C398.916,395.251,398.654,395.734,398.406,396.217Z" transform="translate(-364.764 -352.758)"/><path class="a" d="M375.665,459.578l-.265-.068c-.135.524-.26,1.059-.372,1.589l.267.056C375.407,460.63,375.531,460.1,375.665,459.578Z" transform="translate(-344.659 -408.452)"/><path class="a" d="M491.665,297.678l.147.231c.453-.288.919-.57,1.384-.838l-.136-.237C492.59,297.1,492.121,297.388,491.665,297.678Z" transform="translate(-444.971 -268.486)"/><path class="a" d="M371.744,482.371l-.27-.044c-.088.533-.165,1.077-.229,1.616l.271.032C371.58,483.44,371.657,482.9,371.744,482.371Z" transform="translate(-341.405 -428.082)"/><path class="a" d="M388.661,417.045l.253.1c.2-.5.419-1,.644-1.489l-.248-.114C389.083,416.038,388.865,416.542,388.661,417.045Z" transform="translate(-356.383 -370.623)"/><path class="a" d="M380.841,438.74l.261.08c.158-.516.329-1.034.509-1.542l-.257-.091C381.172,437.7,381,438.221,380.841,438.74Z" transform="translate(-349.658 -389.245)"/><path class="a" d="M623.675,262.137c.536-.019,1.081-.026,1.621-.021l0-.273c-.543-.005-1.093,0-1.632.021Z" transform="translate(-558.497 -238.379)"/><path class="a" d="M511.845,286.842l.126.243c.477-.247.966-.487,1.452-.712l-.115-.248C512.818,286.351,512.326,286.592,511.845,286.842Z" transform="translate(-462.327 -259.271)"/><path class="a" d="M669.93,264.725c.533.075,1.071.164,1.6.263l.05-.269c-.532-.1-1.074-.189-1.611-.265Z" transform="translate(-598.286 -240.627)"/><path class="a" d="M692.685,269.01c.523.122,1.051.258,1.569.4l.074-.263c-.522-.147-1.054-.283-1.581-.407Z" transform="translate(-617.856 -244.318)"/><path class="a" d="M714.969,275.315c.51.168,1.024.351,1.527.542l.1-.255c-.507-.193-1.024-.376-1.538-.546Z" transform="translate(-637.021 -249.748)"/><path class="a" d="M646.886,262.482c.538.028,1.082.069,1.616.12l.026-.272c-.538-.052-1.086-.093-1.628-.121Z" transform="translate(-578.467 -238.695)"/><path class="a" d="M600.423,262.824l.033.271c.532-.065,1.075-.12,1.611-.162l-.021-.272C601.506,262.7,600.959,262.758,600.423,262.824Z" transform="translate(-538.507 -239.084)"/><path class="a" d="M554.878,270.844l.081.261c.513-.159,1.037-.309,1.558-.445l-.069-.264C555.923,270.533,555.4,270.683,554.878,270.844Z" transform="translate(-499.337 -245.739)"/><path class="a" d="M532.961,277.877l.1.253c.5-.2,1-.4,1.508-.58l-.092-.257C533.973,277.475,533.461,277.672,532.961,277.877Z" transform="translate(-480.487 -251.673)"/><path class="a" d="M577.434,265.814l.057.267c.525-.113,1.06-.215,1.591-.3l-.045-.27C578.5,265.6,577.963,265.7,577.434,265.814Z" transform="translate(-518.736 -241.533)"/><path class="a" d="M738.31,278.986l-1.527-2.257-.537,1.105c-.13-.058-.259-.117-.389-.174l-.109.251c.127.055.252.112.378.169l-.534,1.1Z" transform="translate(-654.758 -251.189)"/></svg>