<svg xmlns="http://www.w3.org/2000/svg" width="12" height="11.999" viewBox="0 0 12 11.999"><defs><style>.a{fill:#333;}</style></defs><g transform="translate(-7 -9.016)"><g transform="translate(7 9.016)"><path class="a" d="M7.322,6.016l4.487-4.487a.657.657,0,0,0,0-.928L11.415.208a.658.658,0,0,0-.928,0L6,4.694,1.513.208a.658.658,0,0,0-.928,0L.192.6a.657.657,0,0,0,0,.928L4.679,6.016.192,10.5a.658.658,0,0,0,0,.928l.393.393a.658.658,0,0,0,.928,0L6,7.337l4.487,4.487a.651.651,0,0,0,.464.192h0a.651.651,0,0,0,.464-.192l.393-.393a.658.658,0,0,0,0-.928Z" transform="translate(0 -0.016)"/></g></g></svg>